<svg width="100" height="88" viewBox="0 0 100 88" fill="none" xmlns="http://www.w3.org/2000/svg">
<path d="M95.5702 87.883L95.4371 87.8333C95.4078 87.8223 92.4956 86.7119 91.1314 84.1941C89.7671 81.6762 90.4351 78.6446 90.442 78.6144L90.4735 78.4763L90.6065 78.526C90.6358 78.537 93.548 79.6474 94.9123 82.1652C96.2765 84.6831 95.6085 87.7146 95.6016 87.7449L95.5702 87.883ZM91.3498 84.0769C92.5032 86.2057 94.8046 87.297 95.3876 87.5461C95.4985 86.9242 95.8462 84.4091 94.6938 82.2824C93.5416 80.1559 91.2393 79.0629 90.656 78.8132C90.5451 79.4355 90.1975 81.9503 91.3498 84.0769Z" fill="#3F3D56"/>
<path d="M92.174 83.311C94.6256 84.7789 95.5699 87.6946 95.5699 87.6946C95.5699 87.6946 92.5391 88.2303 90.0874 86.7624C87.6358 85.2945 86.6915 82.3788 86.6915 82.3788C86.6915 82.3788 89.7223 81.8431 92.174 83.311Z" fill="#EC3528"/>
<path d="M52.7037 47.1619C52.8225 46.979 52.9788 46.8232 53.1624 46.7046C53.346 46.5861 53.5526 46.5074 53.7689 46.4739C53.9851 46.4403 54.206 46.4527 54.4171 46.51C54.6282 46.5674 54.8248 46.6685 54.9939 46.8067C55.0473 46.8507 55.0975 46.8983 55.1441 46.9493L61.2497 46.0647L61.5895 41.4956C61.6155 41.1451 61.7804 40.8192 62.0478 40.5896C62.3153 40.3601 62.6634 40.2457 63.0156 40.2715C63.3679 40.2974 63.6953 40.4615 63.926 40.7277C64.1567 40.9939 64.2716 41.3403 64.2456 41.6908C64.245 41.699 64.2443 41.7071 64.2436 41.7152L63.6484 48.1265L63.6455 48.1408C63.5681 48.3873 63.4129 48.6023 63.2029 48.754C62.9929 48.9057 62.7394 48.986 62.4799 48.9829L55.2985 48.8595C55.2706 48.9019 55.2405 48.9428 55.2084 48.982C55.0695 49.1503 54.8964 49.2875 54.7005 49.3845C54.5045 49.4816 54.2902 49.5364 54.0716 49.5453C53.8529 49.5542 53.6348 49.517 53.4316 49.4362C53.2284 49.3554 53.0446 49.2328 52.8923 49.0763C52.8614 49.0448 52.8321 49.0123 52.8044 48.9787C52.5975 48.725 52.4763 48.4128 52.4582 48.0865C52.4401 47.7603 52.526 47.4367 52.7037 47.1619V47.1619Z" fill="#FFB7B7"/>
<path d="M65.0132 86.1191L63.2718 86.119L62.4434 79.4346L65.0135 79.4347L65.0132 86.1191Z" fill="#FFB7B7"/>
<path d="M65.4572 87.7989L59.8423 87.7987V87.728C59.8423 87.1512 60.0726 86.598 60.4824 86.1902C60.8923 85.7823 61.4482 85.5531 62.0278 85.5531H62.0279L65.4573 85.5532L65.4572 87.7989Z" fill="#2F2E41"/>
<path d="M77.1814 84.5479L75.5333 85.1072L72.5807 79.047L75.0133 78.2213L77.1814 84.5479Z" fill="#FFB7B7"/>
<path d="M78.1466 85.9951L72.8323 87.7989L72.8094 87.732C72.6223 87.1861 72.6608 86.5885 72.9164 86.0708C73.1719 85.5531 73.6237 85.1576 74.1723 84.9714L74.1724 84.9713L77.4182 83.8696L78.1466 85.9951Z" fill="#2F2E41"/>
<path d="M66.9306 27.6733C66.9306 27.6733 65.1974 27.1036 64.0832 29.3822C62.969 31.6609 61.2357 34.1673 61.2357 34.1673L62.2261 34.3952C62.2261 34.3952 62.4737 32.8002 63.0928 32.5723L62.8452 34.623C62.8452 34.623 70.2733 37.0156 73.616 34.3952L73.4922 33.5977C73.4922 33.5977 73.9874 33.7116 73.9874 34.3952L74.3588 34.0534C74.3588 34.0534 73.9874 33.3698 72.8732 32.4584C72.1418 31.8601 71.8905 30.722 71.8042 30.0104C71.7357 29.408 71.4761 28.8429 71.0631 28.3973C70.3226 27.6075 68.9734 26.7682 66.9306 27.6733Z" fill="#2F2E41"/>
<path d="M67.5696 35.6343C69.3179 35.6343 70.7352 34.2238 70.7352 32.4839C70.7352 30.744 69.3179 29.3335 67.5696 29.3335C65.8212 29.3335 64.4039 30.744 64.4039 32.4839C64.4039 34.2238 65.8212 35.6343 67.5696 35.6343Z" fill="#FFB7B7"/>
<path d="M63.3486 38.2285L62.7731 38.0376C62.7731 38.0376 61.6219 38.5149 61.6219 39.3741C61.6219 40.2333 61.4301 43.6701 61.4301 43.6701L64.0201 43.9566L63.3486 38.2285Z" fill="#CBCBCB"/>
<path d="M73.6504 57.0067C73.4117 56.7404 73.2769 56.3978 73.2706 56.041C73.2644 55.6843 73.387 55.3371 73.6162 55.0627L72.0004 41.596C71.9846 41.2785 72.096 40.9676 72.3102 40.7317C72.5244 40.4958 72.8239 40.3541 73.143 40.3378C73.4621 40.3214 73.7747 40.4317 74.0121 40.6444C74.2496 40.8572 74.3925 41.155 74.4096 41.4725C74.4098 41.4769 74.41 41.4813 74.4102 41.4857L75.8557 54.9667C75.9081 55.019 75.9564 55.0753 76.0002 55.135C76.1161 55.2946 76.1993 55.4753 76.2451 55.6669C76.2908 55.8584 76.2982 56.0571 76.2669 56.2515C76.2355 56.4459 76.1659 56.6323 76.0622 56.7999C75.9584 56.9676 75.8225 57.1133 75.6622 57.2286C75.6455 57.2406 75.6287 57.2522 75.6116 57.2635C75.426 57.3857 75.2154 57.4656 74.9951 57.4973C74.7748 57.529 74.5502 57.5118 74.3374 57.4468C74.0716 57.3667 73.8337 57.2142 73.6504 57.0067Z" fill="#FFB7B7"/>
<path d="M72.1705 43.6702L74.7606 43.3838C74.7606 43.3838 74.5688 39.947 74.5688 39.0878C74.5688 38.2286 73.4176 37.7512 73.4176 37.7512L72.842 37.9422L72.1705 43.6702Z" fill="#CBCBCB"/>
<path d="M63.7325 48.4386C63.7325 48.4386 61.5261 52.4531 61.5261 57.3219C61.5261 62.1907 61.3342 84.53 61.3342 84.53C61.3342 84.53 64.2121 85.8665 65.9388 84.2436L67.4737 59.5176L73.5172 83.7662C73.5172 83.7662 76.3951 84.339 77.7381 83.3844L75.148 66.4867C75.148 66.4867 74.0928 50.6392 71.2149 49.4936C68.3371 48.348 63.7325 48.4386 63.7325 48.4386Z" fill="#2F2E41"/>
<path d="M64.1488 32.5039C65.2695 31.6968 66.1766 30.7671 66.7767 29.6613C66.7767 29.6613 68.8333 31.9354 70.0902 32.0491C71.347 32.1628 70.2044 29.3201 70.2044 29.3201L67.9193 28.7516L65.7484 28.979L64.0345 30.1161L64.1488 32.5039Z" fill="#2F2E41"/>
<path d="M70.7352 37.1784C70.7352 37.1784 70.8265 37.1296 65.3634 37.3277L63.077 37.9543L62.7731 38.0376C62.7731 38.0376 63.0609 43.7656 63.8283 44.8158C64.5957 45.8659 64.4039 46.4387 64.212 46.5342C64.0202 46.6296 63.5405 46.4387 63.8283 46.916C64.1161 47.3934 64.4998 47.107 64.1161 47.3934C63.7324 47.6798 63.5405 48.7299 63.5405 48.7299L71.9822 49.8755C71.9822 49.8755 72.27 46.1523 73.0375 44.243C73.8049 42.3336 73.9968 41.5699 73.9968 41.5699L73.4212 37.7512L70.7352 37.1784Z" fill="#CBCBCB"/>
<path d="M54.6857 20.8944H54.2002V7.6598C54.2002 5.6283 53.3893 3.68 51.9459 2.24351C50.5025 0.807018 48.5447 3.27471e-06 46.5034 0L18.3285 0C16.2871 -5.56693e-06 14.3294 0.807001 12.886 2.24349C11.4425 3.67997 10.6316 5.62827 10.6316 7.65977V80.2656C10.6316 82.2971 11.4425 84.2454 12.8859 85.6819C14.3294 87.1184 16.2871 87.9254 18.3284 87.9254H46.5033C47.5141 87.9254 48.515 87.7273 49.4488 87.3423C50.3826 86.9574 51.2311 86.3932 51.9459 85.6819C52.6606 84.9706 53.2275 84.1262 53.6143 83.1969C54.0012 82.2676 54.2002 81.2715 54.2002 80.2656V80.2656V30.3149H54.6857L54.6857 20.8944Z" fill="#3F3D56"/>
<path d="M52.5622 7.71362V80.2126C52.5629 80.9632 52.415 81.7065 52.127 82.4002C51.839 83.0939 51.4165 83.7243 50.8837 84.2555C50.3509 84.7867 49.7182 85.2082 49.0217 85.4961C48.3252 85.7839 47.5785 85.9324 46.8243 85.9331H18.5039C16.9805 85.9342 15.519 85.3329 14.441 84.2616C13.363 83.1904 12.7568 81.7368 12.7557 80.2207V7.71362C12.7552 6.96293 12.9033 6.21948 13.1914 5.52573C13.4796 4.83198 13.9023 4.20151 14.4353 3.67032C14.9683 3.13912 15.6012 2.71761 16.2979 2.42985C16.9946 2.14208 17.7415 1.9937 18.4958 1.99317H21.9381C21.769 2.40581 21.7044 2.85352 21.7502 3.29684C21.7959 3.74017 21.9504 4.1655 22.2002 4.53536C22.4501 4.90523 22.7874 5.20827 23.1827 5.41779C23.5779 5.62731 24.0189 5.73688 24.4667 5.73684H40.6081C41.0559 5.73688 41.4969 5.62731 41.8921 5.41779C42.2873 5.20827 42.6247 4.90523 42.8745 4.53536C43.1243 4.1655 43.2789 3.74017 43.3246 3.29684C43.3703 2.85352 43.3058 2.40581 43.1366 1.99317H46.8141C48.3372 1.99181 49.7985 2.59265 50.8765 3.66352C51.9544 4.73439 52.5608 6.18756 52.5622 7.70336V7.71362L52.5622 7.71362Z" fill="white"/>
<path d="M52.5622 18.4396V15.9702H48.8066V2.34631C48.1687 2.11187 47.494 1.9923 46.814 1.99317H46.3252V15.9702H33.2979V5.73685H30.8165V15.9702H19.8984V1.99318H18.5039C18.1391 1.99261 17.7752 2.02693 17.417 2.09566V15.9702H12.7557V18.4396H17.417V24.1515L12.7558 26.8296V29.6818L17.417 27.0037V43.9983H12.7557V46.4678H17.417V71.0387H12.7557V73.5081H17.417V85.8306C17.7752 85.8993 18.1391 85.9336 18.5039 85.9331H19.8984V73.5081H30.8165V85.9331H33.2979V73.5081H46.3252V85.9331H46.814C47.494 85.934 48.1687 85.8144 48.8066 85.58V73.5081H52.5622V71.0387H48.8066V60.2966H52.5287V57.8272H48.8066V46.4678H52.5622V43.9983H48.8066V28.9348H52.5622V26.4653H48.8066V18.4396L52.5622 18.4396ZM27.3588 18.4396L27.3587 18.4397L19.8985 22.7266L19.8984 22.7267V18.4396H27.3588ZM19.8984 25.5776L19.8985 25.5776L30.8165 19.304V43.9983H19.8984V25.5776ZM19.8984 71.0387V46.4678H30.8165V71.0387H19.8984ZM46.3252 71.0387H33.2979V60.2966H46.3252V71.0387ZM46.3252 57.8272H33.2979V46.4678H46.3252V57.8272ZM46.3252 43.9983H33.2979V28.9348H46.3252V43.9983ZM46.3252 26.4653H33.2979V18.4396H46.3252V26.4653Z" fill="#E5E5E5"/>
<path d="M54.6378 26.511C54.6378 34.3531 40.3698 51.8228 40.3698 51.8228C40.3698 51.8228 26.1018 34.3531 26.1018 26.511C26.1018 22.7452 27.605 19.1335 30.2808 16.4706C32.9566 13.8078 36.5857 12.3118 40.3698 12.3118C44.1539 12.3118 47.783 13.8078 50.4588 16.4706C53.1346 19.1335 54.6378 22.7452 54.6378 26.511V26.511Z" fill="#EC3528"/>
<path d="M48.8067 25.8937C48.8067 27.5542 48.3119 29.1775 47.3848 30.5583C46.4578 31.939 45.1402 33.0151 43.5985 33.6506C42.0569 34.2861 40.3606 34.4524 38.724 34.1284C37.0875 33.8044 35.5842 33.0048 34.4043 31.8306C33.2244 30.6564 32.4209 29.1603 32.0953 27.5316C31.7698 25.903 31.9369 24.2148 32.5754 22.6806C33.214 21.1464 34.2953 19.8351 35.6828 18.9126C37.0702 17.99 38.7013 17.4976 40.37 17.4976C41.4774 17.4971 42.574 17.7136 43.5974 18.1349C44.6207 18.5562 45.5506 19.1739 46.334 19.9529C47.1174 20.7318 47.739 21.6567 48.1633 22.6747C48.5875 23.6927 48.8062 24.7839 48.8067 25.8859V25.8937Z" fill="white"/>
<path d="M40.3406 29.2079C42.0765 29.2079 43.4837 27.8075 43.4837 26.08C43.4837 24.3525 42.0765 22.952 40.3406 22.952C38.6047 22.952 37.1975 24.3525 37.1975 26.08C37.1975 27.8075 38.6047 29.2079 40.3406 29.2079Z" fill="#EC3528"/>
<path d="M44.9023 33.2241C43.5474 34.0816 41.9749 34.5369 40.3692 34.5367C38.7636 34.5364 37.1912 34.0807 35.8365 33.2229C36.1183 32.2428 36.7131 31.3807 37.5311 30.767C38.349 30.1533 39.3455 29.8214 40.3699 29.8215C41.3942 29.8217 42.3907 30.1538 43.2084 30.7678C44.0262 31.3817 44.6208 32.244 44.9023 33.2241V33.2241Z" fill="#EC3528"/>
<path d="M40.3698 62.0709C42.494 62.0709 44.216 60.3572 44.216 58.2433C44.216 56.1293 42.494 54.4156 40.3698 54.4156C38.2457 54.4156 36.5237 56.1293 36.5237 58.2433C36.5237 60.3572 38.2457 62.0709 40.3698 62.0709Z" fill="#EC3528"/>
<path d="M99.8759 88H0.124069C0.0911642 88 0.0596067 87.987 0.0363391 87.9638C0.0130716 87.9407 0 87.9093 0 87.8765C0 87.8438 0.0130716 87.8124 0.0363391 87.7892C0.0596067 87.7661 0.0911642 87.7531 0.124069 87.7531H99.8759C99.9088 87.7531 99.9404 87.7661 99.9637 87.7892C99.9869 87.8124 100 87.8438 100 87.8765C100 87.9093 99.9869 87.9407 99.9637 87.9638C99.9404 87.987 99.9088 88 99.8759 88Z" fill="#CBCBCB"/>
</svg>
