<svg width="100" height="94" viewBox="0 0 100 94" fill="none" xmlns="http://www.w3.org/2000/svg">
<path d="M47.1445 0.783976L44.0846 2.46499L6.3849 23.1754L3.32491 24.8564C1.84011 25.6743 0.73816 27.0518 0.260811 28.6866C-0.216538 30.3215 -0.0303004 32.0803 0.778668 33.5771L28.8527 85.3823C29.665 86.8773 31.0331 87.9868 32.6569 88.4674C34.2807 88.948 36.0275 88.7605 37.5141 87.946L37.522 87.9416L81.3258 63.8779L81.3337 63.8735C82.8185 63.0557 83.9205 61.6782 84.3978 60.0433C84.8752 58.4084 84.6889 56.6497 83.88 55.1529L55.8059 3.34766C54.9936 1.8527 53.6255 0.743208 52.0017 0.26259C50.378 -0.218028 48.6312 -0.0305205 47.1445 0.783976V0.783976Z" fill="#F2F2F2"/>
<path d="M48.025 2.40839L44.4006 4.39943L7.82959 24.4899L4.20531 26.4809C3.14794 27.0633 2.36321 28.0442 2.02328 29.2085C1.68334 30.3727 1.81597 31.6251 2.39205 32.691L30.4661 84.4963C31.0446 85.5609 32.0188 86.351 33.1751 86.6932C34.3315 87.0355 35.5754 86.9019 36.6341 86.3219L36.642 86.3176L80.4458 62.2538L80.4537 62.2494C81.5111 61.667 82.2958 60.6861 82.6357 59.5219C82.9757 58.3576 82.843 57.1052 82.2669 56.0393L54.1929 4.23407C53.6144 3.16948 52.6402 2.37938 51.4839 2.03712C50.3276 1.69486 49.0836 1.82838 48.025 2.40839V2.40839Z" fill="white"/>
<path d="M48.6293 18.4888L32.2922 27.4637C32.0447 27.5996 31.7537 27.631 31.4832 27.551C31.2127 27.4709 30.9849 27.2859 30.8498 27.0367C30.7148 26.7875 30.6836 26.4945 30.7631 26.2222C30.8426 25.9499 31.0264 25.7205 31.2739 25.5845L47.611 16.6096C47.8585 16.4737 48.1495 16.4423 48.42 16.5223C48.6905 16.6024 48.9183 16.7874 49.0534 17.0366C49.1884 17.2857 49.2196 17.5787 49.1401 17.8511C49.0606 18.1234 48.8768 18.3528 48.6293 18.4888H48.6293Z" fill="#F2F2F2"/>
<path d="M54.1971 19.5452L34.0106 30.6347C33.7631 30.7707 33.4721 30.8021 33.2016 30.722C32.9311 30.642 32.7033 30.457 32.5682 30.2078C32.4332 29.9586 32.402 29.6656 32.4815 29.3933C32.561 29.1209 32.7447 28.8915 32.9922 28.7556L53.1788 17.666C53.3013 17.5987 53.4358 17.5564 53.5747 17.5414C53.7135 17.5264 53.8538 17.5391 53.9878 17.5787C54.1217 17.6184 54.2466 17.6842 54.3552 17.7724C54.4639 17.8607 54.5543 17.9696 54.6211 18.093C54.688 18.2163 54.7301 18.3518 54.7449 18.4915C54.7598 18.6313 54.7472 18.7726 54.7078 18.9075C54.6685 19.0423 54.6031 19.1681 54.5155 19.2775C54.4278 19.3869 54.3197 19.4779 54.1971 19.5452H54.1971Z" fill="#F2F2F2"/>
<path d="M25.5758 23.7278L10.5139 32.0021C10.3953 32.0672 10.3073 32.1772 10.2692 32.3076C10.2311 32.4381 10.2461 32.5785 10.3107 32.6979L16.7245 44.5332C16.7892 44.6526 16.8983 44.7412 17.0279 44.7796C17.1575 44.8179 17.297 44.8029 17.4156 44.7378L32.4775 36.4635C32.596 36.3983 32.684 36.2884 32.7221 36.1579C32.7602 36.0274 32.7453 35.8871 32.6806 35.7677L26.2669 23.9323C26.2022 23.813 26.093 23.7244 25.9634 23.686C25.8338 23.6476 25.6944 23.6627 25.5758 23.7278V23.7278Z" fill="#F2F2F2"/>
<path d="M56.7354 33.5059L34.5761 45.6792C34.4536 45.7465 34.3191 45.7888 34.1803 45.8038C34.0415 45.8188 33.9011 45.8061 33.7671 45.7665C33.6332 45.7268 33.5083 45.661 33.3997 45.5728C33.291 45.4845 33.2006 45.3756 33.1338 45.2522C33.0669 45.1288 33.0248 44.9934 33.01 44.8537C32.9951 44.7139 33.0077 44.5726 33.0471 44.4377C33.0864 44.3029 33.1518 44.1771 33.2394 44.0677C33.3271 43.9583 33.4352 43.8673 33.5578 43.8L55.7171 31.6267C55.9646 31.4908 56.2556 31.4594 56.5261 31.5394C56.7966 31.6195 57.0244 31.8045 57.1594 32.0537C57.2945 32.3028 57.3257 32.5958 57.2462 32.8682C57.1666 33.1405 56.9829 33.3699 56.7354 33.5059H56.7354Z" fill="#F2F2F2"/>
<path d="M62.3032 34.5623L36.2945 48.8502C36.047 48.9862 35.756 49.0176 35.4855 48.9375C35.215 48.8575 34.9872 48.6725 34.8522 48.4233C34.7171 48.1741 34.6859 47.8811 34.7654 47.6088C34.845 47.3364 35.0287 47.1071 35.2762 46.9711L61.2849 32.6831C61.5324 32.5472 61.8234 32.5158 62.0939 32.5958C62.3644 32.6759 62.5922 32.8609 62.7272 33.11C62.8623 33.3592 62.8935 33.6522 62.8139 33.9246C62.7344 34.1969 62.5507 34.4263 62.3032 34.5623H62.3032Z" fill="#F2F2F2"/>
<path d="M26.1367 55.6488C28.6276 55.6488 30.6468 53.6158 30.6468 51.1079C30.6468 48.6 28.6276 46.567 26.1367 46.567C23.6459 46.567 21.6267 48.6 21.6267 51.1079C21.6267 53.6158 23.6459 55.6488 26.1367 55.6488Z" fill="#F2F2F2"/>
<path d="M93.6163 22.1304H43.6984C42.0059 22.1323 40.3833 22.8101 39.1865 24.015C37.9898 25.22 37.3166 26.8537 37.3147 28.5577V87.5726C37.3166 89.2766 37.9898 90.9104 39.1865 92.1153C40.3833 93.3202 42.0059 93.998 43.6984 93.9999H93.6163C95.3088 93.998 96.9314 93.3202 98.1281 92.1153C99.3249 90.9104 99.9981 89.2766 100 87.5726V28.5577C99.9981 26.8537 99.3249 25.22 98.1281 24.015C96.9314 22.8101 95.3088 22.1323 93.6163 22.1304V22.1304Z" fill="#E6E6E6"/>
<path d="M93.6164 23.9807H43.6984C42.4932 23.9821 41.3377 24.4647 40.4854 25.3228C39.6332 26.1809 39.1538 27.3443 39.1525 28.5578V87.5726C39.1538 88.7861 39.6332 89.9495 40.4854 90.8076C41.3377 91.6657 42.4932 92.1483 43.6984 92.1497H93.6164C94.8216 92.1483 95.9771 91.6657 96.8294 90.8076C97.6816 89.9495 98.161 88.7861 98.1623 87.5726V28.5578C98.161 27.3443 97.6816 26.1809 96.8294 25.3228C95.9771 24.4648 94.8216 23.9821 93.6164 23.9807V23.9807Z" fill="white"/>
<path d="M86.4972 38.388H67.8864C67.6045 38.388 67.3341 38.2752 67.1347 38.0745C66.9354 37.8738 66.8234 37.6015 66.8234 37.3176C66.8234 37.0338 66.9354 36.7615 67.1347 36.5608C67.3341 36.3601 67.6045 36.2473 67.8864 36.2473H86.4972C86.6369 36.2472 86.7752 36.2747 86.9043 36.3284C87.0335 36.3822 87.1508 36.461 87.2496 36.5604C87.3485 36.6598 87.4269 36.7778 87.4804 36.9078C87.5339 37.0377 87.5614 37.177 87.5614 37.3176C87.5614 37.4583 87.5339 37.5976 87.4804 37.7275C87.4269 37.8574 87.3485 37.9755 87.2496 38.0749C87.1508 38.1743 87.0335 38.2531 86.9043 38.3068C86.7752 38.3606 86.6369 38.3881 86.4972 38.388Z" fill="#EC3528"/>
<path d="M90.8823 42.0004H67.8864C67.6045 42.0004 67.3341 41.8876 67.1347 41.6869C66.9354 41.4862 66.8234 41.2139 66.8234 40.9301C66.8234 40.6462 66.9354 40.374 67.1347 40.1732C67.3341 39.9725 67.6045 39.8597 67.8864 39.8597H90.8823C91.1642 39.8597 91.4346 39.9725 91.634 40.1732C91.8333 40.374 91.9453 40.6462 91.9453 40.9301C91.9453 41.2139 91.8333 41.4862 91.634 41.6869C91.4346 41.8876 91.1642 42.0004 90.8823 42.0004V42.0004Z" fill="#EC3528"/>
<path d="M63.7678 31.8696H46.6098C46.4747 31.8697 46.3452 31.9237 46.2497 32.0199C46.1542 32.1161 46.1005 32.2465 46.1005 32.3825V45.8649C46.1005 46.0009 46.1542 46.1313 46.2497 46.2275C46.3452 46.3237 46.4747 46.3777 46.6098 46.3777H63.7678C63.9029 46.3777 64.0325 46.3237 64.128 46.2275C64.2235 46.1313 64.2772 46.0009 64.2772 45.8649V32.3825C64.2772 32.2465 64.2235 32.1161 64.128 32.0199C64.0325 31.9237 63.9029 31.8697 63.7678 31.8696V31.8696Z" fill="#E6E6E6"/>
<path d="M51.3164 40.1487C51.3235 41.2869 50.9068 42.3864 50.1486 43.2306C49.3983 44.0596 48.2814 44.6094 47.1543 44.3819C46.1164 44.1725 45.2731 43.2592 45.3783 42.1543C45.3957 41.915 45.4648 41.6824 45.5807 41.4727C45.6966 41.263 45.8565 41.0813 46.0493 40.9403C46.2421 40.7992 46.4631 40.7021 46.697 40.6559C46.9309 40.6097 47.1719 40.6153 47.4034 40.6725C48.3893 40.9301 48.7821 42.3608 47.9606 43.0323C47.7634 43.1934 47.4802 42.9116 47.6792 42.749C48.2223 42.305 48.0545 41.3339 47.399 41.0903C46.6358 40.8068 45.8271 41.4166 45.7722 42.2023C45.7072 43.1337 46.4159 43.8352 47.285 44.0003C48.2252 44.179 49.1574 43.6945 49.7944 43.0257C50.5246 42.2492 50.9274 41.218 50.9185 40.1487C50.9203 40.0968 50.942 40.0476 50.9791 40.0115C51.0163 39.9754 51.0659 39.9552 51.1175 39.9552C51.1691 39.9552 51.2187 39.9754 51.2558 40.0115C51.2929 40.0476 51.3146 40.0968 51.3164 40.1487V40.1487Z" fill="#2F2E41"/>
<path d="M55.2022 42.6958C59.123 42.6958 62.3014 39.4956 62.3014 35.548C62.3014 31.6004 59.123 28.4003 55.2022 28.4003C51.2815 28.4003 48.103 31.6004 48.103 35.548C48.103 39.4956 51.2815 42.6958 55.2022 42.6958Z" fill="#EC3528"/>
<path d="M54.8389 38.5979L54.8315 38.3308C55.3251 38.317 55.7602 38.2858 56.0872 38.0453C56.1799 37.9733 56.2561 37.8819 56.3106 37.7776C56.3651 37.6732 56.3966 37.5583 56.403 37.4405C56.4088 37.3686 56.398 37.2963 56.3715 37.2292C56.3449 37.1622 56.3034 37.1022 56.2501 37.054C56.0331 36.8694 55.6839 36.9291 55.4293 37.0466L55.2098 37.148L55.6307 34.0508L55.8936 34.087L55.5355 36.7216C55.8814 36.6192 56.2019 36.6633 56.4214 36.85C56.5057 36.9241 56.5718 37.0168 56.6146 37.1208C56.6574 37.2249 56.6757 37.3375 56.6681 37.4499C56.6604 37.6081 56.6184 37.7627 56.5451 37.9028C56.4717 38.0429 56.3689 38.1652 56.2436 38.261C55.8236 38.5701 55.2776 38.5855 54.8389 38.5979Z" fill="#2F2E41"/>
<path d="M58.6223 34.3142H57.1935V34.5813H58.6223V34.3142Z" fill="#2F2E41"/>
<path d="M54.1123 34.3142H52.6835V34.5813H54.1123V34.3142Z" fill="#2F2E41"/>
<path d="M51.2698 46.3778C51.8019 46.0378 52.377 45.7714 52.9796 45.5858C52.9221 45.38 52.923 45.1621 52.9823 44.9568C53.0623 44.6974 53.2234 44.471 53.4417 44.3114C53.6599 44.1518 53.9236 44.0676 54.1933 44.0713H55.9231C56.1933 44.0678 56.4573 44.1523 56.676 44.312C56.8947 44.4718 57.0563 44.6984 57.1369 44.9581C57.1961 45.163 57.197 45.3804 57.1394 45.5858C57.742 45.7717 58.317 46.0381 58.8493 46.3778H51.2698Z" fill="#2F2E41"/>
<path d="M63.3341 32.8953C63.2048 32.7376 63.0456 32.6073 62.8659 32.512C62.7082 32.4291 62.5331 32.3856 62.3552 32.3851C62.1109 32.3882 61.8738 32.4685 61.6774 32.6148C61.1375 32.9995 60.7634 33.8289 60.7634 34.7891C60.7634 35.9938 61.3524 36.9928 62.1178 37.1664C62.1957 37.184 62.2753 37.193 62.3552 37.1931C63.232 37.1931 63.947 36.1153 63.947 34.7891C63.947 34.0199 63.7069 33.3347 63.3341 32.8953Z" fill="#3F3D56"/>
<path d="M48.7535 32.5574H48.7522C48.5748 32.4466 48.3706 32.387 48.1618 32.3851C47.984 32.3856 47.8088 32.4291 47.6511 32.512C47.4714 32.6073 47.3123 32.7376 47.1829 32.8953L47.1816 32.8966C46.8102 33.336 46.5701 34.0212 46.5701 34.7891C46.5701 35.8255 47.0051 36.7097 47.6153 37.0475C47.7824 37.1418 47.9704 37.1919 48.1618 37.1931C48.2044 37.1931 48.2469 37.1904 48.2892 37.1851H48.2905C49.1076 37.0863 49.7536 36.0499 49.7536 34.7891C49.7536 33.7794 49.3384 32.9127 48.7535 32.5574Z" fill="#3F3D56"/>
<path d="M47.7148 36.8178C47.7464 36.8178 47.7775 36.8102 47.8056 36.7956C47.8337 36.7811 47.858 36.76 47.8764 36.7342C47.8948 36.7084 47.9069 36.6785 47.9116 36.6471C47.9163 36.6156 47.9134 36.5835 47.9034 36.5533C47.5231 35.4148 47.4087 34.2032 47.5691 33.0129C47.7295 31.8226 48.1603 30.6855 48.8281 29.69C49.4959 28.6946 50.3827 27.8676 51.4195 27.2734C52.4564 26.6791 53.6154 26.3335 54.8064 26.2636C55.9975 26.1936 57.1885 26.4011 58.287 26.8699C59.3854 27.3388 60.3617 28.0563 61.1399 28.9668C61.9182 29.8773 62.4774 30.9562 62.7742 32.1197C63.071 33.2832 63.0973 34.4999 62.8511 35.6753C62.8402 35.7272 62.8503 35.7815 62.8791 35.826C62.9079 35.8705 62.9531 35.9017 63.0047 35.9126C63.0564 35.9236 63.1102 35.9135 63.1544 35.8844C63.1987 35.8554 63.2296 35.8099 63.2405 35.7579C63.4995 34.5222 63.472 33.2429 63.1601 32.0196C62.8481 30.7963 62.2602 29.6618 61.442 28.7045C60.6238 27.7472 59.5973 26.9927 58.4424 26.4997C57.2875 26.0068 56.0352 25.7886 54.783 25.8622C53.5307 25.9358 52.3121 26.2992 51.222 26.9241C50.1319 27.549 49.1996 28.4185 48.4976 29.4652C47.7955 30.5119 47.3427 31.7075 47.1742 32.959C47.0058 34.2106 47.1263 35.4844 47.5263 36.6814C47.5396 36.7211 47.565 36.7557 47.5988 36.7801C47.6326 36.8046 47.6732 36.8178 47.7148 36.8178Z" fill="#3F3D56"/>
<path d="M58.7685 30.9169C59.0496 31.3032 58.911 31.8239 58.6148 32.157C58.2294 32.5904 57.6148 32.6178 57.0811 32.5373C56.4823 32.4471 55.8472 32.1646 55.2409 32.355C54.7242 32.5172 54.3556 32.9891 53.8188 33.1076C53.3427 33.2127 52.7734 33.0736 52.6065 32.5627C52.5263 32.3172 52.9105 32.2119 52.9903 32.4561C53.0982 32.7867 53.5644 32.7801 53.8314 32.6886C54.2595 32.5418 54.5894 32.1849 55.0101 32.0144C55.5061 31.8134 56.0442 31.9042 56.5492 32.0187C57.0252 32.1266 57.573 32.2866 58.0472 32.085C58.398 31.9358 58.6772 31.466 58.4248 31.1191C58.2733 30.9109 58.6185 30.7108 58.7685 30.9169V30.9169Z" fill="#2F2E41"/>
<path d="M86.4692 55.4796H61.226C61.0864 55.4796 60.9482 55.452 60.8192 55.3982C60.6902 55.3444 60.573 55.2655 60.4743 55.1662C60.3756 55.0668 60.2973 54.9488 60.2439 54.8189C60.1905 54.6891 60.163 54.5499 60.163 54.4093C60.163 54.2688 60.1905 54.1296 60.2439 53.9997C60.2973 53.8699 60.3756 53.7519 60.4743 53.6525C60.573 53.5531 60.6902 53.4742 60.8192 53.4205C60.9482 53.3667 61.0864 53.339 61.226 53.339H86.4692C86.7509 53.3393 87.021 53.4522 87.2201 53.6529C87.4192 53.8536 87.531 54.1257 87.531 54.4093C87.531 54.693 87.4192 54.965 87.2201 55.1657C87.021 55.3664 86.7509 55.4793 86.4692 55.4796V55.4796Z" fill="#E6E6E6"/>
<path d="M90.8542 59.0919H61.226C61.0863 59.0921 60.9479 59.0645 60.8188 59.0108C60.6897 58.9571 60.5724 58.8783 60.4735 58.7789C60.3747 58.6795 60.2963 58.5614 60.2428 58.4315C60.1893 58.3016 60.1617 58.1623 60.1617 58.0216C60.1617 57.881 60.1893 57.7417 60.2428 57.6118C60.2963 57.4818 60.3747 57.3638 60.4735 57.2644C60.5724 57.165 60.6897 57.0861 60.8188 57.0324C60.9479 56.9787 61.0863 56.9511 61.226 56.9513H90.8542C90.9939 56.9511 91.1323 56.9787 91.2614 57.0324C91.3905 57.0861 91.5079 57.165 91.6067 57.2644C91.7055 57.3638 91.784 57.4818 91.8375 57.6118C91.891 57.7417 91.9185 57.881 91.9185 58.0216C91.9185 58.1623 91.891 58.3016 91.8375 58.4315C91.784 58.5614 91.7055 58.6795 91.6067 58.7789C91.5079 58.8783 91.3905 58.9571 91.2614 59.0108C91.1323 59.0645 90.9939 59.0921 90.8542 59.0919Z" fill="#E6E6E6"/>
<path d="M86.4692 68.463H61.226C60.9441 68.463 60.6737 68.3503 60.4743 68.1496C60.275 67.9488 60.163 67.6766 60.163 67.3927C60.163 67.1089 60.275 66.8366 60.4743 66.6359C60.6737 66.4352 60.9441 66.3224 61.226 66.3224H86.4692C86.7511 66.3224 87.0215 66.4352 87.2209 66.6359C87.4202 66.8366 87.5322 67.1089 87.5322 67.3927C87.5322 67.6766 87.4202 67.9488 87.2209 68.1496C87.0215 68.3503 86.7511 68.463 86.4692 68.463V68.463Z" fill="#E6E6E6"/>
<path d="M90.8543 72.0754H61.226C60.9441 72.0754 60.6737 71.9626 60.4743 71.7619C60.275 71.5611 60.163 71.2889 60.163 71.005C60.163 70.7211 60.275 70.4489 60.4743 70.2482C60.6737 70.0475 60.9441 69.9347 61.226 69.9347H90.8543C91.1362 69.9347 91.4066 70.0475 91.606 70.2482C91.8053 70.4489 91.9173 70.7211 91.9173 71.005C91.9173 71.2889 91.8053 71.5611 91.606 71.7619C91.4066 71.9626 91.1362 72.0754 90.8543 72.0754Z" fill="#E6E6E6"/>
<path d="M51.2353 60.7162C53.7261 60.7162 55.7453 58.6831 55.7453 56.1753C55.7453 53.6674 53.7261 51.6344 51.2353 51.6344C48.7444 51.6344 46.7252 53.6674 46.7252 56.1753C46.7252 58.6831 48.7444 60.7162 51.2353 60.7162Z" fill="#E6E6E6"/>
<path d="M51.2353 73.8047C53.7261 73.8047 55.7453 71.7716 55.7453 69.2638C55.7453 66.7559 53.7261 64.7229 51.2353 64.7229C48.7444 64.7229 46.7252 66.7559 46.7252 69.2638C46.7252 71.7716 48.7444 73.8047 51.2353 73.8047Z" fill="#E6E6E6"/>
<path d="M86.4692 81.5514H61.226C60.9441 81.5514 60.6737 81.4387 60.4743 81.2379C60.275 81.0372 60.163 80.765 60.163 80.4811C60.163 80.1972 60.275 79.925 60.4743 79.7243C60.6737 79.5235 60.9441 79.4108 61.226 79.4108H86.4692C86.7511 79.4108 87.0215 79.5235 87.2209 79.7243C87.4202 79.925 87.5322 80.1972 87.5322 80.4811C87.5322 80.765 87.4202 81.0372 87.2209 81.2379C87.0215 81.4387 86.7511 81.5514 86.4692 81.5514V81.5514Z" fill="#E6E6E6"/>
<path d="M90.8543 85.1639H61.226C60.9441 85.1639 60.6737 85.0511 60.4743 84.8504C60.275 84.6496 60.163 84.3774 60.163 84.0935C60.163 83.8097 60.275 83.5374 60.4743 83.3367C60.6737 83.136 60.9441 83.0232 61.226 83.0232H90.8543C91.1362 83.0232 91.4066 83.136 91.606 83.3367C91.8053 83.5374 91.9173 83.8097 91.9173 84.0935C91.9173 84.3774 91.8053 84.6496 91.606 84.8504C91.4066 85.0511 91.1362 85.1639 90.8543 85.1639V85.1639Z" fill="#E6E6E6"/>
<path d="M51.2353 86.893C53.7261 86.893 55.7453 84.86 55.7453 82.3522C55.7453 79.8443 53.7261 77.8113 51.2353 77.8113C48.7444 77.8113 46.7252 79.8443 46.7252 82.3522C46.7252 84.86 48.7444 86.893 51.2353 86.893Z" fill="#E6E6E6"/>
</svg>
