<svg width="160" height="87" viewBox="0 0 160 87" fill="none" xmlns="http://www.w3.org/2000/svg">
<g clip-path="url(#clip0_2337_355)">
<path d="M54.804 69.5412C55.5393 67.4316 55.6458 65.5162 55.0419 65.2631C54.438 65.0099 53.3524 66.5149 52.6172 68.6245C51.8819 70.7341 51.7754 72.6495 52.3793 72.9027C52.9832 73.1558 54.0688 71.6508 54.804 69.5412Z" fill="#2F2E41"/>
<path d="M54.1788 76.5688C54.8385 72.1102 52.0776 67.9093 48.0121 67.1857C43.9466 66.4622 40.116 69.4901 39.4563 73.9487C38.7965 78.4073 41.5575 82.6083 45.623 83.3318C49.6885 84.0553 53.5191 81.0275 54.1788 76.5688Z" fill="#2F2E41"/>
<path d="M45.6848 81.6775H43.4192V86.1292H45.6848V81.6775Z" fill="#2F2E41"/>
<path d="M50.2159 81.6775H47.9503V86.1292H50.2159V81.6775Z" fill="#2F2E41"/>
<path d="M45.3072 86.9575C46.3499 86.9575 47.1952 86.6098 47.1952 86.181C47.1952 85.7522 46.3499 85.4045 45.3072 85.4045C44.2645 85.4045 43.4192 85.7522 43.4192 86.181C43.4192 86.6098 44.2645 86.9575 45.3072 86.9575Z" fill="#2F2E41"/>
<path d="M49.8383 86.8539C50.881 86.8539 51.7263 86.5063 51.7263 86.0775C51.7263 85.6487 50.881 85.301 49.8383 85.301C48.7956 85.301 47.9503 85.6487 47.9503 86.0775C47.9503 86.5063 48.7956 86.8539 49.8383 86.8539Z" fill="#2F2E41"/>
<path d="M47.0812 75.9823C48.4883 75.9369 49.5954 74.6492 49.554 73.1061C49.5127 71.563 48.3385 70.3489 46.9315 70.3942C45.5244 70.4396 44.4173 71.7272 44.4587 73.2703C44.5 74.8134 45.6742 76.0276 47.0812 75.9823Z" fill="white"/>
<path d="M47.0063 74.1201C47.4756 74.1201 47.8559 73.7029 47.8559 73.1883C47.8559 72.6737 47.4756 72.2566 47.0063 72.2566C46.5371 72.2566 46.1567 72.6737 46.1567 73.1883C46.1567 73.7029 46.5371 74.1201 47.0063 74.1201Z" fill="#3F3D56"/>
<path d="M39.5835 67.6528C38.9814 64.6953 40.9062 61.7069 43.8828 60.9779C46.8595 60.249 49.7606 62.0557 50.3628 65.0132C50.965 67.9707 48.9922 69.0615 46.0156 69.7904C43.039 70.5193 40.1857 70.6104 39.5835 67.6528Z" fill="#D4D4D4"/>
<path d="M41.7869 73.2162C42.0639 72.5756 40.7801 71.2717 38.9194 70.3039C37.0587 69.3361 35.3258 69.0708 35.0487 69.7114C34.7717 70.352 36.0555 71.6559 37.9162 72.6237C39.7769 73.5916 41.5098 73.8568 41.7869 73.2162Z" fill="#2F2E41"/>
<path d="M43.1544 78.2092C43.1544 79.0097 45.0338 80.5904 47.1192 80.5904C49.2046 80.5904 51.1599 78.3368 51.1599 77.5363C51.1599 76.7359 49.2046 77.6916 47.1192 77.6916C45.0338 77.6916 43.1544 77.4088 43.1544 78.2092Z" fill="white"/>
<path d="M72.1211 81.6729L70.4245 83.5086L66.4644 79.2178L66.4641 79.2174L66.0833 78.8056L66.0831 78.8053L58.1717 70.2353L58.0232 70.0744H58.0216L55.635 67.4875L54.1372 65.8638L54.137 65.8637L49.6766 61.0327L49.6764 61.0325L49.0741 60.3795L49.0739 60.3793L41.9659 52.679C41.9656 52.6787 41.9653 52.6783 41.965 52.678C40.5858 51.1657 39.4155 49.4379 38.4925 47.5494L38.4903 47.545C38.4078 47.3802 38.3293 47.2118 38.2506 47.0393L38.2503 47.0387C36.6002 43.4307 35.8931 39.3888 36.2099 35.3629C36.5267 31.337 37.8545 27.4898 40.0418 24.2481C42.2289 21.0068 45.188 18.4998 48.5862 16.9994C51.9839 15.4992 55.6914 15.0619 59.2989 15.7338L59.3443 15.7423H59.3488C59.3956 15.7506 59.4358 15.7583 59.4754 15.7674L59.4841 15.7694L59.4929 15.7711C60.1692 15.902 60.8388 16.0728 61.4986 16.2827L61.4991 16.2829C63.227 16.8307 64.8799 17.6353 66.4115 18.6753C66.5722 18.7847 66.7312 18.896 66.8884 19.0091C68.0114 19.8229 69.0571 20.7599 70.0095 21.8058L70.3789 22.2115L70.4398 22.1447L70.5004 22.2111L70.8698 21.8061C71.447 21.1734 72.0585 20.5801 72.7011 20.0296L72.7016 20.0291C72.8418 19.9087 72.9835 19.7903 73.125 19.6758C75.2976 17.919 77.7714 16.6691 80.3944 15.9997C83.0172 15.3304 85.7364 15.2552 88.3863 15.7784L88.3883 15.7788C89.065 15.9095 89.7349 16.0809 90.3948 16.292L90.3992 16.2934C90.6181 16.3612 90.8353 16.4345 91.0508 16.5133L91.0537 16.5143C91.2314 16.578 91.4042 16.6419 91.5734 16.7103L91.5734 16.7104L91.5785 16.7124C93.0243 17.2792 94.4055 18.0305 95.6936 18.9514C95.975 19.1529 96.2526 19.3637 96.5265 19.5838L96.5281 19.5851C98.8497 21.4359 100.781 23.8193 102.187 26.5734C103.593 29.3276 104.439 32.3855 104.665 35.5362C104.891 38.687 104.491 41.8534 103.494 44.8168C102.497 47.7795 100.928 50.4667 98.8974 52.6949C98.897 52.6953 98.8966 52.6958 98.8962 52.6962L90.7981 61.4616L90.7981 61.4616L72.4917 81.2722L72.4916 81.2723L72.1212 81.6729L72.1211 81.6729Z" stroke="#EC3528"/>
<path opacity="0.15" d="M91.1654 61.801L72.8589 81.6117L72.4884 82.0124L70.4243 84.2457L66.097 79.5569L65.716 79.1449L57.8043 70.5745C59.0754 70.2498 61.0286 70.6961 61.7437 71.0835C63.439 72.0007 64.8329 73.5066 66.5542 74.365C68.0912 75.126 69.8084 75.334 71.4598 74.9594C74.5455 74.2491 76.9334 71.6323 79.039 69.0572C81.1446 66.4802 83.297 63.7152 86.2563 62.5207C87.8165 61.8902 89.4926 61.7478 91.1654 61.801Z" fill="#EC3528"/>
<path d="M104.474 21.8359C101.955 19.0654 98.8197 17.0654 95.3784 16.0343C95.1498 15.964 94.923 15.9014 94.6926 15.8425C93.7025 15.5831 92.6959 15.4059 91.6814 15.3127C91.5048 15.2937 91.3281 15.2804 91.1498 15.2709C90.26 15.2092 89.3673 15.213 88.4779 15.2823C83.6063 15.6398 79.0109 17.8923 75.5187 21.6346L75.4562 21.5662L75.3939 21.6346C73.1123 19.1929 70.3437 17.3673 67.3074 16.3021C67.1359 16.2413 66.9628 16.1824 66.7896 16.1274C64.4512 15.3835 62.0116 15.0975 59.5827 15.2823C59.5152 15.2861 59.4476 15.2918 59.3819 15.2994C54.9282 15.6739 50.7082 17.6345 47.3646 20.8825C47.0494 21.1864 46.7394 21.5054 46.4381 21.8359C43.6075 24.9459 41.6639 28.8926 40.8447 33.1941C40.0255 37.4955 40.3662 41.9654 41.8251 46.058C41.8857 46.2366 41.9515 46.4132 42.0208 46.5898C43.0513 49.2846 44.5518 51.7327 46.4381 53.7966L53.1775 61.0927L53.7074 61.6681L68.2909 77.4548L68.6666 77.8631L72.4969 82.0106L75.4562 85.2142L104.474 53.7947C108.333 49.5535 110.5 43.8067 110.5 37.8153C110.5 31.8238 108.333 26.0771 104.474 21.8359ZM104.109 53.3902L75.4562 84.4128L72.8675 81.6099L69.1186 77.5516L68.7429 77.1452L54.4433 61.6624L53.9221 61.0984L46.8052 53.3921C44.9782 51.3937 43.5222 49.0255 42.5178 46.4189C42.4485 46.2423 42.3826 46.0656 42.3221 45.889C40.8906 41.8959 40.5523 37.5316 41.3485 33.3308C42.1448 29.1299 44.0411 25.2751 46.8052 22.2385C47.1273 21.8852 47.4569 21.5472 47.7939 21.2244H47.7957C51.0125 18.1372 55.0473 16.2628 59.3074 15.8767C59.8736 15.8235 60.4404 15.7969 61.0078 15.7969C61.2208 15.7969 61.432 15.8007 61.645 15.8083C63.3852 15.8671 65.111 16.1735 66.7792 16.7199C66.9507 16.7749 67.1221 16.8338 67.2918 16.8965C69.0964 17.5415 70.8069 18.4683 72.3706 19.6482C73.3885 20.4137 74.3398 21.2808 75.2122 22.2385L75.3957 22.4398L75.4562 22.3733L75.5169 22.4398L75.7004 22.2385C77.6405 20.1085 79.959 18.4386 82.5121 17.3325C85.0652 16.2264 87.7984 15.7076 90.542 15.8083C90.7619 15.8159 90.9818 15.8273 91.2017 15.8444C91.3784 15.8558 91.555 15.8691 91.7299 15.8881C92.8461 15.9979 93.9519 16.2107 95.0355 16.5243C95.2675 16.5888 95.4978 16.6591 95.7264 16.737C99.0487 17.8388 102.054 19.8662 104.449 22.6215C106.843 25.3768 108.546 28.7658 109.39 32.458C110.235 36.1501 110.192 40.0192 109.266 43.6878C108.341 47.3564 106.564 50.6993 104.109 53.3902Z" fill="#EC3528"/>
<path opacity="0.15" d="M63.8753 16.6686C62.7636 17.6314 61.5705 18.5202 60.8484 19.8362C60.3169 20.8085 60.0865 21.9384 59.9151 23.0551C59.5826 25.2275 59.4407 27.4532 58.7895 29.5364C58.1402 31.6197 56.8727 33.6099 54.9939 34.3866C53.8285 34.867 52.5437 34.8405 51.3021 34.7474C48.2389 34.5195 45.1549 33.9175 42.3982 32.4382C40.8571 31.6102 39.3627 30.4936 37.6502 30.3701C37.3017 30.3455 36.9518 30.3666 36.6078 30.4328C38.102 25.3173 41.2288 20.9648 45.414 18.1743C49.5991 15.3839 54.5617 14.3428 59.3904 15.2424H59.3922C59.458 15.2538 59.5221 15.2652 59.5879 15.2804C60.2834 15.415 60.9719 15.5906 61.6502 15.8064C62.4065 16.0464 63.1494 16.3342 63.8753 16.6686Z" fill="#EC3528"/>
<path d="M15.0241 76.8792C15.8306 77.1901 16.6966 77.268 17.5386 77.1053C18.3805 76.9427 19.1701 76.545 19.8312 75.9505C21.5149 74.4007 22.0428 71.8474 22.4723 69.4832L23.7427 62.4902L21.0829 64.4988C19.1701 65.9432 17.2143 67.4339 15.8898 69.5261C14.5654 71.6182 13.9873 74.4742 15.0515 76.7381L15.0241 76.8792Z" fill="#E6E6E6"/>
<path d="M15.2515 85.3456C14.9823 83.1951 14.7055 81.0169 14.8943 78.8433C15.062 76.9129 15.599 75.0275 16.6923 73.4815C17.2726 72.6625 17.9787 71.9608 18.7789 71.4079C18.9876 71.2634 19.1796 71.6261 18.9719 71.7699C17.5873 72.7296 16.5164 74.1467 15.9135 75.8168C15.2477 77.6742 15.1408 79.6988 15.2555 81.6718C15.3249 82.865 15.472 84.0503 15.6202 85.2341C15.6318 85.2877 15.6246 85.3441 15.5998 85.3919C15.575 85.4398 15.5346 85.4756 15.4866 85.492C15.4378 85.5064 15.3857 85.4992 15.3416 85.4718C15.2976 85.4444 15.2652 85.399 15.2515 85.3456H15.2515Z" fill="#F2F2F2"/>
<path d="M17.8445 81.5403C18.1904 82.1169 18.6659 82.586 19.2251 82.9026C19.7843 83.2191 20.4085 83.3724 21.0374 83.3476C22.6537 83.2634 24.0012 82.0263 25.2141 80.8517L28.8019 77.3777L26.4274 77.2531C24.7198 77.1635 22.9682 77.0799 21.3417 77.6574C19.7153 78.2349 18.2153 79.6248 17.9179 81.471L17.8445 81.5403Z" fill="#E6E6E6"/>
<path d="M14.4906 86.5819C15.7864 84.0675 17.2893 81.273 19.9748 80.3798C20.7215 80.1323 21.5045 80.0436 22.2816 80.1186C22.5265 80.1417 22.4653 80.5558 22.2209 80.5326C20.9183 80.414 19.6183 80.7912 18.5397 81.6007C17.5017 82.3756 16.6935 83.4528 16.0095 84.5951C15.5905 85.2948 15.2152 86.0242 14.8399 86.7526C14.7199 86.9854 14.3693 86.8174 14.4906 86.5819H14.4906Z" fill="#F2F2F2"/>
<path d="M51.9638 22.6209C56.0825 22.6209 59.4213 18.9592 59.4213 14.4423C59.4213 9.92537 56.0825 6.26367 51.9638 6.26367C47.8451 6.26367 44.5062 9.92537 44.5062 14.4423C44.5062 18.9592 47.8451 22.6209 51.9638 22.6209Z" fill="#2F2E41"/>
<path d="M50.8309 20.8611H48.5653V25.3127H50.8309V20.8611Z" fill="#2F2E41"/>
<path d="M55.3621 20.8611H53.0966V25.3127H55.3621V20.8611Z" fill="#2F2E41"/>
<path d="M50.4533 26.1408C51.496 26.1408 52.3413 25.7932 52.3413 25.3643C52.3413 24.9355 51.496 24.5879 50.4533 24.5879C49.4106 24.5879 48.5653 24.9355 48.5653 25.3643C48.5653 25.7932 49.4106 26.1408 50.4533 26.1408Z" fill="#2F2E41"/>
<path d="M54.9845 26.0373C56.0273 26.0373 56.8725 25.6897 56.8725 25.2608C56.8725 24.832 56.0273 24.4844 54.9845 24.4844C53.9418 24.4844 53.0966 24.832 53.0966 25.2608C53.0966 25.6897 53.9418 26.0373 54.9845 26.0373Z" fill="#2F2E41"/>
<path d="M52.1525 15.1669C53.5602 15.1669 54.7013 13.9154 54.7013 12.3716C54.7013 10.8279 53.5602 9.57642 52.1525 9.57642C50.7449 9.57642 49.6038 10.8279 49.6038 12.3716C49.6038 13.9154 50.7449 15.1669 52.1525 15.1669Z" fill="white"/>
<path d="M53.6207 13.6024C53.9512 13.2401 53.9494 12.6505 53.6167 12.2855C53.2841 11.9205 52.7465 11.9183 52.416 12.2806C52.0855 12.6428 52.0873 13.2324 52.42 13.5974C52.7526 13.9624 53.2902 13.9646 53.6207 13.6024Z" fill="#3F3D56"/>
<path d="M44.7296 6.83642C44.1275 3.8789 46.0523 0.890459 49.029 0.161537C52.0056 -0.567384 54.9068 1.23926 55.5089 4.19678C56.1111 7.1543 54.1384 8.24508 51.1618 8.97399C48.1851 9.7029 45.3318 9.79395 44.7296 6.83642Z" fill="#D4D4D4"/>
<path d="M111.932 70.1675C112.431 69.7164 111.773 67.9383 110.463 66.1959C109.153 64.4535 107.686 63.4067 107.188 63.8578C106.689 64.3089 107.347 66.087 108.657 67.8294C109.967 69.5718 111.434 70.6186 111.932 70.1675Z" fill="#2F2E41"/>
<path d="M117.247 83.2486C121.312 82.5251 124.073 78.3241 123.413 73.8655C122.754 69.4069 118.923 66.379 114.858 67.1025C110.792 67.8261 108.031 72.027 108.691 76.4856C109.351 80.9442 113.181 83.9721 117.247 83.2486Z" fill="#2F2E41"/>
<path d="M119.451 81.594H117.185V86.0457H119.451V81.594Z" fill="#2F2E41"/>
<path d="M114.919 81.594H112.654V86.0457H114.919V81.594Z" fill="#2F2E41"/>
<path d="M117.563 86.874C118.605 86.874 119.451 86.5263 119.451 86.0975C119.451 85.6687 118.605 85.321 117.563 85.321C116.52 85.321 115.675 85.6687 115.675 86.0975C115.675 86.5263 116.52 86.874 117.563 86.874Z" fill="#2F2E41"/>
<path d="M113.031 86.7704C114.074 86.7704 114.919 86.4228 114.919 85.994C114.919 85.5652 114.074 85.2175 113.031 85.2175C111.989 85.2175 111.143 85.5652 111.143 85.994C111.143 86.4228 111.989 86.7704 113.031 86.7704Z" fill="#2F2E41"/>
<path d="M118.663 70.8117C116.312 68.6811 115.005 66.7275 116.765 64.3914C118.525 62.0554 121.858 61.8889 124.209 64.0195C126.56 66.1501 127.04 69.771 125.279 72.1071C123.519 74.4431 121.014 72.9423 118.663 70.8117Z" fill="#EC3528"/>
<path d="M113.549 73.7254C114.956 73.6801 116.063 72.3924 116.021 70.8493C115.98 69.3062 114.806 68.092 113.399 68.1374C111.992 68.1827 110.885 69.4704 110.926 71.0135C110.967 72.5566 112.142 73.7708 113.549 73.7254Z" fill="white"/>
<path d="M112.578 71.1709C113.047 71.1709 113.428 70.7537 113.428 70.2391C113.428 69.7245 113.047 69.3074 112.578 69.3074C112.109 69.3074 111.728 69.7245 111.728 70.2391C111.728 70.7537 112.109 71.1709 112.578 71.1709Z" fill="#3F3D56"/>
<path d="M109.621 73.2337C109.105 73.7997 108.74 75.6349 109.466 76.431C110.192 77.2272 112.326 76.3802 112.842 75.8142C113.358 75.2482 112.061 75.1775 111.335 74.3813C110.609 73.5851 110.137 72.6676 109.621 73.2337Z" fill="white"/>
<path d="M123.131 86.1124C123.735 85.8593 123.628 83.9439 122.893 81.8343C122.158 79.7247 121.072 78.2197 120.469 78.4728C119.865 78.7259 119.971 80.6413 120.706 82.751C121.442 84.8606 122.527 86.3656 123.131 86.1124Z" fill="#2F2E41"/>
<path d="M159.827 86.9999H0.17316C0.127235 86.9999 0.0831911 86.9799 0.0507173 86.9443C0.0182435 86.9087 0 86.8604 0 86.81C0 86.7597 0.0182435 86.7114 0.0507173 86.6757C0.0831911 86.6401 0.127235 86.6201 0.17316 86.6201H159.827C159.873 86.6201 159.917 86.6401 159.949 86.6757C159.982 86.7114 160 86.7597 160 86.81C160 86.8604 159.982 86.9087 159.949 86.9443C159.917 86.9799 159.873 86.9999 159.827 86.9999Z" fill="#CCCCCC"/>
</g>
<defs>
<clipPath id="clip0_2337_355">
<rect width="160" height="87" fill="white"/>
</clipPath>
</defs>
</svg>
