<svg width="113" height="82" viewBox="0 0 113 82" fill="none" xmlns="http://www.w3.org/2000/svg">
<g clip-path="url(#clip0_2338_182)">
<path d="M72.0092 61.4729V81.2398H22.5415C16.9054 81.2398 12.3197 76.8059 12.3197 71.3563C12.3197 65.9067 16.9053 61.4729 22.5415 61.4729H72.0092Z" fill="#F2F2F2"/>
<path d="M73.2243 81.0877C73.2243 81.2893 73.1442 81.4827 73.0018 81.6252C72.8594 81.7678 72.6663 81.8479 72.4649 81.848H21.6605C18.9012 81.848 16.2549 80.7506 14.3038 78.7973C12.3527 76.844 11.2566 74.1947 11.2566 71.4323C11.2566 68.67 12.3527 66.0207 14.3038 64.0674C16.2549 62.1141 18.9012 61.0167 21.6605 61.0167H72.4649C72.6663 61.0167 72.8595 61.0968 73.0019 61.2394C73.1443 61.382 73.2243 61.5754 73.2243 61.777C73.2243 61.9786 73.1443 62.172 73.0019 62.3146C72.8595 62.4572 72.6663 62.5373 72.4649 62.5373H21.6605C19.304 62.5373 17.0441 63.4744 15.3778 65.1426C13.7115 66.8107 12.7754 69.0732 12.7754 71.4323C12.7754 73.7915 13.7115 76.054 15.3778 77.7221C17.0441 79.3903 19.304 80.3274 21.6605 80.3274H72.4649C72.6663 80.3275 72.8594 80.4076 73.0018 80.5502C73.1442 80.6928 73.2243 80.8861 73.2243 81.0877Z" fill="#EC3528"/>
<path d="M72.0093 66.0345H18.8507C18.8105 66.0345 18.7718 66.0184 18.7433 65.9899C18.7149 65.9614 18.6989 65.9227 18.6989 65.8824C18.6989 65.8421 18.7149 65.8034 18.7433 65.7749C18.7718 65.7464 18.8105 65.7303 18.8507 65.7303H72.0093C72.0496 65.7303 72.0883 65.7464 72.1167 65.7749C72.1452 65.8034 72.1612 65.8421 72.1612 65.8824C72.1612 65.9227 72.1452 65.9614 72.1167 65.9899C72.0883 66.0184 72.0496 66.0345 72.0093 66.0345Z" fill="#CCCCCC"/>
<path d="M72.0093 69.6837H18.8507C18.8105 69.6837 18.7718 69.6677 18.7433 69.6392C18.7149 69.6107 18.6989 69.572 18.6989 69.5317C18.6989 69.4914 18.7149 69.4527 18.7433 69.4242C18.7718 69.3957 18.8105 69.3796 18.8507 69.3796H72.0093C72.0496 69.3796 72.0883 69.3957 72.1167 69.4242C72.1452 69.4527 72.1612 69.4914 72.1612 69.5317C72.1612 69.572 72.1452 69.6107 72.1167 69.6392C72.0883 69.6677 72.0496 69.6837 72.0093 69.6837Z" fill="#CCCCCC"/>
<path d="M72.0093 73.333H18.8507C18.8105 73.333 18.7718 73.317 18.7433 73.2885C18.7149 73.26 18.6989 73.2213 18.6989 73.181C18.6989 73.1407 18.7149 73.102 18.7433 73.0735C18.7718 73.045 18.8105 73.0289 18.8507 73.0289H72.0093C72.0496 73.0289 72.0883 73.045 72.1167 73.0735C72.1452 73.102 72.1612 73.1407 72.1612 73.181C72.1612 73.2213 72.1452 73.26 72.1167 73.2885C72.0883 73.317 72.0496 73.333 72.0093 73.333Z" fill="#CCCCCC"/>
<path d="M72.0093 76.9822H18.8507C18.8105 76.9822 18.7718 76.9662 18.7433 76.9377C18.7149 76.9092 18.6989 76.8705 18.6989 76.8302C18.6989 76.7898 18.7149 76.7512 18.7433 76.7226C18.7718 76.6941 18.8105 76.6781 18.8507 76.6781H72.0093C72.0496 76.6781 72.0883 76.6941 72.1167 76.7226C72.1452 76.7512 72.1612 76.7898 72.1612 76.8302C72.1612 76.8705 72.1452 76.9092 72.1167 76.9377C72.0883 76.9662 72.0496 76.9822 72.0093 76.9822Z" fill="#CCCCCC"/>
<path d="M110.241 65.1937L97.8523 80.5858L59.3328 49.5137C54.944 45.9735 54.152 39.6406 57.5674 35.3971C60.9827 31.1536 67.3322 30.5814 71.721 34.1217L110.241 65.1937Z" fill="#F2F2F2"/>
<path d="M98.8938 81.2306C98.7674 81.3876 98.5839 81.4878 98.3837 81.5094C98.1835 81.531 97.9829 81.4721 97.826 81.3456L58.2656 49.4339C56.117 47.7008 54.7441 45.1841 54.449 42.4375C54.1539 39.691 54.9607 36.9395 56.6919 34.7885C58.4231 32.6375 60.937 31.2631 63.6805 30.9676C66.4239 30.6722 69.1722 31.4799 71.3208 33.2131L110.881 65.1248C110.959 65.1874 111.024 65.2647 111.071 65.3523C111.119 65.44 111.149 65.5362 111.16 65.6355C111.171 65.7348 111.162 65.8352 111.134 65.9311C111.106 66.0269 111.059 66.1163 110.996 66.194C110.934 66.2718 110.857 66.3365 110.769 66.3843C110.681 66.4322 110.585 66.4623 110.486 66.473C110.387 66.4836 110.287 66.4746 110.191 66.4464C110.095 66.4182 110.006 66.3715 109.928 66.3088L70.3679 34.3971C69.4594 33.6636 68.4155 33.1166 67.2957 32.7871C66.176 32.4577 65.0023 32.3523 63.8419 32.477C62.6815 32.6018 61.557 32.9542 60.5326 33.5141C59.5083 34.074 58.6041 34.8305 57.8719 35.7403C57.1396 36.6502 56.5936 37.6955 56.2649 38.8166C55.9363 39.9378 55.8315 41.1127 55.9566 42.2744C56.0816 43.4361 56.4341 44.5618 56.9938 45.5871C57.5535 46.6123 58.3094 47.5172 59.2185 48.2499L98.7789 80.1616C98.9357 80.2882 99.0359 80.4719 99.0574 80.6723C99.0789 80.8728 99.0201 81.0736 98.8938 81.2306V81.2306Z" fill="#CCCCCC"/>
<path d="M107.382 68.7457L65.9882 35.3553C65.9727 35.3428 65.9598 35.3273 65.9502 35.3098C65.9407 35.2922 65.9346 35.273 65.9325 35.2532C65.9304 35.2333 65.9322 35.2132 65.9378 35.1941C65.9434 35.1749 65.9527 35.157 65.9653 35.1415C65.9778 35.1259 65.9932 35.113 66.0107 35.1034C66.0282 35.0939 66.0474 35.0878 66.0673 35.0857C66.0871 35.0836 66.1072 35.0854 66.1263 35.091C66.1454 35.0966 66.1633 35.106 66.1788 35.1185L107.572 68.5089C107.588 68.5214 107.601 68.5369 107.61 68.5544C107.62 68.572 107.626 68.5912 107.628 68.6111C107.63 68.6309 107.629 68.651 107.623 68.6702C107.617 68.6894 107.608 68.7073 107.595 68.7228C107.583 68.7384 107.568 68.7513 107.55 68.7609C107.532 68.7705 107.513 68.7765 107.493 68.7786C107.474 68.7807 107.453 68.7789 107.434 68.7733C107.415 68.7676 107.397 68.7583 107.382 68.7457V68.7457Z" fill="#CCCCCC"/>
<path d="M105.095 71.5874L63.7011 38.197C63.6698 38.1716 63.6498 38.1349 63.6455 38.0949C63.6412 38.0548 63.653 38.0147 63.6783 37.9833C63.7035 37.9519 63.7402 37.9319 63.7802 37.9275C63.8202 37.9232 63.8603 37.9349 63.8917 37.9602L105.285 71.3506C105.301 71.3631 105.314 71.3786 105.323 71.3961C105.333 71.4136 105.339 71.4329 105.341 71.4527C105.343 71.4726 105.341 71.4927 105.336 71.5119C105.33 71.5311 105.321 71.5489 105.308 71.5645C105.296 71.5801 105.28 71.593 105.263 71.6026C105.245 71.6121 105.226 71.6182 105.206 71.6203C105.186 71.6224 105.166 71.6206 105.147 71.615C105.128 71.6093 105.11 71.5999 105.095 71.5874V71.5874Z" fill="#CCCCCC"/>
<path d="M102.808 74.4289L61.414 41.0385C61.3826 41.0132 61.3626 40.9765 61.3583 40.9364C61.354 40.8963 61.3658 40.8561 61.391 40.8247C61.4163 40.7933 61.453 40.7733 61.4931 40.7689C61.5331 40.7646 61.5732 40.7764 61.6046 40.8017L102.998 74.1921C103.014 74.2047 103.027 74.2201 103.036 74.2377C103.046 74.2552 103.052 74.2744 103.054 74.2943C103.056 74.3141 103.054 74.3342 103.049 74.3534C103.043 74.3725 103.034 74.3904 103.021 74.4059C103.009 74.4215 102.993 74.4344 102.976 74.444C102.958 74.4536 102.939 74.4596 102.919 74.4617C102.899 74.4638 102.879 74.4621 102.86 74.4564C102.841 74.4508 102.823 74.4415 102.808 74.4289V74.4289Z" fill="#CCCCCC"/>
<path d="M100.521 77.2706L59.127 43.8802C59.1115 43.8677 59.0986 43.8522 59.089 43.8347C59.0795 43.8171 59.0734 43.7979 59.0713 43.7781C59.0692 43.7582 59.071 43.7381 59.0766 43.719C59.0822 43.6998 59.0915 43.6819 59.1041 43.6664C59.1166 43.6508 59.132 43.6379 59.1495 43.6283C59.167 43.6188 59.1862 43.6127 59.2061 43.6106C59.2259 43.6085 59.246 43.6103 59.2651 43.6159C59.2842 43.6215 59.3021 43.6309 59.3176 43.6434L100.711 77.0338C100.727 77.0463 100.74 77.0618 100.749 77.0793C100.759 77.0968 100.765 77.1161 100.767 77.136C100.769 77.1558 100.767 77.1759 100.762 77.1951C100.756 77.2143 100.747 77.2322 100.734 77.2477C100.722 77.2633 100.706 77.2762 100.689 77.2858C100.671 77.2954 100.652 77.3014 100.632 77.3035C100.612 77.3056 100.592 77.3038 100.573 77.2982C100.554 77.2925 100.536 77.2832 100.521 77.2706V77.2706Z" fill="#CCCCCC"/>
<path d="M112.848 82H0.151882C0.1116 82 0.0729684 81.984 0.044485 81.9555C0.0160017 81.927 0 81.8883 0 81.848C0 81.8076 0.0160017 81.769 0.044485 81.7405C0.0729684 81.7119 0.1116 81.6959 0.151882 81.6959H112.848C112.888 81.6959 112.927 81.7119 112.956 81.7405C112.984 81.769 113 81.8076 113 81.848C113 81.8883 112.984 81.927 112.956 81.9555C112.927 81.984 112.888 82 112.848 82Z" fill="#CCCCCC"/>
<path d="M51.3483 59.3953L49.612 59.3951L48.7863 52.6902L51.349 52.6905L51.3483 59.3953Z" fill="#FFB8B8"/>
<path d="M48.3717 58.8984H51.7204V61.0092H46.2633C46.2633 60.732 46.3178 60.4576 46.4238 60.2015C46.5298 59.9454 46.6851 59.7127 46.8808 59.5167C47.0766 59.3207 47.3091 59.1652 47.5649 59.0591C47.8207 58.953 48.0948 58.8984 48.3717 58.8984V58.8984Z" fill="#2F2E41"/>
<path d="M33.6093 59.3953L31.873 59.3951L31.0472 52.6902L33.6099 52.6905L33.6093 59.3953Z" fill="#FFB8B8"/>
<path d="M30.6327 58.8984H33.9814V61.0092H28.5243C28.5243 60.732 28.5788 60.4576 28.6848 60.2015C28.7907 59.9454 28.946 59.7127 29.1418 59.5167C29.3376 59.3207 29.57 59.1652 29.8258 59.0591C30.0817 58.953 30.3558 58.8984 30.6327 58.8984V58.8984Z" fill="#2F2E41"/>
<path d="M39.4089 9.66044V8.90017C39.4089 7.59962 39.925 6.35235 40.8436 5.43272C41.7622 4.5131 43.008 3.99646 44.3071 3.99646H44.3071C45.6062 3.99646 46.8521 4.5131 47.7707 5.43272C48.6893 6.35235 49.2053 7.59962 49.2053 8.90017V9.66044C49.2053 10.598 48.8333 11.4972 48.171 12.1602C47.5088 12.8232 46.6106 13.1957 45.6741 13.1957H42.9402C42.4765 13.1957 42.0173 13.1042 41.5888 12.9266C41.1604 12.7489 40.7711 12.4885 40.4432 12.1602C40.1153 11.832 39.8552 11.4422 39.6777 11.0133C39.5003 10.5844 39.4089 10.1247 39.4089 9.66044V9.66044Z" fill="#2F2E41"/>
<path d="M44.307 13.4572C46.3673 13.4572 48.0374 11.7852 48.0374 9.72261C48.0374 7.66006 46.3673 5.98804 44.307 5.98804C42.2468 5.98804 40.5767 7.66006 40.5767 9.72261C40.5767 11.7852 42.2468 13.4572 44.307 13.4572Z" fill="#FFB8B8"/>
<path d="M24.0162 22.558C24.1676 22.4148 24.3485 22.3067 24.5462 22.2412C24.7438 22.1756 24.9534 22.1542 25.1602 22.1786C25.367 22.2029 25.5659 22.2723 25.743 22.3819C25.9201 22.4915 26.071 22.6387 26.1852 22.813L29.383 22.2074L30.2245 24.0632L25.6966 24.8549C25.3914 25.0274 25.0335 25.0819 24.6908 25.0079C24.3482 24.934 24.0445 24.7367 23.8374 24.4536C23.6302 24.1705 23.534 23.8211 23.567 23.4718C23.6 23.1224 23.7598 22.7972 24.0162 22.5579V22.558Z" fill="#FFB8B8"/>
<path d="M41.3988 15.8091L41.4406 15.8726L36.1968 19.3309L27.3484 22.1596C27.2311 22.1973 27.1305 22.2746 27.0637 22.3782C26.9969 22.4819 26.9681 22.6055 26.9821 22.728L27.1751 24.3925C27.1837 24.4661 27.2075 24.5372 27.2451 24.6011C27.2827 24.665 27.3332 24.7203 27.3934 24.7635C27.4537 24.8068 27.5222 24.8369 27.5947 24.852C27.6673 24.8672 27.7421 24.867 27.8146 24.8514L36.1422 23.0644C36.5452 22.9784 36.9263 22.8104 37.2618 22.5709L43.153 18.3747C43.3665 18.2218 43.537 18.0161 43.6476 17.7777C43.7583 17.5393 43.8055 17.2763 43.7846 17.0142C43.7629 16.7518 43.6735 16.4996 43.525 16.2823C43.3764 16.065 43.174 15.8901 42.9375 15.7749C42.701 15.6597 42.4386 15.6082 42.1761 15.6253C41.9137 15.6424 41.6602 15.7276 41.4406 15.8726L41.3988 15.8091Z" fill="#CCCCCC"/>
<path d="M49.643 57.4925C49.5098 57.4926 49.3794 57.4537 49.2678 57.3808C49.1562 57.3079 49.0682 57.204 49.0146 57.0818L41.0545 37.3908C41.0359 37.3481 41.0047 37.3121 40.9651 37.2877C40.9255 37.2633 40.8793 37.2516 40.8328 37.2542C40.7864 37.2568 40.7418 37.2736 40.7052 37.3023C40.6686 37.3311 40.6416 37.3703 40.6279 37.4149L34.1337 56.5847C34.1063 56.674 34.0609 56.7566 34.0004 56.8276C33.9399 56.8986 33.8656 56.9565 33.7819 56.9977C33.6982 57.0389 33.607 57.0625 33.5139 57.0671C33.4208 57.0716 33.3277 57.0571 33.2404 57.0243L31.0627 56.2068C30.9445 56.1628 30.8408 56.0869 30.7631 55.9874C30.6854 55.888 30.6368 55.7689 30.6227 55.6435C29.643 47.0993 38.1864 25.5325 38.2728 25.3157L38.2967 25.2556L46.0848 26.9803L46.101 26.998C49.2082 30.3915 51.7622 51.7951 52.2426 56.0513C52.2605 56.205 52.2256 56.3603 52.1435 56.4915C52.0615 56.6227 51.9373 56.722 51.7913 56.773L49.8691 57.4536C49.7965 57.4794 49.7201 57.4925 49.643 57.4925Z" fill="#2F2E41"/>
<path d="M42.9328 27.6745C41.0459 27.6745 38.9422 27.2978 38.2947 25.7433L38.2798 25.7076L38.2999 25.6745C38.811 24.8349 39.4866 23.4027 39.1235 23.1339C38.4082 22.6044 38.0612 21.7335 38.092 20.5451C38.1589 17.9654 39.9146 15.675 42.461 14.8458H42.461C43.1718 14.6181 43.8951 14.4317 44.6273 14.2874C45.1611 14.1796 45.7122 14.1914 46.2409 14.3221C46.7695 14.4529 47.2628 14.6992 47.6851 15.0434C48.1127 15.3898 48.4583 15.8268 48.6972 16.3229C48.9361 16.8191 49.0622 17.362 49.0666 17.9127C49.0933 20.6696 48.6693 24.5093 46.4979 27.1454C46.3962 27.2677 46.2545 27.3502 46.098 27.3782C45.0534 27.5674 43.9944 27.6665 42.9328 27.6745Z" fill="#CCCCCC"/>
<path d="M42.2308 27.5712C42.3335 27.2024 42.5774 26.8891 42.9096 26.6994C43.2417 26.5097 43.6352 26.4588 44.0046 26.5579C44.08 26.579 44.1535 26.6063 44.2245 26.6394L46.6526 24.4272L48.3412 25.5662L44.8689 28.6423C44.7121 28.9253 44.4653 29.1477 44.1677 29.2741C43.8701 29.4005 43.5388 29.4236 43.2266 29.3397C43.0447 29.2899 42.8745 29.2045 42.7258 29.0884C42.5771 28.9723 42.4528 28.8278 42.3602 28.6634C42.2677 28.4989 42.2085 28.3177 42.1863 28.1303C42.1641 27.9428 42.1792 27.7528 42.2308 27.5712V27.5712Z" fill="#FFB8B8"/>
<path d="M46.268 27.5994C46.1104 27.5995 45.9577 27.5449 45.8358 27.445L44.8783 26.6616C44.7985 26.5963 44.7344 26.5138 44.691 26.4202C44.6475 26.3266 44.6258 26.2244 44.6274 26.1212C44.629 26.0181 44.6539 25.9166 44.7002 25.8244C44.7465 25.7322 44.8131 25.6517 44.8949 25.5889L48.9109 22.5053C48.9585 22.4685 48.9897 22.4145 48.9977 22.3549C49.0058 22.2953 48.9901 22.2348 48.9539 22.1868L46.4752 18.9061C46.1872 18.5262 46.0427 18.0565 46.0674 17.5802C46.0921 17.104 46.2843 16.6518 46.6099 16.3038V16.3038C46.953 15.9329 47.4227 15.7047 47.926 15.6644C48.4292 15.6241 48.9292 15.7747 49.3268 16.0862L49.3424 16.1028L51.9308 19.8132C52.2107 20.0329 52.4361 20.3144 52.5893 20.6358C52.7426 20.9571 52.8196 21.3095 52.8143 21.6656C52.809 22.0216 52.7216 22.3716 52.5588 22.6882C52.3961 23.0048 52.1624 23.2795 51.8761 23.4907L46.6748 27.4652C46.557 27.5523 46.4144 27.5994 46.268 27.5994Z" fill="#CCCCCC"/>
<path d="M41.0028 8.67207V6.81914L44.3071 5.37463L47.4578 6.81914V8.67207C47.4578 8.75273 47.4258 8.83008 47.3688 8.88711C47.3118 8.94414 47.2346 8.97618 47.154 8.97618H41.3066C41.226 8.97618 41.1487 8.94414 41.0918 8.88711C41.0348 8.83008 41.0028 8.75273 41.0028 8.67207Z" fill="#2F2E41"/>
<path d="M44.1554 4.24222C43.6696 2.68542 44.6899 0.90126 46.1983 0.28504C47.7068 -0.33118 49.5114 0.0995766 50.7842 1.11767C52.057 2.13575 52.8467 3.66066 53.2651 5.23696C53.6836 6.81325 53.763 8.45695 53.8402 10.0861C55.6935 10.4269 56.9542 12.6276 56.3122 14.4011C55.6702 16.1747 53.2939 17.0558 51.6528 16.1288C50.0117 15.2018 49.5364 12.71 50.7208 11.2428C51.2813 10.5486 51.5943 9.68698 51.6104 8.79451C51.6265 7.90205 51.3448 7.02971 50.8097 6.31567C50.2747 5.60163 49.517 5.0867 48.6567 4.85243C47.7963 4.61817 46.8825 4.67796 46.0599 5.02235C45.1465 5.40475 44.0005 4.41119 44.1554 4.24222Z" fill="#2F2E41"/>
<path d="M23.3311 15.3699C21.1122 15.3553 18.9211 14.8749 16.8992 13.9596C16.7789 13.9059 16.6767 13.8183 16.6052 13.7075C16.5337 13.5967 16.4959 13.4675 16.4965 13.3356V7.79813C16.4967 7.61672 16.5687 7.4428 16.6969 7.31452C16.825 7.18625 16.9987 7.11409 17.1799 7.11389H29.4824C29.6636 7.1141 29.8373 7.18625 29.9654 7.31453C30.0935 7.4428 30.1656 7.61672 30.1658 7.79813V13.3356C30.1664 13.4675 30.1286 13.5967 30.0571 13.7075C29.9856 13.8183 29.8834 13.9059 29.7631 13.9596C27.7412 14.8749 25.55 15.3553 23.3311 15.3699V15.3699Z" fill="#EC3528"/>
<path d="M23.3295 10.884C23.2383 10.884 23.148 10.8659 23.0639 10.8305L13.3083 6.70992C13.1825 6.65679 13.0755 6.56715 13.001 6.45255C12.9266 6.33796 12.8881 6.20367 12.8906 6.067C12.8931 5.93032 12.9365 5.79753 13.0151 5.68575C13.0936 5.57396 13.2039 5.4883 13.3315 5.43982L23.0873 1.73464C23.2445 1.67469 23.4182 1.67506 23.5751 1.73568L33.2001 5.44085C33.3271 5.48973 33.4366 5.5754 33.5146 5.68692C33.5926 5.79844 33.6356 5.93073 33.6382 6.06687C33.6407 6.203 33.6026 6.33679 33.5287 6.45112C33.4548 6.56545 33.3486 6.65512 33.2235 6.70866L23.5984 10.8292C23.5134 10.8654 23.4219 10.884 23.3295 10.884V10.884Z" fill="#EC3528"/>
<path d="M17.6357 14.3365C18.1389 14.3365 18.5469 13.928 18.5469 13.4242C18.5469 12.9203 18.1389 12.5118 17.6357 12.5118C17.1324 12.5118 16.7244 12.9203 16.7244 13.4242C16.7244 13.928 17.1324 14.3365 17.6357 14.3365Z" fill="#3F3D56"/>
<path opacity="0.2" d="M33.2567 6.1238L23.6315 10.2443C23.5565 10.2764 23.4757 10.2931 23.3941 10.2933C23.3125 10.2935 23.2317 10.2772 23.1565 10.2455L13.4008 6.12501C13.2783 6.0745 13.1761 5.98455 13.1104 5.86939C13.0673 5.94407 13.0407 6.02705 13.0322 6.11284C13.0236 6.19862 13.0334 6.28523 13.0609 6.36693C13.0884 6.44863 13.1329 6.52354 13.1915 6.58669C13.2501 6.64985 13.3215 6.69979 13.4008 6.73322L23.1565 10.8537C23.2317 10.8854 23.3125 10.9017 23.3941 10.9015C23.4757 10.9013 23.5565 10.8846 23.6315 10.8525L33.2567 6.73201C33.3357 6.69829 33.4066 6.64819 33.4648 6.58501C33.523 6.52183 33.5672 6.447 33.5944 6.36548C33.6216 6.28396 33.6312 6.19759 33.6226 6.11207C33.614 6.02656 33.5873 5.94384 33.5445 5.86938C33.4792 5.98362 33.378 6.07306 33.2567 6.1238V6.1238Z" fill="black"/>
<path d="M17.7122 13.4206C17.7525 13.4206 17.7911 13.4045 17.8196 13.376C17.8481 13.3475 17.8641 13.3088 17.8641 13.2685V8.1806L22.8733 6.35367C22.9136 6.35427 22.9525 6.33882 22.9814 6.31073C23.0103 6.28264 23.0269 6.2442 23.0275 6.20388C23.0281 6.16355 23.0126 6.12464 22.9846 6.0957C22.9565 6.06676 22.9181 6.05016 22.8778 6.04956L17.8686 7.8765C17.8283 7.87557 17.7882 7.88284 17.7508 7.89787C17.7134 7.91291 17.6794 7.93539 17.6509 7.96396C17.6221 7.99218 17.5993 8.02589 17.5837 8.0631C17.5681 8.10031 17.5602 8.14026 17.5603 8.1806V13.2685C17.5603 13.3088 17.5763 13.3475 17.6048 13.376C17.6333 13.4045 17.6719 13.4206 17.7122 13.4206V13.4206Z" fill="#3F3D56"/>
</g>
<defs>
<clipPath id="clip0_2338_182">
<rect width="113" height="82" fill="white"/>
</clipPath>
</defs>
</svg>
