<svg width="114" height="90" viewBox="0 0 114 90" fill="none" xmlns="http://www.w3.org/2000/svg">
<g clip-path="url(#clip0_2338_280)">
<path d="M27.7623 10.671L12.9763 12.4199L14.6277 26.501L29.4137 24.752L27.7623 10.671Z" fill="#2F2E41"/>
<path d="M20.2052 18.788C24.2143 18.788 27.4643 15.5241 27.4643 11.4979C27.4643 7.47167 24.2143 4.20776 20.2052 4.20776C16.1961 4.20776 12.946 7.47167 12.946 11.4979C12.946 15.5241 16.1961 18.788 20.2052 18.788Z" fill="#FFB6B6"/>
<path d="M15.4191 0.190811H15.4191C10.8954 1.45202 11.3167 3.14549 9.94605 4.21259C7.53119 6.0926 7.03822 10.755 8.76241 13.5892C9.22309 14.3465 10.1245 15.3472 9.88752 16.571C9.70558 17.5104 8.93766 18.1427 8.79303 18.2578C7.60922 19.2005 8.33266 18.1601 7.83335 18.8905C7.28223 19.6967 8.38986 20.6124 7.93872 21.9929C7.53879 23.2167 6.42232 23.2494 6.36438 23.9961C6.2646 25.2818 9.39756 27.4727 12.3932 26.917C15.0604 26.4221 16.7896 23.9038 17.2063 21.6754C17.4854 20.1827 17.3881 17.6834 16.0959 16.6153C15.9147 16.4655 15.4254 16.1087 14.9261 15.4558C14.5309 14.9392 14.0107 14.2591 14.206 13.724C14.4141 13.154 15.2161 13.3462 15.6455 12.775C16.2278 12.0004 15.3011 10.9178 15.2852 9.70281C15.2584 7.64551 17.839 4.86208 20.9231 4.88282C24.4218 4.90631 26.1282 8.5222 26.3073 8.91823C26.6785 9.73903 26.7699 10.5648 26.9526 12.2163C27.2148 14.5864 27.3791 16.0719 26.8183 17.6832C26.0117 20.0007 24.6288 19.9242 24.4344 21.5991C24.1315 24.2106 27.2576 26.4275 27.6143 26.674C30.259 28.5008 33.954 28.7071 34.4527 27.6821C34.902 26.7584 32.3307 25.7084 32.0977 23.0288C31.8957 20.7067 33.6776 19.7808 33.0868 18.2396C32.4365 16.543 30.108 17.223 28.8725 15.3636C27.7193 13.6281 29.3253 12.3995 28.6017 8.64684C28.4486 7.853 27.9286 5.58419 26.1866 3.48152C25.4192 2.55518 24.6387 1.61306 23.3371 1.22288C21.8799 0.786072 17.812 -0.476341 15.4191 0.190792L15.4191 0.190812L15.4191 0.190811Z" fill="#2F2E41"/>
<path d="M13.1106 6.95315C13.4836 8.51639 15.9452 9.01293 16.9799 9.09118C17.4181 9.12434 18.899 9.23631 20.264 8.44317C20.7685 8.14999 20.9377 7.91882 21.4786 7.78036C22.2108 7.59292 22.6189 7.83274 23.833 8.02101C25.183 8.23037 25.858 8.33506 26.1574 8.00564C26.6467 7.46715 26.0462 5.9659 25.2872 4.99373C23.8838 3.19613 21.6602 2.85109 20.6231 2.69014C19.4382 2.50627 17.0338 2.13313 15.0447 3.60955C14.7787 3.80694 12.7317 5.36489 13.1106 6.95315H13.1106L13.1106 6.95315Z" fill="#2F2E41"/>
<path d="M111.774 35.0449C111.808 34.6754 110.947 34.4722 110.995 34.1493C111.042 33.8275 111.913 33.9172 112.85 33.358C113.019 33.2572 114.084 32.6218 113.995 32.122C113.825 31.1746 109.658 31.5478 109.288 30.1665C109.207 29.8633 109.301 29.4435 109.08 28.4915C108.993 28.1128 108.917 27.9155 108.753 27.8496C108.521 27.7561 108.315 28.0089 107.731 28.3751C106.854 28.9243 106.701 28.7415 106.069 29.2291C105.6 29.591 105.438 29.8819 105.239 29.8172C104.958 29.7258 105.101 29.0843 104.782 28.9186C104.455 28.7494 103.867 29.1898 103.503 29.5754C102.821 30.2992 102.733 31.04 102.495 31.7132C102.237 32.4448 101.68 33.4386 100.337 34.4421L88.0934 42.9158C90.6685 41.2226 97.8648 36.6808 100.664 35.084C101.472 34.623 102.32 34.1759 103.227 34.4152C104.1 34.6455 104.922 35.4844 106.325 36.0632C106.488 36.1308 106.947 36.3131 107.16 36.1199C107.336 35.9601 107.185 35.6893 107.347 35.5377C107.565 35.3343 108.015 35.6567 108.762 35.7825C109.289 35.8711 109.697 35.817 110.047 35.7705C110.152 35.7565 111.729 35.5369 111.774 35.0449L111.774 35.0449L111.774 35.0449V35.0449Z" fill="#D4D4D4"/>
<path d="M91.5965 29.5282C91.4256 29.405 91.0781 29.7703 90.934 29.6537C90.7904 29.5374 91.0855 29.1342 91.0826 28.511C91.0821 28.3986 91.0788 27.6903 90.8087 27.5902C90.2968 27.4004 89.2768 29.5623 88.4951 29.3457C88.3236 29.2981 88.1453 29.131 87.6165 28.965C87.4061 28.8989 87.2878 28.8794 87.2084 28.941C87.0958 29.0283 87.16 29.2028 87.1702 29.5967C87.1855 30.1874 87.052 30.2101 87.108 30.6622C87.1496 30.9978 87.245 31.1615 87.1561 31.2407C87.0304 31.3528 86.7582 31.0972 86.5849 31.2071C86.408 31.3192 86.4534 31.7363 86.537 32.0267C86.6939 32.5718 87.0306 32.8288 87.291 33.1403C87.574 33.4788 87.8991 34.0399 88.0019 34.9915L88.6105 43.4714C88.526 41.7135 88.3827 36.856 88.41 35.0155C88.4179 34.4842 88.444 33.9373 88.8226 33.5594C89.1871 33.1955 89.8344 33.0321 90.5218 32.5079C90.6021 32.4467 90.8234 32.2735 90.7906 32.1125C90.7634 31.9795 90.5873 31.9761 90.5601 31.8522C90.5236 31.6861 90.8109 31.5575 91.088 31.2253C91.2834 30.9912 91.3745 30.7749 91.4527 30.5889C91.4763 30.5328 91.8241 29.6921 91.5965 29.5281L91.5965 29.5282L91.5965 29.5282V29.5282Z" fill="#D4D4D4"/>
<path d="M94.4447 32.7656L95.0053 31.7703L95.1025 31.7346C95.5521 31.5696 95.8899 31.3349 96.1067 31.0367C96.1412 30.9893 96.1733 30.9401 96.206 30.89C96.3355 30.6915 96.4964 30.4448 96.8208 30.2566C97.0021 30.1519 97.4561 29.9346 97.7175 30.1923C97.7885 30.2608 97.822 30.3407 97.8367 30.4163C97.851 30.4105 97.8655 30.4048 97.8812 30.3985C98.0734 30.3249 98.189 30.3175 98.3004 30.3104C98.386 30.3048 98.4743 30.2992 98.6392 30.2538C98.7115 30.2339 98.7713 30.2137 98.8216 30.1967C98.9741 30.1456 99.1645 30.091 99.3377 30.2203C99.5181 30.3649 99.5042 30.5911 99.4951 30.7409C99.4789 31.0082 99.4362 31.1783 99.4079 31.2911C99.3974 31.3323 99.3859 31.3788 99.3851 31.3952C99.3813 31.5278 99.9305 31.8003 100.137 31.904C100.601 32.1355 101.002 32.3359 100.961 32.7054C100.932 32.9699 100.674 33.1609 100.175 33.2877C100.019 33.3271 99.876 33.3386 99.7543 33.3409C99.7914 33.4275 99.8065 33.5299 99.7623 33.6414C99.6573 33.9051 99.3052 33.9899 98.7154 33.8945C98.5687 33.8712 98.3716 33.8391 98.1438 33.7271C98.0366 33.6742 97.9478 33.6158 97.8727 33.5647C97.8404 33.6062 97.7972 33.6452 97.737 33.674C97.5602 33.7588 97.3542 33.7107 97.1275 33.5216C96.8754 33.3175 96.6958 33.1104 96.5372 32.9281C96.3985 32.7691 96.2787 32.6326 96.1608 32.5585C95.9402 32.4239 95.6587 32.4747 95.3136 32.5551L94.4447 32.7656L94.4447 32.7656L94.4447 32.7656V32.7656Z" fill="#D4D4D4"/>
<path d="M98.8701 27.6302L97.7693 27.3381L97.7103 27.2527C97.4373 26.8578 97.1255 26.5893 96.7833 26.4542C96.7289 26.4328 96.6734 26.4141 96.6169 26.395C96.3929 26.3196 96.1144 26.2258 95.8508 25.9584C95.704 25.8089 95.3795 25.423 95.5614 25.1037C95.6094 25.0173 95.6778 24.9645 95.747 24.9311C95.7377 24.9187 95.7286 24.906 95.7186 24.8924C95.5989 24.7243 95.5624 24.6138 95.5273 24.5075C95.5003 24.4257 95.4725 24.3414 95.3869 24.1927C95.3494 24.1275 95.3147 24.0746 95.2857 24.03C95.1978 23.8948 95.0968 23.7237 95.1774 23.5226C95.2709 23.3107 95.4924 23.2669 95.639 23.2377C95.9005 23.1857 96.0752 23.184 96.1911 23.1829C96.2334 23.1826 96.2811 23.182 96.2971 23.1786C96.4258 23.1487 96.5489 22.546 96.5965 22.3194C96.7018 21.8099 96.7929 21.369 97.1594 21.3154C97.4215 21.2769 97.6707 21.4784 97.9195 21.9313C97.9969 22.0723 98.0444 22.2088 98.0775 22.3265C98.1515 22.2685 98.2463 22.2277 98.3649 22.2424C98.6455 22.2775 98.8165 22.598 98.8743 23.1952C98.889 23.3437 98.9081 23.5432 98.858 23.7929C98.8343 23.9105 98.8005 24.0116 98.7703 24.0975C98.8185 24.1183 98.867 24.1504 98.91 24.2016C99.0366 24.3518 99.0425 24.5642 98.9179 24.8323C98.7852 25.129 98.6313 25.356 98.496 25.5563C98.378 25.7314 98.2769 25.8824 98.2354 26.0157C98.1617 26.2642 98.2821 26.5247 98.447 26.8396L98.8702 27.6302L98.8701 27.6302L98.8701 27.6302V27.6302Z" fill="#D4D4D4"/>
<path d="M100.348 24.5719L100.908 23.5766L101.006 23.5409C101.455 23.3759 101.793 23.1411 102.01 22.8429C102.044 22.7955 102.076 22.7464 102.109 22.6963C102.239 22.4978 102.399 22.2511 102.724 22.0628C102.905 21.9582 103.359 21.7408 103.621 21.9985C103.692 22.0671 103.725 22.1469 103.74 22.2226C103.754 22.2167 103.769 22.2111 103.784 22.2048C103.977 22.1312 104.092 22.1238 104.203 22.1166C104.289 22.1111 104.377 22.1055 104.542 22.0601C104.615 22.0402 104.674 22.0199 104.725 22.003C104.877 21.9519 105.068 21.8973 105.241 22.0265C105.421 22.1712 105.407 22.3974 105.398 22.5472C105.382 22.8144 105.339 22.9846 105.311 23.0974C105.3 23.1386 105.289 23.185 105.288 23.2015C105.284 23.3341 105.834 23.6065 106.04 23.7103C106.504 23.9418 106.905 24.1422 106.864 24.5117C106.835 24.7762 106.577 24.9671 106.078 25.094C105.923 25.1333 105.779 25.1449 105.657 25.1472C105.694 25.2338 105.71 25.3362 105.665 25.4477C105.56 25.7114 105.208 25.7962 104.618 25.7008C104.472 25.6775 104.275 25.6454 104.047 25.5334C103.94 25.4805 103.851 25.4221 103.776 25.3709C103.744 25.4125 103.7 25.4515 103.64 25.4802C103.463 25.5651 103.257 25.517 103.031 25.3279C102.778 25.1237 102.599 24.9167 102.44 24.7344C102.302 24.5754 102.182 24.4389 102.064 24.3647C101.843 24.2302 101.562 24.281 101.217 24.3614L100.348 24.5719L100.348 24.5719L100.348 24.5718V24.5719Z" fill="#D4D4D4"/>
<path d="M88.4111 43.1238L88.3062 42.8633L88.4201 42.6068L88.3062 42.8633L88.0636 42.7263C88.0751 42.7028 88.0975 42.646 88.1333 42.5575C88.3296 42.073 88.9265 40.5982 90.0928 38.4401C90.9071 36.9336 91.8264 35.4446 92.8256 34.0136C93.8265 32.5804 94.6668 31.5554 95.342 30.7315C95.8513 30.1101 96.3469 29.5261 96.8301 28.9575C98.1204 27.438 99.339 26.0025 100.464 24.2505C100.715 23.8595 101.238 23.0454 101.383 21.8802C101.467 21.2043 101.412 20.5102 101.219 19.8175L101.759 19.6661C101.971 20.4314 102.031 21.1999 101.938 21.9503C101.777 23.2422 101.208 24.1293 100.934 24.5555C99.7892 26.3385 98.5587 27.7877 97.2559 29.3218C96.7747 29.8885 96.2811 30.4698 95.7739 31.0887C95.1049 31.9049 94.272 32.9211 93.284 34.3359C92.2965 35.7496 91.3886 37.2205 90.5844 38.7079C89.4328 40.8389 88.845 42.2918 88.6519 42.7691C88.5486 43.0239 88.527 43.0772 88.4111 43.1238V43.1238V43.1238Z" fill="#D4D4D4"/>
<path d="M99.8669 19.9367C99.8483 19.9232 99.8298 19.9091 99.8117 19.8939C99.4408 19.5926 99.2505 19.1008 99.2459 18.4324C99.2442 18.1183 99.3364 17.8284 99.5203 17.2502C99.5485 17.161 99.6967 16.7119 99.989 16.1584C100.18 15.7965 100.285 15.6634 100.437 15.5891C100.606 15.5063 100.79 15.4966 100.967 15.5282C100.993 15.4805 101.03 15.439 101.082 15.4068C101.296 15.2732 101.483 15.4473 101.586 15.54C101.637 15.588 101.7 15.6483 101.779 15.6993C101.902 15.78 101.992 15.7909 102.127 15.808C102.256 15.8243 102.418 15.8445 102.614 15.9337C103.002 16.1081 103.216 16.4095 103.286 16.5088C103.658 17.029 103.624 17.5874 103.584 18.2338C103.576 18.3633 103.535 18.826 103.341 19.3615C103.202 19.7478 103.087 19.8807 102.983 19.9666C102.77 20.1434 102.549 20.1722 102.017 20.2039C101.46 20.2378 101.181 20.2545 100.968 20.2327C100.471 20.1813 100.159 20.149 99.8669 19.9367L99.8669 19.9367H99.8669V19.9367Z" fill="#D4D4D4"/>
<path d="M28.7022 88.6595C25.1025 89.5363 21.342 89.9999 17.4743 89.9999C13.285 89.9999 9.22024 89.4565 5.35081 88.432C4.92895 86.8641 4.45002 85.1278 3.90713 83.2074C-0.96336 65.9638 8.90383 53.7382 8.90383 53.7382L11.3382 51.8091L33.2511 54.7678C35.8013 67.2538 34.1415 76.519 28.7022 88.6595L28.7022 88.6595V88.6595Z" fill="#2F2E41"/>
<path d="M25.1327 20.7951L14.8815 19.7656L7.44946 26.1999L9.75597 49.3634L8.73085 53.7388L33.0773 54.7683L31.7959 48.5913L33.5899 25.9426L25.1327 20.7951Z" fill="#EC3528"/>
<path d="M28.4643 32.8917H12.0625V58.629H28.4643V32.8917Z" fill="white"/>
<path d="M26.1239 36.2777H21.541C21.417 36.2777 21.3162 36.1764 21.3162 36.0519C21.3162 35.9274 21.417 35.8262 21.541 35.8262H26.1239C26.2478 35.8262 26.3487 35.9274 26.3487 36.0519C26.3487 36.1764 26.2478 36.2777 26.1239 36.2777Z" fill="#EC3528"/>
<path d="M26.1239 38.014H21.541C21.417 38.014 21.3162 37.9127 21.3162 37.7883C21.3162 37.6638 21.417 37.5625 21.541 37.5625H26.1239C26.2478 37.5625 26.3487 37.6638 26.3487 37.7883C26.3487 37.9127 26.2478 38.014 26.1239 38.014Z" fill="#EC3528"/>
<path d="M26.1239 39.7503H21.541C21.417 39.7503 21.3162 39.6491 21.3162 39.5246C21.3162 39.4001 21.417 39.2988 21.541 39.2988H26.1239C26.2478 39.2988 26.3487 39.4001 26.3487 39.5246C26.3487 39.6491 26.2478 39.7503 26.1239 39.7503Z" fill="#EC3528"/>
<path d="M25.9182 45.8276H14.7741C14.4726 45.8276 14.2274 45.5813 14.2274 45.2786C14.2274 44.9759 14.4726 44.7296 14.7741 44.7296H25.9182C26.2196 44.7296 26.4648 44.9759 26.4648 45.2786C26.4648 45.5813 26.2196 45.8276 25.9182 45.8276Z" fill="#E6E6E6"/>
<path d="M19.649 55.8238C21.8663 56.5217 24.0222 55.9384 24.4642 54.5212C24.9063 53.104 23.4671 51.3898 21.2489 50.6919C20.3666 50.401 19.4278 50.3264 18.511 50.4745L9.07884 47.6366L3.09277 51.9373L17.2763 54.4328C17.9452 55.0801 18.7588 55.5571 19.649 55.8238V55.8238Z" fill="#FFB6B6"/>
<path d="M8.41553 25.6853C8.41553 25.6853 4.97902 27.6574 3.99716 31.8481L0.0697179 48.611C0.0697179 48.611 -0.666677 51.0761 2.6471 52.3087C5.96088 53.5412 10.0111 48.2412 10.0111 48.2412L8.16137 46.3836L11.7293 30.7388L8.41553 25.6853V25.6853L8.41553 25.6853Z" fill="#EC3528"/>
<path d="M17.0924 53.3462C14.7873 53.6406 12.7675 52.6847 12.5812 51.2114C12.3949 49.7382 14.1124 48.3056 16.4184 48.0115C17.338 47.8813 18.2752 47.9741 19.1517 48.2822L28.9342 47.1588L34.0715 52.452L19.6721 52.3972C18.9 52.9159 18.0154 53.2413 17.0924 53.3462Z" fill="#FFB6B6"/>
<path d="M33.4409 25.6688C33.4409 25.6688 36.4774 28.2185 36.7082 32.5174L37.6312 49.7131C37.6312 49.7131 37.9233 52.27 34.445 52.8965C30.9668 53.523 27.9105 47.5889 27.9105 47.5889L30.0573 46.0879L29.2919 30.0564L33.4409 25.6688H33.4409H33.4409Z" fill="#EC3528"/>
<path d="M19.7509 34.6932H13.8564V41.8997H19.7509V34.6932Z" fill="#EC3528"/>
<path d="M15.43 40.0724L15.0251 41.8534L15.0148 41.8998H13.8616C14 41.313 14.1717 40.5872 14.2511 40.2397C14.3511 39.8176 14.6125 39.5448 14.779 39.4084C14.8636 39.3338 14.9251 39.3003 14.9251 39.3003L15.43 40.0724H15.43H15.43Z" fill="#E6E6E6"/>
<path d="M19.3229 41.8998H18.2004L18.1082 39.9669L18.7232 39.3157L18.7412 39.2977C18.7412 39.2977 19.205 39.6863 19.2383 40.3427C19.2563 40.6695 19.2922 41.3258 19.3229 41.8998H19.3229Z" fill="#E6E6E6"/>
<path d="M79.104 45.7501C68.8878 45.7501 60.5762 37.4032 60.5762 27.1432C60.5762 16.8833 68.8878 8.53638 79.104 8.53638C89.3202 8.53638 97.6318 16.8834 97.6318 27.1432C97.6318 37.4031 89.3202 45.7501 79.104 45.7501V45.7501ZM79.104 8.8491C69.0594 8.8491 66.0256 21.827 60.8876 27.1432C53.8919 34.3817 69.0594 45.4374 79.104 45.4374C89.1486 45.4374 97.3204 37.2306 97.3204 27.1432C97.3204 17.0559 89.1486 8.8491 79.104 8.8491V8.8491Z" fill="#D4D4D4"/>
<path d="M85.8785 33.8789V23.9684L81.2039 19.2739H75.4906C74.3432 19.2739 73.4131 20.2081 73.4131 21.3604V33.8789C73.4131 35.0312 74.3432 35.9654 75.4906 35.9654H83.8009C84.9483 35.9654 85.8785 35.0312 85.8785 33.8789ZM81.2039 22.4036C81.2039 23.2678 81.9016 23.9684 82.7621 23.9684H84.8397V33.8789C84.8397 34.4551 84.3746 34.9222 83.8009 34.9222H75.4906C74.9169 34.9222 74.4519 34.4551 74.4519 33.8789V21.3604C74.4519 20.7842 74.9169 20.3171 75.4906 20.3171H81.2039V22.4036V22.4036Z" fill="#EC3528"/>
<path d="M83.1191 26.1121H76.3133C76.1292 26.1121 75.9795 25.9718 75.9795 25.7994C75.9795 25.627 76.1293 25.4867 76.3133 25.4867H83.1191C83.3031 25.4867 83.4529 25.627 83.4529 25.7994C83.4529 25.9718 83.3031 26.1121 83.1191 26.1121Z" fill="#EC3528"/>
<path d="M83.1191 28.7703H76.3133C76.1292 28.7703 75.9795 28.595 75.9795 28.3794C75.9795 28.1639 76.1293 27.9885 76.3133 27.9885H83.1191C83.3031 27.9885 83.4529 28.1639 83.4529 28.3794C83.4529 28.595 83.3031 28.7703 83.1191 28.7703Z" fill="#EC3528"/>
<path d="M83.1191 31.272H76.3133C76.1292 31.272 75.9795 31.1318 75.9795 30.9593C75.9795 30.7869 76.1293 30.6466 76.3133 30.6466H83.1191C83.3031 30.6466 83.4529 30.7869 83.4529 30.9593C83.4529 31.1318 83.3031 31.272 83.1191 31.272Z" fill="#EC3528"/>
<path d="M17.8675 37.0099L15.8625 37.2471L16.0865 39.1564L18.0914 38.9192L17.8675 37.0099Z" fill="#2F2E41"/>
<path d="M16.8427 38.1106C17.3863 38.1106 17.827 37.668 17.827 37.1221C17.827 36.5761 17.3863 36.1335 16.8427 36.1335C16.2991 36.1335 15.8584 36.5761 15.8584 37.1221C15.8584 37.668 16.2991 38.1106 16.8427 38.1106Z" fill="#FFB6B6"/>
<path d="M16.1938 35.5889H16.1938C15.5804 35.7599 15.6375 35.9895 15.4517 36.1342C15.1242 36.3891 15.0574 37.0213 15.2912 37.4056C15.3536 37.5083 15.4759 37.644 15.4437 37.8099C15.4191 37.9373 15.3149 38.023 15.2953 38.0387C15.1348 38.1665 15.2329 38.0254 15.1652 38.1245C15.0905 38.2338 15.2407 38.3579 15.1795 38.5451C15.1253 38.7111 14.9739 38.7155 14.966 38.8167C14.9525 38.9911 15.3773 39.2882 15.7835 39.2128C16.1452 39.1457 16.3796 38.8042 16.4361 38.5021C16.474 38.2997 16.4608 37.9608 16.2856 37.8159C16.261 37.7956 16.1946 37.7473 16.1269 37.6587C16.0734 37.5887 16.0028 37.4965 16.0293 37.4239C16.0575 37.3466 16.1663 37.3727 16.2245 37.2952C16.3035 37.1902 16.1778 37.0434 16.1756 36.8786C16.172 36.5997 16.5219 36.2223 16.9401 36.2251C17.4145 36.2283 17.6459 36.7186 17.6702 36.7723C17.7205 36.8836 17.7329 36.9955 17.7577 37.2195C17.7932 37.5408 17.8155 37.7423 17.7395 37.9607C17.6301 38.275 17.4426 38.2646 17.4162 38.4917C17.3751 38.8458 17.799 39.1464 17.8474 39.1799C18.206 39.4276 18.707 39.4555 18.7747 39.3166C18.8356 39.1913 18.4869 39.0489 18.4553 38.6856C18.4279 38.3707 18.6696 38.2452 18.5894 38.0362C18.5013 37.8061 18.1855 37.8983 18.018 37.6462C17.8616 37.4109 18.0794 37.2443 17.9813 36.7355C17.9605 36.6278 17.89 36.3202 17.6538 36.0351C17.5498 35.9095 17.4439 35.7817 17.2674 35.7288C17.0698 35.6696 16.5183 35.4984 16.1938 35.5889L16.1938 35.5889H16.1938Z" fill="#2F2E41"/>
<path d="M15.8807 36.5058C15.9313 36.7178 16.2651 36.7851 16.4054 36.7957C16.4648 36.8002 16.6656 36.8154 16.8507 36.7078C16.9191 36.6681 16.942 36.6367 17.0154 36.618C17.1147 36.5925 17.17 36.6251 17.3346 36.6506C17.5177 36.679 17.6092 36.6932 17.6498 36.6485C17.7162 36.5755 17.6347 36.3719 17.5318 36.2401C17.3415 35.9964 17.04 35.9496 16.8994 35.9278C16.7387 35.9028 16.4127 35.8522 16.143 36.0524C16.1069 36.0792 15.8293 36.2904 15.8807 36.5058H15.8807H15.8807Z" fill="#2F2E41"/>
<path d="M18.7642 39.3414L18.5617 41.8997H15.0276L15.0251 41.8534L14.779 39.4083L14.7765 39.38L15.5248 38.734L15.7555 38.5333L15.9118 38.3994L16.3142 38.4406L17.4725 38.5564H17.4751L17.8646 38.7932L18.4464 39.1484L18.7232 39.3157L18.7642 39.3414Z" fill="#E6E6E6"/>
</g>
<defs>
<clipPath id="clip0_2338_280">
<rect width="114" height="90" fill="white"/>
</clipPath>
</defs>
</svg>
