<svg width="119" height="91" viewBox="0 0 119 91" fill="none" xmlns="http://www.w3.org/2000/svg">
<path d="M16.9984 53.7334C21.1629 53.7334 24.539 50.3495 24.539 46.1753C24.539 42.0011 21.1629 38.6172 16.9984 38.6172C12.8338 38.6172 9.45776 42.0011 9.45776 46.1753C9.45776 50.3495 12.8338 53.7334 16.9984 53.7334Z" fill="#FF6584"/>
<path d="M32.4407 88.8668H32.433C32.1675 88.8665 31.9129 88.7606 31.7252 88.5725C31.5374 88.3843 31.4318 88.1291 31.4315 87.863V28.9334C31.4318 28.6672 31.5374 28.4121 31.7252 28.2239C31.9129 28.0357 32.1675 27.9299 32.433 27.9296H81.9182C82.1837 27.9299 82.4382 28.0357 82.626 28.2239C82.8137 28.4121 82.9193 28.6672 82.9196 28.9334V74.7544C82.9194 75.0192 82.8148 75.2731 82.6287 75.4611C82.4427 75.6491 82.1901 75.7558 81.9259 75.7581L32.4407 88.8668Z" fill="#F2F2F2"/>
<path d="M69.0166 19.6038H46.0414V6.25903C46.0417 5.97724 46.1535 5.70708 46.3523 5.50783C46.5511 5.30857 46.8206 5.19649 47.1018 5.19617H67.9562C68.2374 5.19649 68.5069 5.30857 68.7057 5.50783C68.9045 5.70708 69.0163 5.97724 69.0166 6.25903V19.6038ZM46.277 19.3676H68.781V6.25903C68.7807 6.03986 68.6938 5.82973 68.5392 5.67475C68.3845 5.51978 68.1749 5.4326 67.9562 5.43236H47.1018C46.8831 5.4326 46.6735 5.51978 46.5189 5.67475C46.3642 5.82973 46.2773 6.03986 46.277 6.25903V19.3676Z" fill="#3F3D56"/>
<path d="M52.5805 10.2743H62.4775C62.7275 10.2743 62.9673 10.3738 63.144 10.551C63.3208 10.7282 63.4201 10.9685 63.4201 11.2191V25.3905H51.6379V11.2191C51.6379 10.9685 51.7372 10.7282 51.914 10.551C52.0908 10.3738 52.3305 10.2743 52.5805 10.2743Z" fill="#E6E6E6"/>
<path d="M54.5245 5.43239H49.6938V0.590477C49.694 0.433928 49.7561 0.283842 49.8666 0.173144C49.977 0.0624474 50.1268 0.000179098 50.283 0H53.9354C54.0916 0.000179098 54.2414 0.0624474 54.3518 0.173144C54.4622 0.283842 54.5244 0.433928 54.5245 0.590477V5.43239ZM49.9295 5.1962H54.2889V0.590477C54.2888 0.496546 54.2515 0.406491 54.1853 0.340072C54.119 0.273653 54.0291 0.236293 53.9354 0.236191H50.283C50.1892 0.236293 50.0994 0.273653 50.0331 0.340072C49.9669 0.406491 49.9296 0.496546 49.9295 0.590477V5.1962Z" fill="#3F3D56"/>
<path d="M94.2199 76.625C94.1729 76.625 94.1272 76.625 94.0803 76.6238C91.1654 76.5915 88.3627 75.4934 86.1986 73.5359C86.1186 73.4629 86.0392 73.389 85.9605 73.314L85.9241 73.2792V50.6459L85.9353 50.622C86.0133 50.4563 86.0924 50.2929 86.1715 50.1295C88.6223 45.1424 91.4805 42.3962 94.2199 42.3962C98.1704 42.3962 101.234 47.8279 102.709 51.0656C104.76 55.5679 106.192 61.1467 106.192 64.6324C106.191 67.7902 104.948 70.8203 102.732 73.0652C100.516 75.3101 97.507 76.5888 94.3567 76.6238C94.3127 76.625 94.2657 76.625 94.2199 76.625ZM86.1597 73.1779C86.225 73.2397 86.2909 73.3007 86.3568 73.3609C88.4787 75.28 91.2267 76.3563 94.0845 76.3876C94.1322 76.3888 94.1774 76.3875 94.223 76.3888C94.2658 76.3888 94.3096 76.3888 94.3524 76.3877C100.751 76.3165 105.956 71.0431 105.956 64.6324C105.956 61.177 104.533 55.6384 102.495 51.1637C101.043 47.9775 98.0387 42.6324 94.2199 42.6324C91.575 42.6324 88.7919 45.3318 86.3832 50.2333C86.3086 50.3874 86.2337 50.5421 86.1597 50.6988L86.1597 73.1779Z" fill="#3F3D56"/>
<path d="M94.2194 90.9438C94.1835 90.9438 94.149 90.9295 94.1236 90.904C94.0981 90.8786 94.0839 90.844 94.0839 90.808V63.0711C94.0838 63.0532 94.0872 63.0355 94.094 63.0189C94.1007 63.0023 94.1107 62.9872 94.1233 62.9745C94.1359 62.9618 94.1509 62.9517 94.1674 62.9449C94.1839 62.938 94.2016 62.9344 94.2194 62.9344C94.2373 62.9344 94.255 62.938 94.2715 62.9449C94.288 62.9517 94.303 62.9618 94.3156 62.9745C94.3282 62.9872 94.3381 63.0023 94.3449 63.0189C94.3517 63.0355 94.3551 63.0532 94.355 63.0711V90.808C94.355 90.844 94.3407 90.8786 94.3153 90.904C94.2898 90.9295 94.2554 90.9438 94.2194 90.9438Z" fill="#CCCCCC"/>
<path d="M23.8798 90.9438C23.8439 90.9438 23.8094 90.9295 23.784 90.904C23.7585 90.8786 23.7443 90.844 23.7443 90.808V63.0711C23.7442 63.0532 23.7476 63.0355 23.7544 63.0189C23.7611 63.0023 23.7711 62.9872 23.7837 62.9745C23.7963 62.9618 23.8113 62.9517 23.8278 62.9449C23.8443 62.938 23.8619 62.9344 23.8798 62.9344C23.8977 62.9344 23.9154 62.938 23.9319 62.9449C23.9484 62.9517 23.9634 62.9618 23.976 62.9745C23.9886 62.9872 23.9985 63.0023 24.0053 63.0189C24.012 63.0355 24.0155 63.0532 24.0154 63.0711V90.808C24.0154 90.844 24.0011 90.8786 23.9757 90.904C23.9502 90.9295 23.9158 90.9438 23.8798 90.9438Z" fill="#CCCCCC"/>
<path d="M94.2194 68.2533C94.2 68.2533 94.1808 68.2491 94.1631 68.2411C94.1454 68.233 94.1296 68.2212 94.1169 68.2064L87.2993 60.3259C87.2759 60.2987 87.2641 60.2632 87.2667 60.2273C87.2693 60.1914 87.286 60.158 87.3131 60.1344C87.3402 60.1108 87.3756 60.099 87.4114 60.1015C87.4472 60.104 87.4806 60.1207 87.5042 60.1478L94.3218 68.0284C94.3388 68.0481 94.3498 68.0722 94.3535 68.098C94.3572 68.1238 94.3535 68.1501 94.3427 68.1738C94.3319 68.1975 94.3145 68.2176 94.2927 68.2317C94.2708 68.2458 94.2454 68.2533 94.2194 68.2533V68.2533Z" fill="#CCCCCC"/>
<path d="M94.2194 72.8013C94.1926 72.8013 94.1664 72.7933 94.1441 72.7784C94.1218 72.7634 94.1044 72.7422 94.0942 72.7174C94.0839 72.6926 94.0812 72.6652 94.0865 72.6389C94.0917 72.6125 94.1046 72.5883 94.1236 72.5693L97.9974 68.6864C98.0229 68.661 98.0573 68.6468 98.0932 68.6469C98.1291 68.6469 98.1635 68.6612 98.1889 68.6866C98.2142 68.7121 98.2285 68.7466 98.2286 68.7825C98.2286 68.8185 98.2144 68.853 98.1891 68.8785L94.3152 72.7615C94.3027 72.7741 94.2877 72.7841 94.2713 72.791C94.2548 72.7978 94.2372 72.8013 94.2194 72.8013Z" fill="#CCCCCC"/>
<path d="M106.761 91H96.6279V90.8819C96.6276 90.2148 96.7584 89.5541 97.0129 88.9377C97.2674 88.3213 97.6405 87.7612 98.1111 87.2893C98.5816 86.8175 99.1402 86.4432 99.7551 86.1878C100.37 85.9325 101.029 85.801 101.695 85.801C102.36 85.801 103.019 85.9325 103.634 86.1878C104.249 86.4432 104.808 86.8175 105.278 87.2893C105.749 87.7612 106.122 88.3213 106.376 88.9377C106.631 89.5541 106.762 90.2148 106.761 90.8819L106.761 91ZM96.865 90.7638H106.524C106.493 89.5004 105.971 88.2991 105.069 87.4164C104.166 86.5337 102.955 86.0396 101.695 86.0396C100.434 86.0396 99.2228 86.5337 98.3204 87.4164C97.4181 88.2991 96.8957 89.5004 96.865 90.7638H96.865Z" fill="#3F3D56"/>
<path d="M101.694 87.9995C101.659 87.9995 101.625 88.0136 101.6 88.0388C101.575 88.0639 101.561 88.098 101.561 88.1336V89.5577L100.177 88.367C100.163 88.3555 100.148 88.3467 100.131 88.3412C100.114 88.3357 100.097 88.3335 100.079 88.3348C100.062 88.3361 100.045 88.3409 100.029 88.3489C100.013 88.3568 99.9992 88.3678 99.9877 88.3812C99.9763 88.3946 99.9675 88.4101 99.9621 88.4268C99.9566 88.4436 99.9545 88.4613 99.9558 88.4789C99.9572 88.4964 99.962 88.5136 99.97 88.5293C99.978 88.545 99.989 88.559 100.002 88.5705L101.561 89.9111V90.7478C101.561 90.7654 101.564 90.7829 101.571 90.7992C101.577 90.8155 101.587 90.8304 101.6 90.8428C101.612 90.8553 101.627 90.8652 101.643 90.872C101.659 90.8788 101.677 90.8823 101.694 90.8823C101.712 90.8823 101.729 90.8788 101.746 90.872C101.762 90.8652 101.777 90.8553 101.789 90.8428C101.802 90.8304 101.811 90.8155 101.818 90.7992C101.825 90.7829 101.828 90.7654 101.828 90.7478V88.1336C101.828 88.098 101.814 88.0639 101.789 88.0388C101.764 88.0136 101.73 87.9995 101.694 87.9995Z" fill="#3F3D56"/>
<path d="M21.8116 91H11.6783V90.8819C11.678 90.2148 11.8088 89.5541 12.0633 88.9377C12.3178 88.3213 12.691 87.7612 13.1615 87.2893C13.632 86.8175 14.1906 86.4432 14.8055 86.1878C15.4204 85.9325 16.0794 85.801 16.745 85.801C17.4106 85.801 18.0696 85.9325 18.6845 86.1878C19.2993 86.4432 19.858 86.8175 20.3285 87.2893C20.799 87.7612 21.1722 88.3213 21.4267 88.9377C21.6811 89.5541 21.8119 90.2148 21.8116 90.8819L21.8116 91ZM11.9154 90.7638H21.5746C21.5438 89.5004 21.0215 88.2991 20.1191 87.4164C19.2168 86.5337 18.0058 86.0396 16.745 86.0396C15.4841 86.0396 14.2732 86.5337 13.3708 87.4164C12.4685 88.2991 11.9461 89.5004 11.9154 90.7638H11.9154Z" fill="#3F3D56"/>
<path d="M16.745 87.9995C16.7095 87.9995 16.6755 88.0136 16.6504 88.0388C16.6253 88.0639 16.6112 88.098 16.6112 88.1336V89.5577L15.2271 88.367C15.2138 88.3555 15.1983 88.3467 15.1816 88.3412C15.1649 88.3357 15.1473 88.3335 15.1297 88.3348C15.1122 88.3361 15.0951 88.3409 15.0794 88.3489C15.0637 88.3568 15.0497 88.3678 15.0383 88.3812C15.0268 88.3946 15.0181 88.4101 15.0126 88.4268C15.0071 88.4436 15.005 88.4613 15.0064 88.4789C15.0077 88.4964 15.0125 88.5136 15.0205 88.5293C15.0285 88.545 15.0395 88.559 15.0529 88.5705L16.6112 89.9111V90.7478C16.6112 90.7654 16.6146 90.7829 16.6213 90.7992C16.628 90.8155 16.6378 90.8304 16.6503 90.8428C16.6627 90.8553 16.6775 90.8652 16.6937 90.872C16.71 90.8788 16.7274 90.8823 16.745 90.8823C16.7626 90.8823 16.78 90.8788 16.7963 90.872C16.8125 90.8652 16.8273 90.8553 16.8397 90.8428C16.8521 90.8304 16.862 90.8155 16.8687 90.7992C16.8754 90.7829 16.8788 90.7654 16.8788 90.7478V88.1336C16.8788 88.098 16.8647 88.0639 16.8396 88.0388C16.8145 88.0136 16.7805 87.9995 16.745 87.9995Z" fill="#3F3D56"/>
<path d="M23.9982 76.625C23.9513 76.625 23.9055 76.625 23.8586 76.6238C20.7086 76.5881 17.6997 75.3092 15.4845 73.0644C13.2692 70.8196 12.0262 67.7899 12.0251 64.6324C12.0251 61.1466 13.4574 55.5677 15.5081 51.0656C16.9829 47.8279 20.047 42.3962 23.9982 42.3962C25.6257 42.3962 27.2645 43.326 28.8692 45.1598C28.9487 45.2502 29.0285 45.3433 29.1071 45.4388L29.134 45.4715V75.4661L29.0676 75.4984C28.9883 75.5369 28.9078 75.573 28.8274 75.6079C27.3487 76.2638 25.7519 76.6095 24.135 76.6238C24.091 76.625 24.044 76.625 23.9982 76.625ZM23.9982 42.6324C20.1788 42.6324 17.1738 47.9775 15.7225 51.1637C13.6843 55.6383 12.2608 61.1769 12.2608 64.6324C12.2608 71.042 17.4655 76.3154 23.8628 76.3876C23.9105 76.3888 23.955 76.3892 24.0013 76.3888C24.0441 76.3888 24.0879 76.3888 24.1307 76.3877C25.7165 76.3738 27.2827 76.0348 28.7329 75.3916C28.7885 75.3674 28.8437 75.3429 28.8984 75.3174V45.5566C28.8302 45.4744 28.7612 45.3942 28.6922 45.3157C27.1341 43.5352 25.5548 42.6324 23.9982 42.6324Z" fill="#3F3D56"/>
<path d="M23.9976 68.2533C23.9782 68.2533 23.959 68.2491 23.9413 68.2411C23.9236 68.233 23.9078 68.2212 23.8951 68.2064L17.0775 60.3259C17.0541 60.2987 17.0423 60.2632 17.0449 60.2273C17.0475 60.1914 17.0642 60.158 17.0913 60.1344C17.1184 60.1108 17.1538 60.099 17.1896 60.1015C17.2254 60.104 17.2588 60.1207 17.2824 60.1478L24.1 68.0284C24.117 68.0481 24.128 68.0722 24.1317 68.098C24.1354 68.1238 24.1317 68.1501 24.1209 68.1738C24.1101 68.1975 24.0927 68.2176 24.0709 68.2317C24.049 68.2458 24.0236 68.2533 23.9976 68.2533V68.2533Z" fill="#CCCCCC"/>
<path d="M23.9976 72.8013C23.9708 72.8013 23.9446 72.7933 23.9223 72.7784C23.9 72.7634 23.8826 72.7422 23.8724 72.7174C23.8621 72.6926 23.8594 72.6652 23.8647 72.6389C23.8699 72.6125 23.8828 72.5883 23.9018 72.5693L27.7756 68.6864C27.8011 68.661 27.8355 68.6468 27.8714 68.6469C27.9073 68.6469 27.9417 68.6612 27.9671 68.6866C27.9924 68.7121 28.0067 68.7466 28.0068 68.7825C28.0068 68.8185 27.9926 68.853 27.9673 68.8785L24.0934 72.7615C24.0809 72.7741 24.0659 72.7841 24.0495 72.791C24.033 72.7978 24.0154 72.8013 23.9976 72.8013Z" fill="#CCCCCC"/>
<path d="M34.6433 20.5486L34.7305 20.721C34.7691 20.7954 34.7894 20.8781 34.7894 20.962V25.6267H38.9132V20.962C38.9132 20.8781 38.9334 20.7954 38.9721 20.721L39.0593 20.5486H34.6433ZM38.6775 20.962V25.3905H35.025V20.962C35.0251 20.9023 35.018 20.8428 35.0038 20.7848H38.6988C38.6846 20.8428 38.6775 20.9023 38.6775 20.962ZM39.8274 20.5486L39.9147 20.721C39.9533 20.7954 39.9735 20.8781 39.9736 20.962V25.6267H44.0973V20.962C44.0974 20.8781 44.1176 20.7954 44.1562 20.721L44.2435 20.5486H39.8274ZM43.8617 20.962V25.3905H40.2092V20.962C40.2093 20.9023 40.2021 20.8428 40.188 20.7848H43.8829C43.8687 20.8428 43.8616 20.9023 43.8617 20.962ZM45.0116 20.5486L45.0988 20.721C45.1375 20.7954 45.1577 20.8781 45.1577 20.962V25.6267H49.2815V20.962C49.2815 20.8781 49.3017 20.7954 49.3404 20.721L49.4276 20.5486H45.0116ZM49.0458 20.962V25.3905H45.3934V20.962C45.3934 20.9023 45.3863 20.8428 45.3721 20.7848H49.0671C49.0529 20.8428 49.0458 20.9023 49.0458 20.962ZM50.1958 20.5486L50.283 20.721C50.3216 20.7954 50.3418 20.8781 50.3419 20.962V25.6267H54.4656V20.962C54.4657 20.8781 54.4859 20.7954 54.5246 20.721L54.6118 20.5486H50.1958ZM54.23 20.962V25.3905H50.5775V20.962C50.5776 20.9023 50.5705 20.8428 50.5563 20.7848H54.2512C54.2371 20.8428 54.2299 20.9023 54.23 20.962ZM55.3799 20.5486L55.4671 20.721C55.5058 20.7954 55.526 20.8781 55.526 20.962V25.6267H59.6498V20.962C59.6499 20.8781 59.6701 20.7954 59.7087 20.721L59.7959 20.5486H55.3799ZM59.4142 20.962V25.3905H55.7617V20.962C55.7617 20.9023 55.7546 20.8428 55.7405 20.7848H59.4354C59.4212 20.8428 59.4141 20.9023 59.4142 20.962ZM60.5641 20.5486L60.6513 20.721C60.6899 20.7954 60.7101 20.8781 60.7102 20.962V25.6267H64.834V20.962C64.834 20.8781 64.8542 20.7954 64.8929 20.721L64.9801 20.5486H60.5641ZM64.5983 20.962V25.3905H60.9458V20.962C60.9459 20.9023 60.9388 20.8428 60.9246 20.7848H64.6195C64.6054 20.8428 64.5983 20.9023 64.5983 20.962ZM65.7482 20.5486L65.8354 20.721C65.8741 20.7954 65.8943 20.8781 65.8944 20.962V25.6267H70.0181V20.962C70.0182 20.8781 70.0384 20.7954 70.077 20.721L70.1642 20.5486H65.7482ZM69.7825 20.962V25.3905H66.13V20.962C66.1301 20.9023 66.1229 20.8428 66.1088 20.7848H69.8037C69.7895 20.8428 69.7824 20.9023 69.7825 20.962ZM70.9324 20.5486L71.0196 20.721C71.0583 20.7954 71.0785 20.8781 71.0785 20.962V25.6267H75.2023V20.962C75.2023 20.8781 75.2225 20.7954 75.2612 20.721L75.3484 20.5486H70.9324ZM74.9666 20.962V25.3905H71.3142V20.962C71.3142 20.9023 71.3071 20.8428 71.2929 20.7848H74.9879C74.9737 20.8428 74.9666 20.9023 74.9666 20.962ZM76.1166 20.5486L76.2038 20.721C76.2424 20.7954 76.2626 20.8781 76.2627 20.962V25.6267H80.3864V20.962C80.3865 20.8781 80.4067 20.7954 80.4454 20.721L80.5326 20.5486H76.1166ZM80.1508 20.962V25.3905H76.4983V20.962C76.4984 20.9023 76.4913 20.8428 76.4771 20.7848H80.172C80.1579 20.8428 80.1507 20.9023 80.1508 20.962ZM76.1166 20.5486L76.2038 20.721C76.2424 20.7954 76.2626 20.8781 76.2627 20.962V25.6267H80.3864V20.962C80.3865 20.8781 80.4067 20.7954 80.4454 20.721L80.5326 20.5486H76.1166ZM80.1508 20.962V25.3905H76.4983V20.962C76.4984 20.9023 76.4913 20.8428 76.4771 20.7848H80.172C80.1579 20.8428 80.1507 20.9023 80.1508 20.962ZM70.9324 20.5486L71.0196 20.721C71.0583 20.7954 71.0785 20.8781 71.0785 20.962V25.6267H75.2023V20.962C75.2023 20.8781 75.2225 20.7954 75.2612 20.721L75.3484 20.5486H70.9324ZM74.9666 20.962V25.3905H71.3142V20.962C71.3142 20.9023 71.3071 20.8428 71.2929 20.7848H74.9879C74.9737 20.8428 74.9666 20.9023 74.9666 20.962ZM65.7482 20.5486L65.8354 20.721C65.8741 20.7954 65.8943 20.8781 65.8944 20.962V25.6267H70.0181V20.962C70.0182 20.8781 70.0384 20.7954 70.077 20.721L70.1642 20.5486H65.7482ZM69.7825 20.962V25.3905H66.13V20.962C66.1301 20.9023 66.1229 20.8428 66.1088 20.7848H69.8037C69.7895 20.8428 69.7824 20.9023 69.7825 20.962ZM60.5641 20.5486L60.6513 20.721C60.6899 20.7954 60.7101 20.8781 60.7102 20.962V25.6267H64.834V20.962C64.834 20.8781 64.8542 20.7954 64.8929 20.721L64.9801 20.5486H60.5641ZM64.5983 20.962V25.3905H60.9458V20.962C60.9459 20.9023 60.9388 20.8428 60.9246 20.7848H64.6195C64.6054 20.8428 64.5983 20.9023 64.5983 20.962ZM55.3799 20.5486L55.4671 20.721C55.5058 20.7954 55.526 20.8781 55.526 20.962V25.6267H59.6498V20.962C59.6499 20.8781 59.6701 20.7954 59.7087 20.721L59.7959 20.5486H55.3799ZM59.4142 20.962V25.3905H55.7617V20.962C55.7617 20.9023 55.7546 20.8428 55.7405 20.7848H59.4354C59.4212 20.8428 59.4141 20.9023 59.4142 20.962ZM50.1958 20.5486L50.283 20.721C50.3216 20.7954 50.3418 20.8781 50.3419 20.962V25.6267H54.4656V20.962C54.4657 20.8781 54.4859 20.7954 54.5246 20.721L54.6118 20.5486H50.1958ZM54.23 20.962V25.3905H50.5775V20.962C50.5776 20.9023 50.5705 20.8428 50.5563 20.7848H54.2512C54.2371 20.8428 54.2299 20.9023 54.23 20.962ZM45.0116 20.5486L45.0988 20.721C45.1375 20.7954 45.1577 20.8781 45.1577 20.962V25.6267H49.2815V20.962C49.2815 20.8781 49.3017 20.7954 49.3404 20.721L49.4276 20.5486H45.0116ZM49.0458 20.962V25.3905H45.3934V20.962C45.3934 20.9023 45.3863 20.8428 45.3721 20.7848H49.0671C49.0529 20.8428 49.0458 20.9023 49.0458 20.962ZM39.8274 20.5486L39.9147 20.721C39.9533 20.7954 39.9735 20.8781 39.9736 20.962V25.6267H44.0973V20.962C44.0974 20.8781 44.1176 20.7954 44.1562 20.721L44.2435 20.5486H39.8274ZM43.8617 20.962V25.3905H40.2092V20.962C40.2093 20.9023 40.2021 20.8428 40.188 20.7848H43.8829C43.8687 20.8428 43.8616 20.9023 43.8617 20.962ZM34.6433 20.5486L34.7305 20.721C34.7691 20.7954 34.7894 20.8781 34.7894 20.962V25.6267H38.9132V20.962C38.9132 20.8781 38.9334 20.7954 38.9721 20.721L39.0593 20.5486H34.6433ZM38.6775 20.962V25.3905H35.025V20.962C35.0251 20.9023 35.018 20.8428 35.0038 20.7848H38.6988C38.6846 20.8428 38.6775 20.9023 38.6775 20.962ZM76.1166 20.5486L76.2038 20.721C76.2424 20.7954 76.2626 20.8781 76.2627 20.962V25.6267H80.3864V20.962C80.3865 20.8781 80.4067 20.7954 80.4454 20.721L80.5326 20.5486H76.1166ZM80.1508 20.962V25.3905H76.4983V20.962C76.4984 20.9023 76.4913 20.8428 76.4771 20.7848H80.172C80.1579 20.8428 80.1507 20.9023 80.1508 20.962ZM70.9324 20.5486L71.0196 20.721C71.0583 20.7954 71.0785 20.8781 71.0785 20.962V25.6267H75.2023V20.962C75.2023 20.8781 75.2225 20.7954 75.2612 20.721L75.3484 20.5486H70.9324ZM74.9666 20.962V25.3905H71.3142V20.962C71.3142 20.9023 71.3071 20.8428 71.2929 20.7848H74.9879C74.9737 20.8428 74.9666 20.9023 74.9666 20.962ZM65.7482 20.5486L65.8354 20.721C65.8741 20.7954 65.8943 20.8781 65.8944 20.962V25.6267H70.0181V20.962C70.0182 20.8781 70.0384 20.7954 70.077 20.721L70.1642 20.5486H65.7482ZM69.7825 20.962V25.3905H66.13V20.962C66.1301 20.9023 66.1229 20.8428 66.1088 20.7848H69.8037C69.7895 20.8428 69.7824 20.9023 69.7825 20.962ZM60.5641 20.5486L60.6513 20.721C60.6899 20.7954 60.7101 20.8781 60.7102 20.962V25.6267H64.834V20.962C64.834 20.8781 64.8542 20.7954 64.8929 20.721L64.9801 20.5486H60.5641ZM64.5983 20.962V25.3905H60.9458V20.962C60.9459 20.9023 60.9388 20.8428 60.9246 20.7848H64.6195C64.6054 20.8428 64.5983 20.9023 64.5983 20.962ZM55.3799 20.5486L55.4671 20.721C55.5058 20.7954 55.526 20.8781 55.526 20.962V25.6267H59.6498V20.962C59.6499 20.8781 59.6701 20.7954 59.7087 20.721L59.7959 20.5486H55.3799ZM59.4142 20.962V25.3905H55.7617V20.962C55.7617 20.9023 55.7546 20.8428 55.7405 20.7848H59.4354C59.4212 20.8428 59.4141 20.9023 59.4142 20.962ZM50.1958 20.5486L50.283 20.721C50.3216 20.7954 50.3418 20.8781 50.3419 20.962V25.6267H54.4656V20.962C54.4657 20.8781 54.4859 20.7954 54.5246 20.721L54.6118 20.5486H50.1958ZM54.23 20.962V25.3905H50.5775V20.962C50.5776 20.9023 50.5705 20.8428 50.5563 20.7848H54.2512C54.2371 20.8428 54.2299 20.9023 54.23 20.962ZM45.0116 20.5486L45.0988 20.721C45.1375 20.7954 45.1577 20.8781 45.1577 20.962V25.6267H49.2815V20.962C49.2815 20.8781 49.3017 20.7954 49.3404 20.721L49.4276 20.5486H45.0116ZM49.0458 20.962V25.3905H45.3934V20.962C45.3934 20.9023 45.3863 20.8428 45.3721 20.7848H49.0671C49.0529 20.8428 49.0458 20.9023 49.0458 20.962ZM39.8274 20.5486L39.9147 20.721C39.9533 20.7954 39.9735 20.8781 39.9736 20.962V25.6267H44.0973V20.962C44.0974 20.8781 44.1176 20.7954 44.1562 20.721L44.2435 20.5486H39.8274ZM43.8617 20.962V25.3905H40.2092V20.962C40.2093 20.9023 40.2021 20.8428 40.188 20.7848H43.8829C43.8687 20.8428 43.8616 20.9023 43.8617 20.962ZM34.6433 20.5486L34.7305 20.721C34.7691 20.7954 34.7894 20.8781 34.7894 20.962V25.6267H38.9132V20.962C38.9132 20.8781 38.9334 20.7954 38.9721 20.721L39.0593 20.5486H34.6433ZM38.6775 20.962V25.3905H35.025V20.962C35.0251 20.9023 35.018 20.8428 35.0038 20.7848H38.6988C38.6846 20.8428 38.6775 20.9023 38.6775 20.962ZM76.1166 20.5486L76.2038 20.721C76.2424 20.7954 76.2626 20.8781 76.2627 20.962V25.6267H80.3864V20.962C80.3865 20.8781 80.4067 20.7954 80.4454 20.721L80.5326 20.5486H76.1166ZM80.1508 20.962V25.3905H76.4983V20.962C76.4984 20.9023 76.4913 20.8428 76.4771 20.7848H80.172C80.1579 20.8428 80.1507 20.9023 80.1508 20.962ZM70.9324 20.5486L71.0196 20.721C71.0583 20.7954 71.0785 20.8781 71.0785 20.962V25.6267H75.2023V20.962C75.2023 20.8781 75.2225 20.7954 75.2612 20.721L75.3484 20.5486H70.9324ZM74.9666 20.962V25.3905H71.3142V20.962C71.3142 20.9023 71.3071 20.8428 71.2929 20.7848H74.9879C74.9737 20.8428 74.9666 20.9023 74.9666 20.962ZM65.7482 20.5486L65.8354 20.721C65.8741 20.7954 65.8943 20.8781 65.8944 20.962V25.6267H70.0181V20.962C70.0182 20.8781 70.0384 20.7954 70.077 20.721L70.1642 20.5486H65.7482ZM69.7825 20.962V25.3905H66.13V20.962C66.1301 20.9023 66.1229 20.8428 66.1088 20.7848H69.8037C69.7895 20.8428 69.7824 20.9023 69.7825 20.962ZM60.5641 20.5486L60.6513 20.721C60.6899 20.7954 60.7101 20.8781 60.7102 20.962V25.6267H64.834V20.962C64.834 20.8781 64.8542 20.7954 64.8929 20.721L64.9801 20.5486H60.5641ZM64.5983 20.962V25.3905H60.9458V20.962C60.9459 20.9023 60.9388 20.8428 60.9246 20.7848H64.6195C64.6054 20.8428 64.5983 20.9023 64.5983 20.962ZM55.3799 20.5486L55.4671 20.721C55.5058 20.7954 55.526 20.8781 55.526 20.962V25.6267H59.6498V20.962C59.6499 20.8781 59.6701 20.7954 59.7087 20.721L59.7959 20.5486H55.3799ZM59.4142 20.962V25.3905H55.7617V20.962C55.7617 20.9023 55.7546 20.8428 55.7405 20.7848H59.4354C59.4212 20.8428 59.4141 20.9023 59.4142 20.962ZM50.1958 20.5486L50.283 20.721C50.3216 20.7954 50.3418 20.8781 50.3419 20.962V25.6267H54.4656V20.962C54.4657 20.8781 54.4859 20.7954 54.5246 20.721L54.6118 20.5486H50.1958ZM54.23 20.962V25.3905H50.5775V20.962C50.5776 20.9023 50.5705 20.8428 50.5563 20.7848H54.2512C54.2371 20.8428 54.2299 20.9023 54.23 20.962ZM45.0116 20.5486L45.0988 20.721C45.1375 20.7954 45.1577 20.8781 45.1577 20.962V25.6267H49.2815V20.962C49.2815 20.8781 49.3017 20.7954 49.3404 20.721L49.4276 20.5486H45.0116ZM49.0458 20.962V25.3905H45.3934V20.962C45.3934 20.9023 45.3863 20.8428 45.3721 20.7848H49.0671C49.0529 20.8428 49.0458 20.9023 49.0458 20.962ZM39.8274 20.5486L39.9147 20.721C39.9533 20.7954 39.9735 20.8781 39.9736 20.962V25.6267H44.0973V20.962C44.0974 20.8781 44.1176 20.7954 44.1562 20.721L44.2435 20.5486H39.8274ZM43.8617 20.962V25.3905H40.2092V20.962C40.2093 20.9023 40.2021 20.8428 40.188 20.7848H43.8829C43.8687 20.8428 43.8616 20.9023 43.8617 20.962ZM34.6433 20.5486L34.7305 20.721C34.7691 20.7954 34.7894 20.8781 34.7894 20.962V25.6267H38.9132V20.962C38.9132 20.8781 38.9334 20.7954 38.9721 20.721L39.0593 20.5486H34.6433ZM38.6775 20.962V25.3905H35.025V20.962C35.0251 20.9023 35.018 20.8428 35.0038 20.7848H38.6988C38.6846 20.8428 38.6775 20.9023 38.6775 20.962ZM76.1166 20.5486L76.2038 20.721C76.2424 20.7954 76.2626 20.8781 76.2627 20.962V25.6267H80.3864V20.962C80.3865 20.8781 80.4067 20.7954 80.4454 20.721L80.5326 20.5486H76.1166ZM80.1508 20.962V25.3905H76.4983V20.962C76.4984 20.9023 76.4913 20.8428 76.4771 20.7848H80.172C80.1579 20.8428 80.1507 20.9023 80.1508 20.962ZM70.9324 20.5486L71.0196 20.721C71.0583 20.7954 71.0785 20.8781 71.0785 20.962V25.6267H75.2023V20.962C75.2023 20.8781 75.2225 20.7954 75.2612 20.721L75.3484 20.5486H70.9324ZM74.9666 20.962V25.3905H71.3142V20.962C71.3142 20.9023 71.3071 20.8428 71.2929 20.7848H74.9879C74.9737 20.8428 74.9666 20.9023 74.9666 20.962ZM65.7482 20.5486L65.8354 20.721C65.8741 20.7954 65.8943 20.8781 65.8944 20.962V25.6267H70.0181V20.962C70.0182 20.8781 70.0384 20.7954 70.077 20.721L70.1642 20.5486H65.7482ZM69.7825 20.962V25.3905H66.13V20.962C66.1301 20.9023 66.1229 20.8428 66.1088 20.7848H69.8037C69.7895 20.8428 69.7824 20.9023 69.7825 20.962ZM60.5641 20.5486L60.6513 20.721C60.6899 20.7954 60.7101 20.8781 60.7102 20.962V25.6267H64.834V20.962C64.834 20.8781 64.8542 20.7954 64.8929 20.721L64.9801 20.5486H60.5641ZM64.5983 20.962V25.3905H60.9458V20.962C60.9459 20.9023 60.9388 20.8428 60.9246 20.7848H64.6195C64.6054 20.8428 64.5983 20.9023 64.5983 20.962ZM55.3799 20.5486L55.4671 20.721C55.5058 20.7954 55.526 20.8781 55.526 20.962V25.6267H59.6498V20.962C59.6499 20.8781 59.6701 20.7954 59.7087 20.721L59.7959 20.5486H55.3799ZM59.4142 20.962V25.3905H55.7617V20.962C55.7617 20.9023 55.7546 20.8428 55.7405 20.7848H59.4354C59.4212 20.8428 59.4141 20.9023 59.4142 20.962ZM50.1958 20.5486L50.283 20.721C50.3216 20.7954 50.3418 20.8781 50.3419 20.962V25.6267H54.4656V20.962C54.4657 20.8781 54.4859 20.7954 54.5246 20.721L54.6118 20.5486H50.1958ZM54.23 20.962V25.3905H50.5775V20.962C50.5776 20.9023 50.5705 20.8428 50.5563 20.7848H54.2512C54.2371 20.8428 54.2299 20.9023 54.23 20.962ZM45.0116 20.5486L45.0988 20.721C45.1375 20.7954 45.1577 20.8781 45.1577 20.962V25.6267H49.2815V20.962C49.2815 20.8781 49.3017 20.7954 49.3404 20.721L49.4276 20.5486H45.0116ZM49.0458 20.962V25.3905H45.3934V20.962C45.3934 20.9023 45.3863 20.8428 45.3721 20.7848H49.0671C49.0529 20.8428 49.0458 20.9023 49.0458 20.962ZM39.8274 20.5486L39.9147 20.721C39.9533 20.7954 39.9735 20.8781 39.9736 20.962V25.6267H44.0973V20.962C44.0974 20.8781 44.1176 20.7954 44.1562 20.721L44.2435 20.5486H39.8274ZM43.8617 20.962V25.3905H40.2092V20.962C40.2093 20.9023 40.2021 20.8428 40.188 20.7848H43.8829C43.8687 20.8428 43.8616 20.9023 43.8617 20.962ZM34.6433 20.5486L34.7305 20.721C34.7691 20.7954 34.7894 20.8781 34.7894 20.962V25.6267H38.9132V20.962C38.9132 20.8781 38.9334 20.7954 38.9721 20.721L39.0593 20.5486H34.6433ZM38.6775 20.962V25.3905H35.025V20.962C35.0251 20.9023 35.018 20.8428 35.0038 20.7848H38.6988C38.6846 20.8428 38.6775 20.9023 38.6775 20.962ZM76.1166 20.5486L76.2038 20.721C76.2424 20.7954 76.2626 20.8781 76.2627 20.962V25.6267H80.3864V20.962C80.3865 20.8781 80.4067 20.7954 80.4454 20.721L80.5326 20.5486H76.1166ZM80.1508 20.962V25.3905H76.4983V20.962C76.4984 20.9023 76.4913 20.8428 76.4771 20.7848H80.172C80.1579 20.8428 80.1507 20.9023 80.1508 20.962ZM71.0196 20.721C71.0583 20.7954 71.0785 20.8781 71.0785 20.962V25.6267H75.2023V20.962C75.2023 20.8781 75.2225 20.7954 75.2612 20.721L75.3484 20.5486H70.9324L71.0196 20.721ZM74.9879 20.7848C74.9737 20.8428 74.9666 20.9023 74.9666 20.962V25.3905H71.3142V20.962C71.3142 20.9023 71.3071 20.8428 71.2929 20.7848H74.9879ZM65.8354 20.721C65.8741 20.7954 65.8943 20.8781 65.8944 20.962V25.6267H70.0181V20.962C70.0182 20.8781 70.0384 20.7954 70.077 20.721L70.1642 20.5486H65.7482L65.8354 20.721ZM69.8037 20.7848C69.7895 20.8428 69.7824 20.9023 69.7825 20.962V25.3905H66.13V20.962C66.1301 20.9023 66.1229 20.8428 66.1088 20.7848H69.8037ZM60.6513 20.721C60.6899 20.7954 60.7101 20.8781 60.7102 20.962V25.6267H64.834V20.962C64.834 20.8781 64.8542 20.7954 64.8929 20.721L64.9801 20.5486H60.5641L60.6513 20.721ZM64.6195 20.7848C64.6054 20.8428 64.5983 20.9023 64.5983 20.962V25.3905H60.9458V20.962C60.9459 20.9023 60.9388 20.8428 60.9246 20.7848H64.6195ZM55.4671 20.721C55.5058 20.7954 55.526 20.8781 55.526 20.962V25.6267H59.6498V20.962C59.6499 20.8781 59.6701 20.7954 59.7087 20.721L59.7959 20.5486H55.3799L55.4671 20.721ZM59.4354 20.7848C59.4212 20.8428 59.4141 20.9023 59.4142 20.962V25.3905H55.7617V20.962C55.7617 20.9023 55.7546 20.8428 55.7405 20.7848H59.4354ZM50.283 20.721C50.3216 20.7954 50.3418 20.8781 50.3419 20.962V25.6267H54.4656V20.962C54.4657 20.8781 54.4859 20.7954 54.5246 20.721L54.6118 20.5486H50.1958L50.283 20.721ZM54.2512 20.7848C54.2371 20.8428 54.2299 20.9023 54.23 20.962V25.3905H50.5775V20.962C50.5776 20.9023 50.5705 20.8428 50.5563 20.7848H54.2512ZM45.0988 20.721C45.1375 20.7954 45.1577 20.8781 45.1577 20.962V25.6267H49.2815V20.962C49.2815 20.8781 49.3017 20.7954 49.3404 20.721L49.4276 20.5486H45.0116L45.0988 20.721ZM49.0671 20.7848C49.0529 20.8428 49.0458 20.9023 49.0458 20.962V25.3905H45.3934V20.962C45.3934 20.9023 45.3863 20.8428 45.3721 20.7848H49.0671ZM39.9147 20.721C39.9533 20.7954 39.9735 20.8781 39.9736 20.962V25.6267H44.0973V20.962C44.0974 20.8781 44.1176 20.7954 44.1562 20.721L44.2435 20.5486H39.8274L39.9147 20.721ZM43.8829 20.7848C43.8687 20.8428 43.8616 20.9023 43.8617 20.962V25.3905H40.2092V20.962C40.2093 20.9023 40.2021 20.8428 40.188 20.7848H43.8829ZM34.7305 20.721C34.7691 20.7954 34.7894 20.8781 34.7894 20.962V25.6267H38.9132V20.962C38.9132 20.8781 38.9334 20.7954 38.9721 20.721L39.0593 20.5486H34.6433L34.7305 20.721ZM38.6988 20.7848C38.6846 20.8428 38.6775 20.9023 38.6775 20.962V25.3905H35.025V20.962C35.0251 20.9023 35.018 20.8428 35.0038 20.7848H38.6988ZM76.2038 20.721C76.2424 20.7954 76.2626 20.8781 76.2627 20.962V25.6267H80.3864V20.962C80.3865 20.8781 80.4067 20.7954 80.4454 20.721L80.5326 20.5486H76.1166L76.2038 20.721ZM80.172 20.7848C80.1579 20.8428 80.1507 20.9023 80.1508 20.962V25.3905H76.4983V20.962C76.4984 20.9023 76.4913 20.8428 76.4771 20.7848H80.172ZM71.0196 20.721C71.0583 20.7954 71.0785 20.8781 71.0785 20.962V25.6267H75.2023V20.962C75.2023 20.8781 75.2225 20.7954 75.2612 20.721L75.3484 20.5486H70.9324L71.0196 20.721ZM74.9879 20.7848C74.9737 20.8428 74.9666 20.9023 74.9666 20.962V25.3905H71.3142V20.962C71.3142 20.9023 71.3071 20.8428 71.2929 20.7848H74.9879ZM65.8354 20.721C65.8741 20.7954 65.8943 20.8781 65.8944 20.962V25.6267H70.0181V20.962C70.0182 20.8781 70.0384 20.7954 70.077 20.721L70.1642 20.5486H65.7482L65.8354 20.721ZM69.8037 20.7848C69.7895 20.8428 69.7824 20.9023 69.7825 20.962V25.3905H66.13V20.962C66.1301 20.9023 66.1229 20.8428 66.1088 20.7848H69.8037ZM60.6513 20.721C60.6899 20.7954 60.7101 20.8781 60.7102 20.962V25.6267H64.834V20.962C64.834 20.8781 64.8542 20.7954 64.8929 20.721L64.9801 20.5486H60.5641L60.6513 20.721ZM64.6195 20.7848C64.6054 20.8428 64.5983 20.9023 64.5983 20.962V25.3905H60.9458V20.962C60.9459 20.9023 60.9388 20.8428 60.9246 20.7848H64.6195ZM55.4671 20.721C55.5058 20.7954 55.526 20.8781 55.526 20.962V25.6267H59.6498V20.962C59.6499 20.8781 59.6701 20.7954 59.7087 20.721L59.7959 20.5486H55.3799L55.4671 20.721ZM59.4354 20.7848C59.4212 20.8428 59.4141 20.9023 59.4142 20.962V25.3905H55.7617V20.962C55.7617 20.9023 55.7546 20.8428 55.7405 20.7848H59.4354ZM50.283 20.721C50.3216 20.7954 50.3418 20.8781 50.3419 20.962V25.6267H54.4656V20.962C54.4657 20.8781 54.4859 20.7954 54.5246 20.721L54.6118 20.5486H50.1958L50.283 20.721ZM54.2512 20.7848C54.2371 20.8428 54.2299 20.9023 54.23 20.962V25.3905H50.5775V20.962C50.5776 20.9023 50.5705 20.8428 50.5563 20.7848H54.2512ZM45.0988 20.721C45.1375 20.7954 45.1577 20.8781 45.1577 20.962V25.6267H49.2815V20.962C49.2815 20.8781 49.3017 20.7954 49.3404 20.721L49.4276 20.5486H45.0116L45.0988 20.721ZM49.0671 20.7848C49.0529 20.8428 49.0458 20.9023 49.0458 20.962V25.3905H45.3934V20.962C45.3934 20.9023 45.3863 20.8428 45.3721 20.7848H49.0671ZM39.9147 20.721C39.9533 20.7954 39.9735 20.8781 39.9736 20.962V25.6267H44.0973V20.962C44.0974 20.8781 44.1176 20.7954 44.1562 20.721L44.2435 20.5486H39.8274L39.9147 20.721ZM43.8829 20.7848C43.8687 20.8428 43.8616 20.9023 43.8617 20.962V25.3905H40.2092V20.962C40.2093 20.9023 40.2021 20.8428 40.188 20.7848H43.8829ZM34.7305 20.721C34.7691 20.7954 34.7894 20.8781 34.7894 20.962V25.6267H38.9132V20.962C38.9132 20.8781 38.9334 20.7954 38.9721 20.721L39.0593 20.5486H34.6433L34.7305 20.721ZM38.6988 20.7848C38.6846 20.8428 38.6775 20.9023 38.6775 20.962V25.3905H35.025V20.962C35.0251 20.9023 35.018 20.8428 35.0038 20.7848H38.6988ZM85.0993 26.3353H83.6949C83.6174 26.0636 83.4539 25.8246 83.2291 25.6541C83.0042 25.4837 82.7302 25.3912 82.4483 25.3905H81.6825V20.962C81.6828 20.8669 81.6648 20.7727 81.6294 20.6844C81.7629 20.6056 81.8669 20.485 81.9252 20.3411C81.9835 20.1973 81.9929 20.0381 81.952 19.8884C81.9111 19.7386 81.8222 19.6064 81.699 19.5123C81.5757 19.4182 81.425 19.3674 81.2701 19.3677H33.9057C33.7508 19.3674 33.6001 19.4182 33.4769 19.5123C33.3536 19.6064 33.2647 19.7386 33.2238 19.8884C33.1829 20.0381 33.1924 20.1973 33.2507 20.3411C33.309 20.485 33.4129 20.6056 33.5464 20.6844C33.5111 20.7727 33.4931 20.8669 33.4934 20.962V25.3905H32.7275C32.4456 25.3912 32.1716 25.4837 31.9467 25.6541C31.7219 25.8246 31.5584 26.0636 31.481 26.3353H29.9587C29.6776 26.3357 29.4081 26.4478 29.2094 26.6471C29.0106 26.8463 28.8987 27.1164 28.8983 27.3982V89.7525C28.8989 90.0342 29.0108 90.3042 29.2096 90.5034C29.4083 90.7026 29.6777 90.8148 29.9587 90.8154H85.0993C85.3804 90.815 85.6499 90.7029 85.8487 90.5036C86.0474 90.3044 86.1593 90.0343 86.1597 89.7525V27.3982C86.1593 27.1164 86.0474 26.8463 85.8487 26.6471C85.6499 26.4478 85.3804 26.3357 85.0993 26.3353ZM85.9241 89.7525C85.9239 89.9213 85.8722 90.086 85.7759 90.2244C85.6797 90.3629 85.5435 90.4686 85.3856 90.5272C85.2942 90.5621 85.1971 90.5798 85.0993 90.5792H29.9587C29.8609 90.5798 29.7638 90.5621 29.6724 90.5272C29.5145 90.4686 29.3783 90.3629 29.2821 90.2244C29.1858 90.086 29.1342 89.9213 29.134 89.7525V27.3982C29.1342 27.179 29.2212 26.9689 29.3758 26.8139C29.5304 26.6589 29.74 26.5717 29.9587 26.5715H31.6695L31.6884 26.477C31.7379 26.2373 31.8682 26.0219 32.0574 25.8671C32.2467 25.7123 32.4833 25.6274 32.7275 25.6267H33.729V20.962C33.729 20.8659 33.7551 20.7716 33.8044 20.6892L33.8774 20.5675L33.7443 20.5179C33.6403 20.4801 33.5529 20.4067 33.4975 20.3107C33.4421 20.2146 33.4224 20.1021 33.4416 19.9929C33.4609 19.8836 33.5181 19.7847 33.603 19.7136C33.6878 19.6424 33.7951 19.6036 33.9057 19.6039H81.2701C81.3808 19.6036 81.488 19.6424 81.5729 19.7136C81.6578 19.7847 81.7149 19.8836 81.7342 19.9929C81.7535 20.1021 81.7337 20.2146 81.6783 20.3107C81.623 20.4067 81.5356 20.4801 81.4315 20.5179L81.2984 20.5675L81.3714 20.6892C81.4207 20.7716 81.4468 20.8659 81.4468 20.962V25.6267H82.4483C82.6926 25.6274 82.9292 25.7122 83.1184 25.8671C83.3076 26.0219 83.4379 26.2373 83.4875 26.477L83.5063 26.5715H85.0993C85.318 26.5717 85.5276 26.6589 85.6822 26.8139C85.8368 26.9689 85.9238 27.179 85.9241 27.3982L85.9241 89.7525ZM34.6433 20.5486L34.7305 20.721C34.7691 20.7954 34.7894 20.8781 34.7894 20.962V25.6267H38.9132V20.962C38.9132 20.8781 38.9334 20.7954 38.9721 20.721L39.0593 20.5486H34.6433ZM38.6775 20.962V25.3905H35.025V20.962C35.0251 20.9023 35.018 20.8428 35.0038 20.7848H38.6988C38.6846 20.8428 38.6775 20.9023 38.6775 20.962ZM39.8274 20.5486L39.9147 20.721C39.9533 20.7954 39.9735 20.8781 39.9736 20.962V25.6267H44.0973V20.962C44.0974 20.8781 44.1176 20.7954 44.1562 20.721L44.2435 20.5486H39.8274ZM43.8617 20.962V25.3905H40.2092V20.962C40.2093 20.9023 40.2021 20.8428 40.188 20.7848H43.8829C43.8687 20.8428 43.8616 20.9023 43.8617 20.962ZM45.0116 20.5486L45.0988 20.721C45.1375 20.7954 45.1577 20.8781 45.1577 20.962V25.6267H49.2815V20.962C49.2815 20.8781 49.3017 20.7954 49.3404 20.721L49.4276 20.5486H45.0116ZM49.0458 20.962V25.3905H45.3934V20.962C45.3934 20.9023 45.3863 20.8428 45.3721 20.7848H49.0671C49.0529 20.8428 49.0458 20.9023 49.0458 20.962ZM50.1958 20.5486L50.283 20.721C50.3216 20.7954 50.3418 20.8781 50.3419 20.962V25.6267H54.4656V20.962C54.4657 20.8781 54.4859 20.7954 54.5246 20.721L54.6118 20.5486H50.1958ZM54.23 20.962V25.3905H50.5775V20.962C50.5776 20.9023 50.5705 20.8428 50.5563 20.7848H54.2512C54.2371 20.8428 54.2299 20.9023 54.23 20.962ZM55.3799 20.5486L55.4671 20.721C55.5058 20.7954 55.526 20.8781 55.526 20.962V25.6267H59.6498V20.962C59.6499 20.8781 59.6701 20.7954 59.7087 20.721L59.7959 20.5486H55.3799ZM59.4142 20.962V25.3905H55.7617V20.962C55.7617 20.9023 55.7546 20.8428 55.7405 20.7848H59.4354C59.4212 20.8428 59.4141 20.9023 59.4142 20.962ZM60.5641 20.5486L60.6513 20.721C60.6899 20.7954 60.7101 20.8781 60.7102 20.962V25.6267H64.834V20.962C64.834 20.8781 64.8542 20.7954 64.8929 20.721L64.9801 20.5486H60.5641ZM64.5983 20.962V25.3905H60.9458V20.962C60.9459 20.9023 60.9388 20.8428 60.9246 20.7848H64.6195C64.6054 20.8428 64.5983 20.9023 64.5983 20.962ZM65.7482 20.5486L65.8354 20.721C65.8741 20.7954 65.8943 20.8781 65.8944 20.962V25.6267H70.0181V20.962C70.0182 20.8781 70.0384 20.7954 70.077 20.721L70.1642 20.5486H65.7482ZM69.7825 20.962V25.3905H66.13V20.962C66.1301 20.9023 66.1229 20.8428 66.1088 20.7848H69.8037C69.7895 20.8428 69.7824 20.9023 69.7825 20.962ZM70.9324 20.5486L71.0196 20.721C71.0583 20.7954 71.0785 20.8781 71.0785 20.962V25.6267H75.2023V20.962C75.2023 20.8781 75.2225 20.7954 75.2612 20.721L75.3484 20.5486H70.9324ZM74.9666 20.962V25.3905H71.3142V20.962C71.3142 20.9023 71.3071 20.8428 71.2929 20.7848H74.9879C74.9737 20.8428 74.9666 20.9023 74.9666 20.962ZM76.1166 20.5486L76.2038 20.721C76.2424 20.7954 76.2626 20.8781 76.2627 20.962V25.6267H80.3864V20.962C80.3865 20.8781 80.4067 20.7954 80.4454 20.721L80.5326 20.5486H76.1166ZM80.1508 20.962V25.3905H76.4983V20.962C76.4984 20.9023 76.4913 20.8428 76.4771 20.7848H80.172C80.1579 20.8428 80.1507 20.9023 80.1508 20.962ZM34.6433 20.5486L34.7305 20.721C34.7691 20.7954 34.7894 20.8781 34.7894 20.962V25.6267H38.9132V20.962C38.9132 20.8781 38.9334 20.7954 38.9721 20.721L39.0593 20.5486H34.6433ZM38.6775 20.962V25.3905H35.025V20.962C35.0251 20.9023 35.018 20.8428 35.0038 20.7848H38.6988C38.6846 20.8428 38.6775 20.9023 38.6775 20.962ZM39.8274 20.5486L39.9147 20.721C39.9533 20.7954 39.9735 20.8781 39.9736 20.962V25.6267H44.0973V20.962C44.0974 20.8781 44.1176 20.7954 44.1562 20.721L44.2435 20.5486H39.8274ZM43.8617 20.962V25.3905H40.2092V20.962C40.2093 20.9023 40.2021 20.8428 40.188 20.7848H43.8829C43.8687 20.8428 43.8616 20.9023 43.8617 20.962ZM45.0116 20.5486L45.0988 20.721C45.1375 20.7954 45.1577 20.8781 45.1577 20.962V25.6267H49.2815V20.962C49.2815 20.8781 49.3017 20.7954 49.3404 20.721L49.4276 20.5486H45.0116ZM49.0458 20.962V25.3905H45.3934V20.962C45.3934 20.9023 45.3863 20.8428 45.3721 20.7848H49.0671C49.0529 20.8428 49.0458 20.9023 49.0458 20.962ZM50.1958 20.5486L50.283 20.721C50.3216 20.7954 50.3418 20.8781 50.3419 20.962V25.6267H54.4656V20.962C54.4657 20.8781 54.4859 20.7954 54.5246 20.721L54.6118 20.5486H50.1958ZM54.23 20.962V25.3905H50.5775V20.962C50.5776 20.9023 50.5705 20.8428 50.5563 20.7848H54.2512C54.2371 20.8428 54.2299 20.9023 54.23 20.962ZM55.3799 20.5486L55.4671 20.721C55.5058 20.7954 55.526 20.8781 55.526 20.962V25.6267H59.6498V20.962C59.6499 20.8781 59.6701 20.7954 59.7087 20.721L59.7959 20.5486H55.3799ZM59.4142 20.962V25.3905H55.7617V20.962C55.7617 20.9023 55.7546 20.8428 55.7405 20.7848H59.4354C59.4212 20.8428 59.4141 20.9023 59.4142 20.962ZM60.5641 20.5486L60.6513 20.721C60.6899 20.7954 60.7101 20.8781 60.7102 20.962V25.6267H64.834V20.962C64.834 20.8781 64.8542 20.7954 64.8929 20.721L64.9801 20.5486H60.5641ZM64.5983 20.962V25.3905H60.9458V20.962C60.9459 20.9023 60.9388 20.8428 60.9246 20.7848H64.6195C64.6054 20.8428 64.5983 20.9023 64.5983 20.962ZM65.7482 20.5486L65.8354 20.721C65.8741 20.7954 65.8943 20.8781 65.8944 20.962V25.6267H70.0181V20.962C70.0182 20.8781 70.0384 20.7954 70.077 20.721L70.1642 20.5486H65.7482ZM69.7825 20.962V25.3905H66.13V20.962C66.1301 20.9023 66.1229 20.8428 66.1088 20.7848H69.8037C69.7895 20.8428 69.7824 20.9023 69.7825 20.962ZM70.9324 20.5486L71.0196 20.721C71.0583 20.7954 71.0785 20.8781 71.0785 20.962V25.6267H75.2023V20.962C75.2023 20.8781 75.2225 20.7954 75.2612 20.721L75.3484 20.5486H70.9324ZM74.9666 20.962V25.3905H71.3142V20.962C71.3142 20.9023 71.3071 20.8428 71.2929 20.7848H74.9879C74.9737 20.8428 74.9666 20.9023 74.9666 20.962ZM76.1166 20.5486L76.2038 20.721C76.2424 20.7954 76.2626 20.8781 76.2627 20.962V25.6267H80.3864V20.962C80.3865 20.8781 80.4067 20.7954 80.4454 20.721L80.5326 20.5486H76.1166ZM80.1508 20.962V25.3905H76.4983V20.962C76.4984 20.9023 76.4913 20.8428 76.4771 20.7848H80.172C80.1579 20.8428 80.1507 20.9023 80.1508 20.962ZM34.6433 20.5486L34.7305 20.721C34.7691 20.7954 34.7894 20.8781 34.7894 20.962V25.6267H38.9132V20.962C38.9132 20.8781 38.9334 20.7954 38.9721 20.721L39.0593 20.5486H34.6433ZM38.6775 20.962V25.3905H35.025V20.962C35.0251 20.9023 35.018 20.8428 35.0038 20.7848H38.6988C38.6846 20.8428 38.6775 20.9023 38.6775 20.962ZM39.8274 20.5486L39.9147 20.721C39.9533 20.7954 39.9735 20.8781 39.9736 20.962V25.6267H44.0973V20.962C44.0974 20.8781 44.1176 20.7954 44.1562 20.721L44.2435 20.5486H39.8274ZM43.8617 20.962V25.3905H40.2092V20.962C40.2093 20.9023 40.2021 20.8428 40.188 20.7848H43.8829C43.8687 20.8428 43.8616 20.9023 43.8617 20.962ZM45.0116 20.5486L45.0988 20.721C45.1375 20.7954 45.1577 20.8781 45.1577 20.962V25.6267H49.2815V20.962C49.2815 20.8781 49.3017 20.7954 49.3404 20.721L49.4276 20.5486H45.0116ZM49.0458 20.962V25.3905H45.3934V20.962C45.3934 20.9023 45.3863 20.8428 45.3721 20.7848H49.0671C49.0529 20.8428 49.0458 20.9023 49.0458 20.962ZM50.1958 20.5486L50.283 20.721C50.3216 20.7954 50.3418 20.8781 50.3419 20.962V25.6267H54.4656V20.962C54.4657 20.8781 54.4859 20.7954 54.5246 20.721L54.6118 20.5486H50.1958ZM54.23 20.962V25.3905H50.5775V20.962C50.5776 20.9023 50.5705 20.8428 50.5563 20.7848H54.2512C54.2371 20.8428 54.2299 20.9023 54.23 20.962ZM55.3799 20.5486L55.4671 20.721C55.5058 20.7954 55.526 20.8781 55.526 20.962V25.6267H59.6498V20.962C59.6499 20.8781 59.6701 20.7954 59.7087 20.721L59.7959 20.5486H55.3799ZM59.4142 20.962V25.3905H55.7617V20.962C55.7617 20.9023 55.7546 20.8428 55.7405 20.7848H59.4354C59.4212 20.8428 59.4141 20.9023 59.4142 20.962ZM60.5641 20.5486L60.6513 20.721C60.6899 20.7954 60.7101 20.8781 60.7102 20.962V25.6267H64.834V20.962C64.834 20.8781 64.8542 20.7954 64.8929 20.721L64.9801 20.5486H60.5641ZM64.5983 20.962V25.3905H60.9458V20.962C60.9459 20.9023 60.9388 20.8428 60.9246 20.7848H64.6195C64.6054 20.8428 64.5983 20.9023 64.5983 20.962ZM65.7482 20.5486L65.8354 20.721C65.8741 20.7954 65.8943 20.8781 65.8944 20.962V25.6267H70.0181V20.962C70.0182 20.8781 70.0384 20.7954 70.077 20.721L70.1642 20.5486H65.7482ZM69.7825 20.962V25.3905H66.13V20.962C66.1301 20.9023 66.1229 20.8428 66.1088 20.7848H69.8037C69.7895 20.8428 69.7824 20.9023 69.7825 20.962ZM70.9324 20.5486L71.0196 20.721C71.0583 20.7954 71.0785 20.8781 71.0785 20.962V25.6267H75.2023V20.962C75.2023 20.8781 75.2225 20.7954 75.2612 20.721L75.3484 20.5486H70.9324ZM74.9666 20.962V25.3905H71.3142V20.962C71.3142 20.9023 71.3071 20.8428 71.2929 20.7848H74.9879C74.9737 20.8428 74.9666 20.9023 74.9666 20.962ZM76.1166 20.5486L76.2038 20.721C76.2424 20.7954 76.2626 20.8781 76.2627 20.962V25.6267H80.3864V20.962C80.3865 20.8781 80.4067 20.7954 80.4454 20.721L80.5326 20.5486H76.1166ZM80.1508 20.962V25.3905H76.4983V20.962C76.4984 20.9023 76.4913 20.8428 76.4771 20.7848H80.172C80.1579 20.8428 80.1507 20.9023 80.1508 20.962ZM34.6433 20.5486L34.7305 20.721C34.7691 20.7954 34.7894 20.8781 34.7894 20.962V25.6267H38.9132V20.962C38.9132 20.8781 38.9334 20.7954 38.9721 20.721L39.0593 20.5486H34.6433ZM38.6775 20.962V25.3905H35.025V20.962C35.0251 20.9023 35.018 20.8428 35.0038 20.7848H38.6988C38.6846 20.8428 38.6775 20.9023 38.6775 20.962ZM39.8274 20.5486L39.9147 20.721C39.9533 20.7954 39.9735 20.8781 39.9736 20.962V25.6267H44.0973V20.962C44.0974 20.8781 44.1176 20.7954 44.1562 20.721L44.2435 20.5486H39.8274ZM43.8617 20.962V25.3905H40.2092V20.962C40.2093 20.9023 40.2021 20.8428 40.188 20.7848H43.8829C43.8687 20.8428 43.8616 20.9023 43.8617 20.962ZM45.0116 20.5486L45.0988 20.721C45.1375 20.7954 45.1577 20.8781 45.1577 20.962V25.6267H49.2815V20.962C49.2815 20.8781 49.3017 20.7954 49.3404 20.721L49.4276 20.5486H45.0116ZM49.0458 20.962V25.3905H45.3934V20.962C45.3934 20.9023 45.3863 20.8428 45.3721 20.7848H49.0671C49.0529 20.8428 49.0458 20.9023 49.0458 20.962ZM50.1958 20.5486L50.283 20.721C50.3216 20.7954 50.3418 20.8781 50.3419 20.962V25.6267H54.4656V20.962C54.4657 20.8781 54.4859 20.7954 54.5246 20.721L54.6118 20.5486H50.1958ZM54.23 20.962V25.3905H50.5775V20.962C50.5776 20.9023 50.5705 20.8428 50.5563 20.7848H54.2512C54.2371 20.8428 54.2299 20.9023 54.23 20.962ZM55.3799 20.5486L55.4671 20.721C55.5058 20.7954 55.526 20.8781 55.526 20.962V25.6267H59.6498V20.962C59.6499 20.8781 59.6701 20.7954 59.7087 20.721L59.7959 20.5486H55.3799ZM59.4142 20.962V25.3905H55.7617V20.962C55.7617 20.9023 55.7546 20.8428 55.7405 20.7848H59.4354C59.4212 20.8428 59.4141 20.9023 59.4142 20.962ZM60.5641 20.5486L60.6513 20.721C60.6899 20.7954 60.7101 20.8781 60.7102 20.962V25.6267H64.834V20.962C64.834 20.8781 64.8542 20.7954 64.8929 20.721L64.9801 20.5486H60.5641ZM64.5983 20.962V25.3905H60.9458V20.962C60.9459 20.9023 60.9388 20.8428 60.9246 20.7848H64.6195C64.6054 20.8428 64.5983 20.9023 64.5983 20.962ZM65.7482 20.5486L65.8354 20.721C65.8741 20.7954 65.8943 20.8781 65.8944 20.962V25.6267H70.0181V20.962C70.0182 20.8781 70.0384 20.7954 70.077 20.721L70.1642 20.5486H65.7482ZM69.7825 20.962V25.3905H66.13V20.962C66.1301 20.9023 66.1229 20.8428 66.1088 20.7848H69.8037C69.7895 20.8428 69.7824 20.9023 69.7825 20.962ZM70.9324 20.5486L71.0196 20.721C71.0583 20.7954 71.0785 20.8781 71.0785 20.962V25.6267H75.2023V20.962C75.2023 20.8781 75.2225 20.7954 75.2612 20.721L75.3484 20.5486H70.9324ZM74.9666 20.962V25.3905H71.3142V20.962C71.3142 20.9023 71.3071 20.8428 71.2929 20.7848H74.9879C74.9737 20.8428 74.9666 20.9023 74.9666 20.962ZM76.1166 20.5486L76.2038 20.721C76.2424 20.7954 76.2626 20.8781 76.2627 20.962V25.6267H80.3864V20.962C80.3865 20.8781 80.4067 20.7954 80.4454 20.721L80.5326 20.5486H76.1166ZM80.1508 20.962V25.3905H76.4983V20.962C76.4984 20.9023 76.4913 20.8428 76.4771 20.7848H80.172C80.1579 20.8428 80.1507 20.9023 80.1508 20.962Z" fill="#3F3D56"/>
<path d="M48.6515 41.2152H39.9629C39.7799 41.215 39.6045 41.1421 39.4751 41.0124C39.3457 40.8827 39.2729 40.7068 39.2727 40.5234V35.8842C39.2729 35.7008 39.3457 35.5249 39.4751 35.3952C39.6045 35.2655 39.7799 35.1926 39.9629 35.1924H48.6515C48.8345 35.1926 49.0099 35.2655 49.1393 35.3952C49.2687 35.5249 49.3415 35.7008 49.3417 35.8842V40.5234C49.3415 40.7068 49.2687 40.8827 49.1393 41.0124C49.0099 41.1421 48.8345 41.215 48.6515 41.2152Z" fill="#EC3528"/>
<path d="M61.8733 41.2152H53.1847C53.0017 41.215 52.8263 41.1421 52.6969 41.0124C52.5675 40.8827 52.4947 40.7068 52.4945 40.5234V35.8842C52.4947 35.7008 52.5675 35.5249 52.6969 35.3952C52.8263 35.2655 53.0017 35.1926 53.1847 35.1924H61.8733C62.0563 35.1926 62.2317 35.2655 62.3611 35.3952C62.4905 35.5249 62.5633 35.7008 62.5635 35.8842V40.5234C62.5633 40.7068 62.4905 40.8827 62.3611 41.0124C62.2317 41.1421 62.0563 41.215 61.8733 41.2152Z" fill="#EC3528"/>
<path d="M75.0952 41.2152H66.4066C66.2236 41.215 66.0482 41.1421 65.9188 41.0124C65.7894 40.8827 65.7166 40.7068 65.7164 40.5234V35.8842C65.7166 35.7008 65.7894 35.5249 65.9188 35.3952C66.0482 35.2655 66.2236 35.1926 66.4066 35.1924H75.0952C75.2782 35.1926 75.4536 35.2655 75.583 35.3952C75.7124 35.5249 75.7852 35.7008 75.7854 35.8842V40.5234C75.7852 40.7068 75.7124 40.8827 75.583 41.0124C75.4536 41.1421 75.2782 41.215 75.0952 41.2152Z" fill="#EC3528"/>
<path d="M48.6515 56.6858H39.9629C39.7799 56.6856 39.6045 56.6127 39.4751 56.483C39.3457 56.3533 39.2729 56.1774 39.2727 55.994V51.3548C39.2729 51.1714 39.3457 50.9955 39.4751 50.8658C39.6045 50.7361 39.7799 50.6632 39.9629 50.663H48.6515C48.8345 50.6632 49.0099 50.7361 49.1393 50.8658C49.2687 50.9955 49.3415 51.1714 49.3417 51.3548V55.994C49.3415 56.1774 49.2687 56.3533 49.1393 56.483C49.0099 56.6127 48.8345 56.6856 48.6515 56.6858Z" fill="#EC3528"/>
<path d="M61.8733 56.6858H53.1847C53.0017 56.6856 52.8263 56.6127 52.6969 56.483C52.5675 56.3533 52.4947 56.1774 52.4945 55.994V51.3548C52.4947 51.1714 52.5675 50.9955 52.6969 50.8658C52.8263 50.7361 53.0017 50.6632 53.1847 50.663H61.8733C62.0563 50.6632 62.2317 50.7361 62.3611 50.8658C62.4905 50.9955 62.5633 51.1714 62.5635 51.3548V55.994C62.5633 56.1774 62.4905 56.3533 62.3611 56.483C62.2317 56.6127 62.0563 56.6856 61.8733 56.6858Z" fill="#EC3528"/>
<path d="M75.0952 56.6858H66.4066C66.2236 56.6856 66.0482 56.6127 65.9188 56.483C65.7894 56.3533 65.7166 56.1774 65.7164 55.994V51.3548C65.7166 51.1714 65.7894 50.9955 65.9188 50.8658C66.0482 50.7361 66.2236 50.6632 66.4066 50.663H75.0952C75.2782 50.6632 75.4536 50.7361 75.583 50.8658C75.7124 50.9955 75.7852 51.1714 75.7854 51.3548V55.994C75.7852 56.1774 75.7124 56.3533 75.583 56.483C75.4536 56.6127 75.2782 56.6856 75.0952 56.6858Z" fill="#EC3528"/>
<path d="M48.6515 72.1563H39.9629C39.7799 72.1561 39.6045 72.0831 39.4751 71.9534C39.3457 71.8237 39.2729 71.6479 39.2727 71.4645V66.8252C39.2729 66.6418 39.3457 66.466 39.4751 66.3363C39.6045 66.2066 39.7799 66.1336 39.9629 66.1334H48.6515C48.8345 66.1336 49.0099 66.2066 49.1393 66.3363C49.2687 66.466 49.3415 66.6418 49.3417 66.8252V71.4645C49.3415 71.6479 49.2687 71.8237 49.1393 71.9534C49.0099 72.0831 48.8345 72.1561 48.6515 72.1563Z" fill="#EC3528"/>
<path d="M61.8733 72.1563H53.1847C53.0017 72.1561 52.8263 72.0831 52.6969 71.9534C52.5675 71.8237 52.4947 71.6479 52.4945 71.4645V66.8252C52.4947 66.6418 52.5675 66.466 52.6969 66.3363C52.8263 66.2066 53.0017 66.1336 53.1847 66.1334H61.8733C62.0563 66.1336 62.2317 66.2066 62.3611 66.3363C62.4905 66.466 62.5633 66.6418 62.5635 66.8252V71.4645C62.5633 71.6479 62.4905 71.8237 62.3611 71.9534C62.2317 72.0831 62.0563 72.1561 61.8733 72.1563Z" fill="#EC3528"/>
<path d="M75.0952 72.1563H66.4066C66.2236 72.1561 66.0482 72.0831 65.9188 71.9534C65.7894 71.8237 65.7166 71.6479 65.7164 71.4645V66.8252C65.7166 66.6418 65.7894 66.466 65.9188 66.3363C66.0482 66.2066 66.2236 66.1336 66.4066 66.1334H75.0952C75.2782 66.1336 75.4536 66.2066 75.583 66.3363C75.7124 66.466 75.7852 66.6418 75.7854 66.8252V71.4645C75.7852 71.6479 75.7124 71.8237 75.583 71.9534C75.4536 72.0831 75.2782 72.1561 75.0952 72.1563Z" fill="#EC3528"/>
<path d="M47.2448 41.8106H37.1796C36.9364 41.8103 36.7032 41.7133 36.5312 41.5409C36.3592 41.3685 36.2625 41.1348 36.2622 40.891V35.5167C36.2625 35.2729 36.3592 35.0392 36.5312 34.8668C36.7032 34.6944 36.9364 34.5975 37.1796 34.5972H47.2448C47.488 34.5974 47.7212 34.6944 47.8932 34.8668C48.0652 35.0392 48.1619 35.2729 48.1622 35.5167V40.891C48.1619 41.1348 48.0652 41.3685 47.8932 41.5409C47.7212 41.7133 47.488 41.8103 47.2448 41.8106ZM37.1796 34.8334C36.9988 34.8336 36.8256 34.9056 36.6977 35.0337C36.5699 35.1619 36.498 35.3356 36.4979 35.5167V40.891C36.498 41.0722 36.5699 41.2459 36.6977 41.374C36.8256 41.5021 36.9988 41.5742 37.1796 41.5744H47.2448C47.4256 41.5742 47.5989 41.5021 47.7267 41.374C47.8545 41.2459 47.9264 41.0722 47.9266 40.891V35.5167C47.9264 35.3356 47.8545 35.1619 47.7267 35.0337C47.5989 34.9056 47.4256 34.8336 47.2448 34.8334H37.1796Z" fill="#3F3D56"/>
<path d="M62.5616 41.8106H52.4964C52.2532 41.8103 52.02 41.7133 51.848 41.5409C51.676 41.3685 51.5793 41.1348 51.579 40.891V35.5167C51.5793 35.2729 51.676 35.0392 51.848 34.8668C52.02 34.6944 52.2532 34.5974 52.4964 34.5972H62.5616C62.8048 34.5974 63.038 34.6944 63.21 34.8668C63.382 35.0392 63.4787 35.2729 63.479 35.5167V40.891C63.4787 41.1348 63.382 41.3685 63.21 41.5409C63.038 41.7133 62.8048 41.8103 62.5616 41.8106ZM52.4964 34.8334C52.3156 34.8336 52.1423 34.9056 52.0145 35.0337C51.8867 35.1619 51.8148 35.3356 51.8146 35.5167V40.891C51.8148 41.0722 51.8867 41.2459 52.0145 41.374C52.1423 41.5021 52.3156 41.5742 52.4964 41.5744H62.5616C62.7423 41.5742 62.9156 41.5021 63.0434 41.374C63.1713 41.2459 63.2431 41.0722 63.2433 40.891V35.5167C63.2431 35.3356 63.1713 35.1619 63.0434 35.0337C62.9156 34.9056 62.7423 34.8336 62.5616 34.8334H52.4964Z" fill="#3F3D56"/>
<path d="M77.8785 41.8106H67.8133C67.57 41.8103 67.3369 41.7133 67.1649 41.5409C66.9929 41.3685 66.8961 41.1348 66.8959 40.891V35.5167C66.8961 35.2729 66.9929 35.0392 67.1649 34.8668C67.3369 34.6944 67.57 34.5974 67.8133 34.5972H77.8785C78.1217 34.5974 78.3549 34.6944 78.5269 34.8668C78.6989 35.0392 78.7956 35.2729 78.7959 35.5167V40.891C78.7956 41.1348 78.6989 41.3685 78.5269 41.5409C78.3549 41.7133 78.1217 41.8103 77.8785 41.8106ZM67.8133 34.8334C67.6325 34.8336 67.4592 34.9056 67.3314 35.0337C67.2036 35.1619 67.1317 35.3356 67.1315 35.5167V40.891C67.1317 41.0722 67.2036 41.2459 67.3314 41.374C67.4592 41.5021 67.6325 41.5742 67.8133 41.5744H77.8785C78.0592 41.5742 78.2325 41.5021 78.3603 41.374C78.4881 41.2459 78.56 41.0722 78.5602 40.891V35.5167C78.56 35.3356 78.4881 35.1619 78.3603 35.0337C78.2325 34.9056 78.0592 34.8336 77.8785 34.8334H67.8133Z" fill="#3F3D56"/>
<path d="M47.2448 57.281H37.1796C36.9364 57.2807 36.7032 57.1838 36.5312 57.0114C36.3592 56.839 36.2625 56.6052 36.2622 56.3615V50.9872C36.2625 50.7434 36.3592 50.5097 36.5312 50.3373C36.7032 50.1649 36.9364 50.0679 37.1796 50.0676H47.2448C47.488 50.0679 47.7212 50.1649 47.8932 50.3373C48.0652 50.5097 48.1619 50.7434 48.1622 50.9872V56.3615C48.1619 56.6052 48.0652 56.839 47.8932 57.0114C47.7212 57.1838 47.488 57.2807 47.2448 57.281ZM37.1796 50.3038C36.9988 50.304 36.8256 50.3761 36.6977 50.5042C36.5699 50.6323 36.498 50.806 36.4979 50.9872V56.3615C36.498 56.5426 36.5699 56.7163 36.6977 56.8444C36.8256 56.9726 36.9988 57.0446 37.1796 57.0448H47.2448C47.4256 57.0446 47.5989 56.9726 47.7267 56.8444C47.8545 56.7163 47.9264 56.5426 47.9266 56.3615V50.9872C47.9264 50.806 47.8545 50.6323 47.7267 50.5042C47.5989 50.3761 47.4256 50.304 47.2448 50.3038H37.1796Z" fill="#3F3D56"/>
<path d="M62.5616 57.281H52.4964C52.2532 57.2807 52.02 57.1838 51.848 57.0114C51.676 56.839 51.5793 56.6052 51.579 56.3615V50.9872C51.5793 50.7434 51.676 50.5097 51.848 50.3373C52.02 50.1649 52.2532 50.0679 52.4964 50.0676H62.5616C62.8048 50.0679 63.038 50.1649 63.21 50.3373C63.382 50.5097 63.4787 50.7434 63.479 50.9872V56.3615C63.4787 56.6052 63.382 56.839 63.21 57.0114C63.038 57.1838 62.8048 57.2807 62.5616 57.281ZM52.4964 50.3038C52.3156 50.304 52.1423 50.3761 52.0145 50.5042C51.8867 50.6323 51.8148 50.806 51.8146 50.9872V56.3615C51.8148 56.5426 51.8867 56.7163 52.0145 56.8444C52.1423 56.9726 52.3156 57.0446 52.4964 57.0448H62.5616C62.7423 57.0446 62.9156 56.9726 63.0434 56.8444C63.1713 56.7163 63.2431 56.5426 63.2433 56.3615V50.9872C63.2431 50.806 63.1713 50.6323 63.0434 50.5042C62.9156 50.3761 62.7423 50.304 62.5616 50.3038H52.4964Z" fill="#3F3D56"/>
<path d="M77.8785 57.281H67.8133C67.57 57.2807 67.3369 57.1838 67.1649 57.0114C66.9929 56.839 66.8961 56.6052 66.8959 56.3615V50.9872C66.8961 50.7434 66.9929 50.5097 67.1649 50.3373C67.3369 50.1649 67.57 50.0679 67.8133 50.0676H77.8785C78.1217 50.0679 78.3549 50.1649 78.5269 50.3373C78.6989 50.5097 78.7956 50.7434 78.7959 50.9872V56.3615C78.7956 56.6052 78.6989 56.839 78.5269 57.0114C78.3549 57.1838 78.1217 57.2807 77.8785 57.281ZM67.8133 50.3038C67.6325 50.304 67.4592 50.3761 67.3314 50.5042C67.2036 50.6323 67.1317 50.806 67.1315 50.9872V56.3615C67.1317 56.5426 67.2036 56.7163 67.3314 56.8444C67.4592 56.9726 67.6325 57.0446 67.8133 57.0448H77.8785C78.0592 57.0446 78.2325 56.9726 78.3603 56.8444C78.4881 56.7163 78.56 56.5426 78.5602 56.3615V50.9872C78.56 50.806 78.4881 50.6323 78.3603 50.5042C78.2325 50.3761 78.0592 50.304 77.8785 50.3038H67.8133Z" fill="#3F3D56"/>
<path d="M47.2448 72.7516H37.1796C36.9364 72.7513 36.7032 72.6543 36.5312 72.4819C36.3592 72.3096 36.2625 72.0758 36.2622 71.832V66.4578C36.2625 66.214 36.3592 65.9802 36.5312 65.8079C36.7032 65.6355 36.9364 65.5385 37.1796 65.5382H47.2448C47.488 65.5385 47.7212 65.6355 47.8932 65.8079C48.0652 65.9802 48.1619 66.214 48.1622 66.4578V71.832C48.1619 72.0758 48.0652 72.3096 47.8932 72.482C47.7212 72.6543 47.488 72.7513 47.2448 72.7516ZM37.1796 65.7744C36.9988 65.7746 36.8256 65.8467 36.6977 65.9748C36.5699 66.1029 36.498 66.2766 36.4979 66.4578V71.832C36.498 72.0132 36.5699 72.1869 36.6977 72.315C36.8256 72.4431 36.9988 72.5152 37.1796 72.5154H47.2448C47.4256 72.5152 47.5989 72.4431 47.7267 72.315C47.8545 72.1869 47.9264 72.0132 47.9266 71.832V66.4578C47.9264 66.2766 47.8545 66.1029 47.7267 65.9748C47.5989 65.8467 47.4256 65.7746 47.2448 65.7744H37.1796Z" fill="#3F3D56"/>
<path d="M62.5616 72.7516H52.4964C52.2532 72.7513 52.02 72.6543 51.848 72.482C51.676 72.3096 51.5793 72.0758 51.579 71.832V66.4578C51.5793 66.214 51.676 65.9802 51.848 65.8079C52.02 65.6355 52.2532 65.5385 52.4964 65.5382H62.5616C62.8048 65.5385 63.038 65.6355 63.21 65.8079C63.382 65.9802 63.4787 66.214 63.479 66.4578V71.832C63.4787 72.0758 63.382 72.3096 63.21 72.4819C63.038 72.6543 62.8048 72.7513 62.5616 72.7516ZM52.4964 65.7744C52.3156 65.7746 52.1423 65.8467 52.0145 65.9748C51.8867 66.1029 51.8148 66.2766 51.8146 66.4578V71.832C51.8148 72.0132 51.8867 72.1869 52.0145 72.315C52.1423 72.4431 52.3156 72.5152 52.4964 72.5154H62.5616C62.7423 72.5152 62.9156 72.4431 63.0434 72.315C63.1713 72.1869 63.2431 72.0132 63.2433 71.832V66.4578C63.2431 66.2766 63.1713 66.1029 63.0434 65.9748C62.9156 65.8467 62.7423 65.7746 62.5616 65.7744H52.4964Z" fill="#3F3D56"/>
<path d="M77.8785 72.7516H67.8133C67.57 72.7513 67.3369 72.6543 67.1649 72.482C66.9929 72.3096 66.8961 72.0758 66.8959 71.832V66.4578C66.8961 66.214 66.9929 65.9802 67.1649 65.8079C67.3369 65.6355 67.57 65.5385 67.8133 65.5382H77.8785C78.1217 65.5385 78.3549 65.6355 78.5269 65.8079C78.6989 65.9802 78.7956 66.214 78.7959 66.4578V71.832C78.7956 72.0758 78.6989 72.3096 78.5269 72.4819C78.3549 72.6543 78.1217 72.7513 77.8785 72.7516ZM67.8133 65.7744C67.6325 65.7746 67.4592 65.8467 67.3314 65.9748C67.2036 66.1029 67.1317 66.2766 67.1315 66.4578V71.832C67.1317 72.0132 67.2036 72.1869 67.3314 72.315C67.4592 72.4431 67.6325 72.5152 67.8133 72.5154H77.8785C78.0592 72.5152 78.2325 72.4431 78.3603 72.315C78.4881 72.1869 78.56 72.0132 78.5602 71.832V66.4578C78.56 66.2766 78.4881 66.1029 78.3603 65.9748C78.2325 65.8467 78.0592 65.7746 77.8785 65.7744H67.8133Z" fill="#3F3D56"/>
<path d="M118.882 90.9925H0.117822C0.0865735 90.9925 0.056605 90.9801 0.0345091 90.9579C0.0124132 90.9358 0 90.9058 0 90.8744C0 90.8431 0.0124132 90.8131 0.0345091 90.7909C0.056605 90.7688 0.0865735 90.7563 0.117822 90.7563H118.882C118.913 90.7563 118.943 90.7688 118.965 90.7909C118.988 90.8131 119 90.8431 119 90.8744C119 90.9058 118.988 90.9358 118.965 90.9579C118.943 90.9801 118.913 90.9925 118.882 90.9925Z" fill="#3F3D56"/>
<path d="M63.4791 79.5621C63.4823 79.2926 63.3786 79.0328 63.1908 78.8399C63.003 78.647 62.7465 78.5368 62.4776 78.5334H57.5291V90.7563H63.4791V79.5621Z" fill="#3F3D56"/>
<path d="M57.6468 90.6382H51.4612V79.5963C51.4615 79.2988 51.5796 79.0137 51.7894 78.8033C51.9992 78.593 52.2837 78.4747 52.5805 78.4744H57.6468V90.6382ZM51.6968 90.402H57.4112V78.7106H52.5805C52.3462 78.7108 52.1216 78.8042 51.9559 78.9703C51.7903 79.1363 51.6971 79.3614 51.6968 79.5963V90.402Z" fill="#3F3D56"/>
<path d="M52.227 85.383C52.4222 85.383 52.5805 85.2244 52.5805 85.0287C52.5805 84.8331 52.4222 84.6744 52.227 84.6744C52.0318 84.6744 51.8735 84.8331 51.8735 85.0287C51.8735 85.2244 52.0318 85.383 52.227 85.383Z" fill="#3F3D56"/>
</svg>
