<svg width="141" height="141" viewBox="0 0 141 141" fill="none" xmlns="http://www.w3.org/2000/svg">
<path d="M58.3741 78.5088C82.3441 78.5765 106.658 97.8737 112.174 66.0444C114.977 49.8491 127.577 43.5267 119.963 33.0955C114.732 25.944 96.8191 20.366 88.2238 20.4873C75.2743 20.6678 69.7048 29.5592 62.7338 38.9329C54.8378 49.5389 44.6576 50.4639 35.5574 58.5404C28.9192 64.4342 26.164 79.5466 34.8524 85.6321C45.5008 93.0882 48.1516 78.4806 58.3741 78.5088Z" fill="#EC3528"/>
<path opacity="0.9" d="M58.3741 78.5088C82.3441 78.5765 106.658 97.8737 112.174 66.0444C114.977 49.8491 127.577 43.5267 119.963 33.0955C114.732 25.944 96.8191 20.366 88.2238 20.4873C75.2743 20.6678 69.7048 29.5592 62.7338 38.9329C54.8378 49.5389 44.6576 50.4639 35.5574 58.5404C28.9192 64.4342 26.164 79.5466 34.8524 85.6321C45.5008 93.0882 48.1516 78.4806 58.3741 78.5088Z" fill="white"/>
<path d="M70.5 120.572C100.697 120.572 125.177 119.143 125.177 117.38C125.177 115.617 100.697 114.188 70.5 114.188C40.3027 114.188 15.823 115.617 15.823 117.38C15.823 119.143 40.3027 120.572 70.5 120.572Z" fill="#F5F5F5"/>
<path d="M106.469 30.7803H74.0139C72.9007 30.7986 71.8343 31.2311 71.0229 31.9935C70.2116 32.7558 69.7135 33.7932 69.6259 34.9031L64.5782 112.611C64.537 113.14 64.6065 113.672 64.7821 114.173C64.9578 114.674 65.2357 115.132 65.5983 115.52C65.9609 115.907 66.4002 116.215 66.8883 116.424C67.3763 116.632 67.9024 116.737 68.4331 116.731H100.9C102.013 116.713 103.079 116.281 103.89 115.52C104.702 114.758 105.2 113.721 105.288 112.611L108.909 56.7581C109.062 56.7044 109.197 56.6075 109.297 56.4789C109.397 56.3504 109.458 56.1956 109.473 56.0334L110.121 46.0393C110.132 45.884 110.093 45.7293 110.008 45.5985C109.924 45.4678 109.799 45.3681 109.653 45.3145L110.327 34.9031C110.368 34.3736 110.299 33.8414 110.123 33.3402C109.947 32.8391 109.669 32.38 109.306 31.9922C108.943 31.6044 108.504 31.2964 108.015 31.0877C107.527 30.8791 107 30.7744 106.469 30.7803Z" fill="#EC3528"/>
<path d="M66.9976 50.901H67.6349C67.8321 50.8975 68.021 50.8208 68.1648 50.6858C68.3086 50.5508 68.3972 50.3672 68.4132 50.1706L68.6952 45.997C68.7023 45.9031 68.6897 45.8088 68.6584 45.72C68.627 45.6312 68.5775 45.5499 68.5131 45.4812C68.4487 45.4125 68.3707 45.358 68.2841 45.3211C68.1975 45.2841 68.1041 45.2656 68.01 45.2666H67.3755C67.178 45.2696 66.9888 45.346 66.8449 45.4811C66.7009 45.6162 66.6126 45.8002 66.5971 45.997L66.3151 50.1706C66.3081 50.2643 66.3206 50.3584 66.3518 50.447C66.3829 50.5356 66.4321 50.6168 66.4963 50.6854C66.5604 50.754 66.638 50.8086 66.7243 50.8457C66.8106 50.8828 66.9036 50.9017 66.9976 50.901V50.901Z" fill="#EC3528"/>
<path d="M66.5155 58.3514H67.15C67.348 58.3479 67.5375 58.2709 67.6819 58.1354C67.8262 57.9999 67.9151 57.8156 67.9311 57.6182L68.2131 53.4475C68.2202 53.3536 68.2076 53.2592 68.1763 53.1704C68.1449 53.0816 68.0955 53.0003 68.0311 52.9317C67.9666 52.863 67.8886 52.8084 67.802 52.7715C67.7154 52.7346 67.622 52.716 67.5279 52.7171H66.8934C66.6957 52.7199 66.5061 52.7963 66.3617 52.9314C66.2173 53.0664 66.1283 53.2504 66.1122 53.4475L65.8302 57.6182C65.8224 57.7125 65.8343 57.8073 65.8653 57.8966C65.8963 57.9859 65.9457 58.0678 66.0102 58.1369C66.0748 58.2059 66.1531 58.2607 66.2401 58.2977C66.3272 58.3346 66.421 58.353 66.5155 58.3514V58.3514Z" fill="#EC3528"/>
<path d="M99.1739 116.731H66.7185C66.1878 116.737 65.6617 116.632 65.1737 116.424C64.6856 116.215 64.2463 115.907 63.8837 115.52C63.5211 115.132 63.2432 114.674 63.0675 114.173C62.8919 113.672 62.8224 113.14 62.8636 112.611L67.9001 34.9031C67.9883 33.793 68.487 32.7555 69.2988 31.9932C70.1106 31.2309 71.1773 30.7985 72.2908 30.7802H104.743C105.274 30.7747 105.8 30.8797 106.288 31.0885C106.776 31.2974 107.216 31.6054 107.578 31.9932C107.941 32.3809 108.219 32.8399 108.394 33.3408C108.57 33.8418 108.639 34.3738 108.598 34.9031L103.562 112.611C103.474 113.721 102.976 114.758 102.165 115.52C101.353 116.281 100.287 116.713 99.1739 116.731V116.731Z" fill="#263238"/>
<path opacity="0.2" d="M85.1522 113.427C86.2891 112.326 86.3748 110.57 85.3435 109.505C84.3123 108.44 82.5546 108.468 81.4177 109.569C80.2808 110.67 80.1951 112.425 81.2264 113.491C82.2577 114.556 84.0153 114.527 85.1522 113.427Z" fill="white"/>
<path d="M102.107 106.644H65.2126C65.087 106.644 64.9627 106.618 64.8474 106.568C64.7322 106.518 64.6284 106.445 64.5425 106.353C64.4566 106.261 64.3905 106.153 64.3481 106.035C64.3057 105.917 64.288 105.791 64.2961 105.665L68.6135 39.0232C68.6326 38.7931 68.7373 38.5784 68.907 38.4218C69.0767 38.2651 69.2991 38.1779 69.53 38.1772H106.427C106.553 38.1774 106.677 38.2032 106.792 38.2533C106.907 38.3033 107.011 38.3764 107.097 38.4681C107.183 38.5598 107.249 38.6682 107.291 38.7864C107.334 38.9047 107.351 39.0304 107.343 39.1558L103.023 105.784C103.008 106.017 102.905 106.235 102.735 106.395C102.565 106.555 102.34 106.644 102.107 106.644V106.644Z" fill="white"/>
<path opacity="0.2" d="M91.8127 80.3772C95.9396 76.3822 96.2502 70.0085 92.5064 66.1412C88.7627 62.2739 82.3823 62.3774 78.2554 66.3725C74.1285 70.3676 73.8179 76.7413 77.5616 80.6086C81.3053 84.4758 87.6858 84.3723 91.8127 80.3772Z" fill="#EC3528"/>
<path opacity="0.2" d="M84.0362 88.9033C75.4718 88.9033 68.9548 81.935 69.5103 73.3707C70.0659 64.8064 77.4825 57.8381 86.0496 57.8381C94.6168 57.8381 101.131 64.8064 100.575 73.3707C100.02 81.935 92.592 88.9033 84.0362 88.9033ZM86.0102 58.1201C77.6009 58.1201 70.3169 64.9615 69.7726 73.3707C69.2283 81.7799 75.6241 88.6213 84.0333 88.6213C92.4426 88.6213 99.7266 81.7799 100.274 73.3707C100.821 64.9615 94.4307 58.1201 86.0102 58.1201Z" fill="#EC3528"/>
<path d="M82.6261 78.2521L81.7801 76.6193C79.9471 73.0633 75.7256 69.8852 74.2507 68.9602L75.6438 66.8762C77.3894 67.9704 80.8777 70.6804 83.0661 73.9008C87.1128 69.1068 92.8317 64.169 100.488 58.842L101.794 60.816C93.6157 66.5068 87.7303 71.7097 83.8162 76.7237L82.6261 78.2521Z" fill="#EC3528"/>
<path opacity="0.2" d="M82.2261 35.2163C82.686 34.7711 82.7199 34.06 82.3017 33.6281C81.8836 33.1961 81.1718 33.2069 80.7119 33.6521C80.252 34.0973 80.2181 34.8084 80.6363 35.2403C81.0544 35.6723 81.7662 35.6615 82.2261 35.2163Z" fill="white"/>
<path opacity="0.2" d="M85.4208 33.3099H94.7522C94.8972 33.3082 95.041 33.3368 95.1743 33.394C95.3076 33.4511 95.4275 33.5355 95.5263 33.6417C95.6251 33.748 95.7006 33.8737 95.7479 34.0108C95.7953 34.1479 95.8134 34.2934 95.8012 34.4379V34.4379C95.7781 34.741 95.6427 35.0246 95.4216 35.2332C95.2005 35.4418 94.9095 35.5604 94.6055 35.5659H85.277C85.132 35.5671 84.9883 35.5382 84.855 35.4809C84.7218 35.4236 84.6019 35.3393 84.503 35.2332C84.4041 35.1271 84.3283 35.0017 84.2805 34.8648C84.2326 34.7278 84.2138 34.5825 84.2251 34.4379V34.4379C84.2482 34.1348 84.3836 33.8512 84.6047 33.6426C84.8259 33.4339 85.1169 33.3153 85.4208 33.3099Z" fill="white"/>
<path d="M50.6866 54.1438C50.2101 54.6317 49.6996 55.1703 49.2287 55.7061C48.7578 56.2419 48.2868 56.7918 47.8441 57.3558C47.4013 57.9198 46.9981 58.4838 46.5807 59.0788L46.2987 59.5216L46.0167 59.9699C45.9237 60.1194 45.8391 60.2717 45.7573 60.4268L45.5317 60.8413C45.4397 61.0784 45.3873 61.3289 45.3766 61.583C45.354 61.9097 45.354 62.2376 45.3766 62.5643C45.4319 63.2693 45.526 63.9707 45.6586 64.6652C45.7827 65.3759 45.9406 66.0893 46.107 66.8C46.2733 67.5106 46.4566 68.2297 46.6428 68.9291L45.5994 69.3211C44.9582 67.9418 44.4209 66.5165 43.992 65.0572C43.7741 64.3051 43.6074 63.5392 43.4928 62.7646C43.4358 62.3515 43.4066 61.9351 43.4054 61.5181C43.3988 61.0269 43.4819 60.5385 43.6507 60.0771C43.7156 59.9192 43.7494 59.8571 43.7946 59.7613L43.9243 59.4934C44.0089 59.3157 44.0963 59.138 44.2063 58.966L44.4883 58.4471L44.7872 57.9424C45.1855 57.2774 45.6195 56.6344 46.0872 56.0163C46.5497 55.3987 47.0291 54.7981 47.5339 54.2171C48.0387 53.6362 48.5491 53.0891 49.1356 52.5251L50.6866 54.1438Z" fill="#B55B52"/>
<path d="M50.8079 50.7601C49.2794 50.8277 47.8271 53.3657 47.8271 53.3657L49.8463 57.4858C49.8463 57.4858 52.5817 55.2072 52.6155 52.9738C52.6381 51.5102 52.3109 50.6896 50.8079 50.7601Z" fill="#EC3528"/>
<path opacity="0.7" d="M50.8079 50.7601C49.2794 50.8277 47.8271 53.3657 47.8271 53.3657L49.8463 57.4858C49.8463 57.4858 52.5817 55.2072 52.6155 52.9738C52.6381 51.5102 52.3109 50.6896 50.8079 50.7601Z" fill="white"/>
<path opacity="0.2" d="M51.1717 53.721C50.7261 54.395 50.5118 56.1434 50.4441 56.9217C51.1169 56.2674 51.6873 55.5154 52.1361 54.6911C51.8344 53.9382 51.4649 53.2783 51.1717 53.721Z" fill="black"/>
<path d="M46.341 68.5005L48.1994 69.0645L46.9614 70.3166C46.9614 70.3166 45.6219 69.902 45.4358 68.9912L46.341 68.5005Z" fill="#B55B52"/>
<path d="M49.3246 70.483L49.0116 71.6815L46.9614 70.3053L48.1994 69.0532L49.3246 70.483Z" fill="#B55B52"/>
<path d="M61.5522 45.8672C61.493 46.0336 61.5353 46.2028 61.6453 46.2423C61.7552 46.2818 61.8906 46.1831 61.947 46.0167C62.0034 45.8503 61.9639 45.6783 61.8539 45.6388C61.744 45.5993 61.6114 45.698 61.5522 45.8672Z" fill="#263238"/>
<path d="M61.8032 45.6304L62.246 45.667C62.246 45.667 61.9301 45.9011 61.8032 45.6304Z" fill="#263238"/>
<path d="M61.6367 46.0815C61.6534 46.5203 61.7292 46.9547 61.8623 47.3731C61.7547 47.4013 61.6422 47.4058 61.5327 47.3863C61.4231 47.3668 61.3191 47.3238 61.2278 47.2603L61.6367 46.0815Z" fill="#A02724"/>
<path d="M62.0992 45.2157C62.0791 45.2129 62.0603 45.2042 62.0452 45.1906C62.0301 45.177 62.0194 45.1593 62.0146 45.1396C61.9837 45.0121 61.9242 44.8933 61.8407 44.7922C61.7571 44.6911 61.6517 44.6102 61.5323 44.5558C61.5067 44.5463 61.4858 44.5271 61.4742 44.5023C61.4626 44.4775 61.4612 44.4491 61.4703 44.4233C61.4747 44.4104 61.4817 44.3984 61.4908 44.3883C61.4999 44.3781 61.511 44.3699 61.5234 44.3641C61.5358 44.3583 61.5492 44.355 61.5628 44.3546C61.5765 44.3541 61.5901 44.3564 61.6028 44.3613C61.7563 44.4279 61.892 44.5298 61.9988 44.6587C62.1056 44.7875 62.1806 44.9397 62.2176 45.1029C62.221 45.1162 62.2217 45.1301 62.2197 45.1437C62.2177 45.1573 62.213 45.1704 62.2059 45.1822C62.1989 45.194 62.1895 45.2043 62.1785 45.2124C62.1674 45.2206 62.1548 45.2265 62.1415 45.2298L62.0992 45.2157Z" fill="#263238"/>
<path d="M55.7598 46.575C55.7993 47.9088 55.664 50.3086 54.6318 50.9882C54.6318 50.9882 54.77 52.3588 57.1698 52.8241C59.8065 53.3345 58.6447 51.7666 58.6447 51.7666C57.2629 51.1462 57.4744 50.0915 57.8889 49.144L55.7598 46.575Z" fill="#B55B52"/>
<path d="M63.5967 55.7034C63.8336 56.3491 64.1043 57.0485 64.3919 57.7112C64.6796 58.3739 64.9559 59.0451 65.2915 59.6852C65.6271 60.3253 65.9542 60.9683 66.3095 61.5915C66.4928 61.8989 66.6761 62.2063 66.8735 62.4996C66.9694 62.6519 67.0681 62.7985 67.1724 62.9367L67.3247 63.151L67.4009 63.261L67.4403 63.3146L67.4657 63.3427C67.6491 63.5514 67.8597 63.7344 68.0918 63.887C68.3713 64.0779 68.6612 64.253 68.9603 64.4115C69.5779 64.7443 70.2406 65.046 70.9146 65.3309C71.5886 65.6157 72.2766 65.8948 72.9732 66.1402C73.6697 66.3855 74.3832 66.645 75.0684 66.8847L74.8062 67.9704C73.2949 67.7177 71.8018 67.3664 70.3365 66.9185C69.5863 66.6897 68.8499 66.4176 68.1312 66.1035C67.7544 65.9363 67.3872 65.748 67.0314 65.5395C66.6187 65.3042 66.2449 65.0065 65.9232 64.6569L65.8555 64.5807L65.8076 64.5215L65.7145 64.4059L65.5284 64.169C65.4015 64.0139 65.2802 63.856 65.1674 63.6952C64.9277 63.3766 64.7078 63.0495 64.4906 62.7195C64.0627 62.065 63.6684 61.3893 63.309 60.6948C62.9509 60.0039 62.6125 59.3073 62.3023 58.5967C61.9921 57.886 61.7129 57.1867 61.4563 56.4084L63.5967 55.7034Z" fill="#B55B52"/>
<path d="M74.6962 66.879L76.36 66.2361L76.2782 68.1565C76.2782 68.1565 74.9302 68.5146 74.3042 67.835L74.6962 66.879Z" fill="#B55B52"/>
<path d="M77.6148 66.896L78.1844 68.1227L76.2781 68.1565L76.3599 66.2361L77.6148 66.896Z" fill="#B55B52"/>
<path d="M50.0212 115.025L52.2237 115.189L52.8779 110.132L50.6755 109.969L50.0212 115.025Z" fill="#B55B52"/>
<path d="M32.5767 103.587L34.0149 105.296L38.2843 102.552L36.8461 100.843L32.5767 103.587Z" fill="#B55B52"/>
<path d="M34.686 105.076L33.527 102.848C33.5085 102.809 33.4765 102.779 33.437 102.762C33.3975 102.746 33.3532 102.744 33.3127 102.758L31.4712 103.395C31.425 103.414 31.3833 103.442 31.3487 103.478C31.3142 103.514 31.2877 103.557 31.2709 103.603C31.2541 103.65 31.2474 103.7 31.2513 103.75C31.2552 103.8 31.2696 103.848 31.2936 103.892C31.7109 104.661 31.9506 105.02 32.4582 105.992C32.774 106.593 33.1717 107.507 33.6031 108.339C34.0346 109.171 34.858 108.801 34.7509 108.415C34.2658 106.692 34.5873 106.215 34.7509 105.468C34.7741 105.334 34.7513 105.196 34.686 105.076Z" fill="#263238"/>
<path d="M52.3618 114.876H49.8858C49.8432 114.875 49.8018 114.89 49.7692 114.917C49.7366 114.945 49.715 114.983 49.7082 115.025L49.3754 116.982C49.3686 117.031 49.3723 117.081 49.3863 117.128C49.4003 117.175 49.4243 117.219 49.4566 117.256C49.489 117.293 49.5289 117.323 49.5738 117.343C49.6187 117.364 49.6674 117.374 49.7166 117.374C50.5824 117.36 50.9969 117.309 52.0854 117.309C52.7566 117.309 54.1384 117.38 55.0634 117.38C55.9883 117.38 56.0616 116.466 55.6781 116.381C53.9607 116.012 53.2952 115.499 52.7256 115.011C52.6251 114.923 52.4956 114.874 52.3618 114.876V114.876Z" fill="#263238"/>
<path opacity="0.2" d="M52.8778 110.132L52.514 112.944L50.3201 112.724L50.6754 109.971L52.8778 110.132Z" fill="black"/>
<path opacity="0.2" d="M36.8461 100.843L38.2843 102.552L36.5162 103.689L35.0244 102.014L36.8461 100.843Z" fill="black"/>
<path d="M50.196 64.1691L59.0283 65.8809C63.2019 53.5941 62.2036 53.1909 62.2036 53.1909C61.5548 52.8403 60.8852 52.5295 60.1986 52.2603L60.0773 52.2152C59.5133 52.0093 59.3949 51.9783 58.6391 51.7583C57.3363 51.4509 56.1265 51.1943 54.6291 50.9828L54.3471 50.9433C54.0651 50.9095 53.8056 50.8813 53.5462 50.8559C53.3714 50.8362 53.1965 50.8249 53.0301 50.8136L52.4661 50.7826C51.5017 50.7347 50.8108 50.7488 50.8108 50.7488C51.2958 58.422 50.9264 60.63 50.196 64.1691Z" fill="#EC3528"/>
<path opacity="0.7" d="M50.196 64.1691L59.0283 65.8809C63.2019 53.5941 62.2036 53.1909 62.2036 53.1909C61.5548 52.8403 60.8852 52.5295 60.1986 52.2603L60.0773 52.2152C59.5133 52.0093 59.3949 51.9783 58.6391 51.7583C57.3363 51.4509 56.1265 51.1943 54.6291 50.9828L54.3471 50.9433C54.0651 50.9095 53.8056 50.8813 53.5462 50.8559C53.3714 50.8362 53.1965 50.8249 53.0301 50.8136L52.4661 50.7826C51.5017 50.7347 50.8108 50.7488 50.8108 50.7488C51.2958 58.422 50.9264 60.63 50.196 64.1691Z" fill="white"/>
<path opacity="0.2" d="M60.9345 56.0587L60.1365 55.929C60.1365 56.9808 60.5369 58.7856 60.9261 59.9334C61.256 58.8054 61.5126 57.8776 61.7072 57.0964L60.9345 56.0587Z" fill="black"/>
<path d="M61.8962 53.0413C63.2019 53.4586 64.1522 56.0418 64.5075 57.1557L61.9695 60.1364C61.9695 60.1364 59.3695 56.3999 59.784 55.2409C60.1901 54.0339 61.2645 52.8354 61.8962 53.0413Z" fill="#EC3528"/>
<path opacity="0.7" d="M61.8962 53.0413C63.2019 53.4586 64.1522 56.0418 64.5075 57.1557L61.9695 60.1364C61.9695 60.1364 59.3695 56.3999 59.784 55.2409C60.1901 54.0339 61.2645 52.8354 61.8962 53.0413Z" fill="white"/>
<path d="M62.7421 43.5042C62.4799 44.2741 61.3321 44.5814 60.19 44.1951C59.0479 43.8088 58.326 42.8641 58.5883 42.0942C58.8505 41.3243 59.9983 41.017 61.1263 41.4061C62.2543 41.7953 63.0016 42.7343 62.7421 43.5042Z" fill="#263238"/>
<path d="M56.1181 43.2926C55.5315 45.3907 55.2382 46.2648 55.9094 47.7087C56.919 49.8829 59.6205 50.2241 60.8218 48.3601C61.9019 46.685 62.6802 43.5351 60.9544 41.9587C60.5901 41.6067 60.1404 41.3558 59.6496 41.2307C59.1588 41.1055 58.6438 41.1106 58.1555 41.2452C57.6672 41.3799 57.2225 41.6396 56.8652 41.9986C56.5079 42.3576 56.2504 42.8036 56.1181 43.2926V43.2926Z" fill="#B55B52"/>
<path d="M59.395 40.842C58.549 41.327 56.7526 38.2899 54.522 40.842C52.9259 42.6722 53.9439 45.354 53.9439 45.354C53.9439 45.354 52.6721 43.1177 51.6569 44.2091C50.3315 45.6191 51.702 50.6641 56.073 50.3172C60.444 49.9703 60.021 46.4228 60.021 46.4228C60.021 46.4228 62.0683 44.3416 61.9668 42.4748C61.8907 41.0761 60.805 40.0439 59.395 40.842Z" fill="#263238"/>
<path d="M59.9251 45.0947C59.816 45.4851 59.8298 45.8996 59.9645 46.2819C60.145 46.8205 60.5596 46.8233 60.7795 46.4511C60.9995 46.0789 61.1207 45.4331 60.8077 44.9988C60.4947 44.5645 60.0661 44.6632 59.9251 45.0947Z" fill="#B55B52"/>
<path d="M56.682 65.4238C56.682 65.4238 55.7401 68.6894 54.5304 72.9984C53.7267 75.8691 52.8017 79.2024 51.9585 82.341C51.4763 84.1374 51.0223 85.8688 50.6303 87.417C48.4138 96.1731 37.3594 103.7 37.3594 103.7L35.219 101.345C35.219 101.345 42.6469 95.0902 44.807 86.9207C49.1695 70.3363 46.7161 67.5388 50.1932 64.1689L56.682 65.4238Z" fill="#263238"/>
<path opacity="0.2" d="M55.7288 68.351C55.4017 69.6172 54.99 71.2161 54.536 73.004C53.7323 75.8748 52.8073 79.208 51.9641 82.3467C51.6032 78.3423 51.4001 70.9792 54.347 68.6894C54.928 68.2438 55.3876 68.1508 55.7288 68.351Z" fill="black"/>
<path d="M37.5427 104.038L34.8694 101.097L35.6787 100.285L38.9584 103.375L37.5427 104.038Z" fill="#EC3528"/>
<path opacity="0.7" d="M37.5427 104.038L34.8694 101.097L35.6787 100.285L38.9584 103.375L37.5427 104.038Z" fill="white"/>
<path d="M35.0892 106.272C35.0623 106.271 35.0356 106.266 35.0102 106.257C34.7479 106.162 34.5816 105.66 34.5054 105.369C34.503 105.359 34.5035 105.349 34.507 105.339C34.5106 105.33 34.5169 105.321 34.5252 105.316C34.5333 105.31 34.5432 105.306 34.5534 105.306C34.5635 105.306 34.5734 105.31 34.5816 105.316C34.6605 105.361 35.3542 105.767 35.3683 106.052C35.3707 106.083 35.3646 106.114 35.3507 106.141C35.3368 106.169 35.3156 106.193 35.2894 106.21C35.2317 106.253 35.161 106.274 35.0892 106.272ZM34.6408 105.468C34.7564 105.849 34.903 106.105 35.0469 106.156C35.0776 106.165 35.1102 106.167 35.1418 106.161C35.1733 106.154 35.2027 106.14 35.2273 106.119C35.264 106.094 35.2668 106.069 35.264 106.052C35.2499 105.905 34.9143 105.64 34.6408 105.468Z" fill="#EC3528"/>
<path d="M58.8871 65.8808C58.8871 65.8808 59.4511 83.314 58.2047 89.8818C56.9244 96.726 53.0159 112.236 53.0159 112.236L49.8406 111.827C49.8406 111.827 51.8484 96.1309 52.7029 89.346C53.6307 81.9463 52.4209 64.6174 52.4209 64.6174L58.8871 65.8808Z" fill="#263238"/>
<path d="M53.6985 112.431L49.1724 111.847L49.2259 110.77L54.1525 110.984L53.6985 112.431Z" fill="#EC3528"/>
<path opacity="0.7" d="M53.6985 112.431L49.1724 111.847L49.2259 110.77L54.1525 110.984L53.6985 112.431Z" fill="white"/>
<path d="M35.1964 105.589C34.9621 105.578 34.7335 105.513 34.5281 105.4C34.5204 105.396 34.514 105.389 34.5096 105.381C34.5051 105.373 34.5028 105.364 34.5027 105.355C34.5039 105.346 34.5071 105.337 34.5119 105.33C34.5168 105.322 34.5233 105.315 34.5309 105.31C34.5563 105.31 35.0949 105.014 35.4051 105.13C35.444 105.144 35.4793 105.166 35.5085 105.195C35.5378 105.225 35.5602 105.26 35.5743 105.299C35.5928 105.336 35.5982 105.379 35.5895 105.42C35.5808 105.461 35.5585 105.498 35.5263 105.524C35.4262 105.581 35.3105 105.604 35.1964 105.589V105.589ZM34.6691 105.361C34.9144 105.474 35.343 105.536 35.4615 105.443C35.4812 105.426 35.501 105.4 35.4615 105.335C35.4532 105.31 35.4392 105.288 35.4206 105.269C35.402 105.251 35.3793 105.237 35.3543 105.228C35.1177 105.202 34.8787 105.248 34.6691 105.361V105.361Z" fill="#EC3528"/>
<path d="M53.1796 115.259C52.9474 115.254 52.7161 115.228 52.4887 115.18C52.4779 115.179 52.4678 115.174 52.4601 115.166C52.4525 115.159 52.4476 115.149 52.4464 115.138C52.4447 115.127 52.4466 115.116 52.4516 115.106C52.4567 115.097 52.4648 115.089 52.4746 115.084C52.5761 115.031 53.4672 114.582 53.7323 114.732C53.7576 114.746 53.7788 114.766 53.7936 114.791C53.8085 114.816 53.8165 114.844 53.8169 114.873C53.8224 114.92 53.816 114.967 53.7983 115.011C53.7805 115.055 53.752 115.094 53.7154 115.124C53.557 115.228 53.3683 115.275 53.1796 115.259V115.259ZM52.6635 115.107C53.1486 115.189 53.5095 115.166 53.6477 115.048C53.6715 115.027 53.6898 115 53.7011 114.971C53.7124 114.942 53.7163 114.91 53.7126 114.878C53.7134 114.867 53.7109 114.856 53.7054 114.846C53.6999 114.836 53.6916 114.827 53.6816 114.822C53.5377 114.743 53.0301 114.932 52.6635 115.107Z" fill="#EC3528"/>
<path d="M52.5 115.183C52.4899 115.186 52.4792 115.186 52.469 115.183C52.4614 115.178 52.4553 115.17 52.4514 115.162C52.4474 115.153 52.4457 115.144 52.4464 115.135C52.4464 115.095 52.5564 114.142 53.0894 114.199C53.2304 114.213 53.2727 114.283 53.2812 114.343C53.3207 114.591 52.7877 115.07 52.5198 115.189L52.5 115.183ZM53.0471 114.289C52.7313 114.289 52.6044 114.811 52.5649 115.036C52.8469 114.873 53.2022 114.498 53.1797 114.348C53.1797 114.348 53.1797 114.3 53.0781 114.292L53.0471 114.289Z" fill="#EC3528"/>
<path d="M50.1397 63.6305L49.6124 64.3383C49.5729 64.3947 49.6349 64.4709 49.7364 64.4906L59.0001 66.2841C59.0791 66.2841 59.1524 66.2841 59.1637 66.2249L59.3752 65.4522C59.3752 65.4015 59.3273 65.3394 59.2398 65.3225L50.2948 63.591C50.2677 63.5838 50.2393 63.5836 50.2121 63.5905C50.1849 63.5974 50.16 63.6112 50.1397 63.6305Z" fill="#EC3528"/>
<path d="M51.1773 64.8599L50.9376 64.812C50.8897 64.812 50.8587 64.7725 50.8671 64.7443L51.1491 63.7432C51.1491 63.715 51.2055 63.6981 51.2506 63.7065L51.4903 63.7545C51.5383 63.7545 51.5721 63.794 51.5637 63.8222L51.2817 64.8232C51.2704 64.8599 51.2252 64.8599 51.1773 64.8599Z" fill="#263238"/>
<path d="M57.2264 66.0415L56.9867 65.9964C56.9387 65.9964 56.9077 65.9541 56.9162 65.9259L57.1982 64.9276C57.1982 64.8966 57.2518 64.8797 57.2997 64.891L57.5394 64.9361C57.5845 64.9361 57.6184 64.9784 57.6099 65.0066L57.3279 66.0049C57.3194 66.0359 57.2743 66.0528 57.2264 66.0415Z" fill="#263238"/>
</svg>
