<svg width="320" height="512" viewBox="0 0 320 512" fill="none" xmlns="http://www.w3.org/2000/svg">
<path d="M312.1 375C321.469 384.369 321.469 399.57 312.1 408.94C302.731 418.31 287.53 418.309 278.16 408.94L160 289.9L41 408.9C31.631 418.269 16.43 418.269 7.05999 408.9C-2.31001 399.531 -2.30901 384.33 7.05999 374.96L126.1 256L7.02699 136.1C-2.34201 126.731 -2.34201 111.53 7.02699 102.16C16.396 92.7899 31.597 92.7909 40.967 102.16L160 222.1L279 103.1C288.369 93.7309 303.57 93.7309 312.94 103.1C322.31 112.469 322.309 127.67 312.94 137.04L193.9 256L312.1 375Z" fill="white"/>
</svg>
